<svg width="51" height="22" viewBox="0 0 51 22" fill="none" xmlns="http://www.w3.org/2000/svg">
<rect width="51" height="22" rx="11" fill="#54DC44"/>
<g clip-path="url(#clip0_24_306)">
<path fill-rule="evenodd" clip-rule="evenodd" d="M14.6836 6.00979C14.6908 5.99941 14.7051 5.99688 14.7155 6.00415L15.4256 6.50133C15.436 6.5086 15.4385 6.52292 15.4312 6.5333L14.4429 7.94467C14.9234 8.09816 15.2507 8.26373 15.2507 8.26373C15.2507 8.26373 14.4506 9.63994 13.0936 9.63994C11.7366 9.63994 10.7723 8.35729 10.7723 8.35729C10.7723 8.35729 11.1143 8.13908 11.6211 7.95194L10.5371 6.66011C10.529 6.6504 10.5302 6.63592 10.5399 6.62777L11.2039 6.0706C11.2137 6.06245 11.2281 6.06372 11.2363 6.07343L12.6088 7.70911C12.7263 7.69582 12.846 7.68839 12.9669 7.68839C13.1405 7.68839 13.3139 7.70159 13.4833 7.72399L14.6836 6.00979ZM14.952 9.70512C15.3142 9.44648 15.8621 8.77145 15.8621 8.77145C15.8621 8.77145 17.2618 9.88063 17.2618 12.2325C17.2618 14.5844 14.842 15.9998 14.842 15.9998C14.842 15.9998 13.6858 14.8322 13.402 13.3521C13.1182 11.8721 13.8218 10.2286 13.8218 10.2286C13.8218 10.2286 14.5899 9.96375 14.952 9.70512ZM11.052 9.70512C10.6898 9.44648 10.1419 8.77145 10.1419 8.77145C10.1419 8.77145 8.74219 9.88063 8.74219 12.2325C8.74219 14.5844 11.162 15.9998 11.162 15.9998C11.162 15.9998 12.3182 14.8322 12.602 13.3521C12.8858 11.8721 12.1822 10.2286 12.1822 10.2286C12.1822 10.2286 11.4141 9.96375 11.052 9.70512Z" fill="white"/>
</g>
<path d="M26.0312 11.0098H23.8691L23.8574 10.1016H25.8203C26.1445 10.1016 26.4277 10.0469 26.6699 9.9375C26.9121 9.82812 27.0996 9.67188 27.2324 9.46875C27.3691 9.26172 27.4375 9.01562 27.4375 8.73047C27.4375 8.41797 27.377 8.16406 27.2559 7.96875C27.1387 7.76953 26.957 7.625 26.7109 7.53516C26.4688 7.44141 26.1602 7.39453 25.7852 7.39453H24.1211V15H22.9902V6.46875H25.7852C26.2227 6.46875 26.6133 6.51367 26.957 6.60352C27.3008 6.68945 27.5918 6.82617 27.8301 7.01367C28.0723 7.19727 28.2559 7.43164 28.3809 7.7168C28.5059 8.00195 28.5684 8.34375 28.5684 8.74219C28.5684 9.09375 28.4785 9.41211 28.2988 9.69727C28.1191 9.97852 27.8691 10.209 27.5488 10.3887C27.2324 10.5684 26.8613 10.6836 26.4355 10.7344L26.0312 11.0098ZM25.9785 15H23.4238L24.0625 14.0801H25.9785C26.3379 14.0801 26.6426 14.0176 26.8926 13.8926C27.1465 13.7676 27.3398 13.5918 27.4727 13.3652C27.6055 13.1348 27.6719 12.8633 27.6719 12.5508C27.6719 12.2344 27.6152 11.9609 27.502 11.7305C27.3887 11.5 27.2109 11.3223 26.9688 11.1973C26.7266 11.0723 26.4141 11.0098 26.0312 11.0098H24.4199L24.4316 10.1016H26.6348L26.875 10.4297C27.2852 10.4648 27.6328 10.582 27.918 10.7812C28.2031 10.9766 28.4199 11.2266 28.5684 11.5312C28.7207 11.8359 28.7969 12.1719 28.7969 12.5391C28.7969 13.0703 28.6797 13.5195 28.4453 13.8867C28.2148 14.25 27.8887 14.5273 27.4668 14.7188C27.0449 14.9062 26.5488 15 25.9785 15ZM34.1816 13.5352V8.66016H35.2715V15H34.2344L34.1816 13.5352ZM34.3867 12.1992L34.8379 12.1875C34.8379 12.6094 34.793 13 34.7031 13.3594C34.6172 13.7148 34.4766 14.0234 34.2812 14.2852C34.0859 14.5469 33.8301 14.752 33.5137 14.9004C33.1973 15.0449 32.8125 15.1172 32.3594 15.1172C32.0508 15.1172 31.7676 15.0723 31.5098 14.9824C31.2559 14.8926 31.0371 14.7539 30.8535 14.5664C30.6699 14.3789 30.5273 14.1348 30.4258 13.834C30.3281 13.5332 30.2793 13.1719 30.2793 12.75V8.66016H31.3633V12.7617C31.3633 13.0469 31.3945 13.2832 31.457 13.4707C31.5234 13.6543 31.6113 13.8008 31.7207 13.9102C31.834 14.0156 31.959 14.0898 32.0957 14.1328C32.2363 14.1758 32.3809 14.1973 32.5293 14.1973C32.9902 14.1973 33.3555 14.1094 33.625 13.9336C33.8945 13.7539 34.0879 13.5137 34.2051 13.2129C34.3262 12.9082 34.3867 12.5703 34.3867 12.1992ZM41.0312 8.66016H42.0156V14.8652C42.0156 15.4238 41.9023 15.9004 41.6758 16.2949C41.4492 16.6895 41.1328 16.9883 40.7266 17.1914C40.3242 17.3984 39.8594 17.502 39.332 17.502C39.1133 17.502 38.8555 17.4668 38.5586 17.3965C38.2656 17.3301 37.9766 17.2148 37.6914 17.0508C37.4102 16.8906 37.1738 16.6738 36.9824 16.4004L37.5508 15.7559C37.8164 16.0762 38.0938 16.2988 38.3828 16.4238C38.6758 16.5488 38.9648 16.6113 39.25 16.6113C39.5938 16.6113 39.8906 16.5469 40.1406 16.418C40.3906 16.2891 40.584 16.0977 40.7207 15.8438C40.8613 15.5938 40.9316 15.2852 40.9316 14.918V10.0547L41.0312 8.66016ZM36.666 11.9004V11.7773C36.666 11.293 36.7227 10.8535 36.8359 10.459C36.9531 10.0605 37.1191 9.71875 37.334 9.43359C37.5527 9.14844 37.8164 8.92969 38.125 8.77734C38.4336 8.62109 38.7812 8.54297 39.168 8.54297C39.5664 8.54297 39.9141 8.61328 40.2109 8.75391C40.5117 8.89062 40.7656 9.0918 40.9727 9.35742C41.1836 9.61914 41.3496 9.93555 41.4707 10.3066C41.5918 10.6777 41.6758 11.0977 41.7227 11.5664V12.1055C41.6797 12.5703 41.5957 12.9883 41.4707 13.3594C41.3496 13.7305 41.1836 14.0469 40.9727 14.3086C40.7656 14.5703 40.5117 14.7715 40.2109 14.9121C39.9102 15.0488 39.5586 15.1172 39.1562 15.1172C38.7773 15.1172 38.4336 15.0371 38.125 14.877C37.8203 14.7168 37.5586 14.4922 37.3398 14.2031C37.1211 13.9141 36.9531 13.5742 36.8359 13.1836C36.7227 12.7891 36.666 12.3613 36.666 11.9004ZM37.75 11.7773V11.9004C37.75 12.2168 37.7812 12.5137 37.8438 12.791C37.9102 13.0684 38.0098 13.3125 38.1426 13.5234C38.2793 13.7344 38.4531 13.9004 38.6641 14.0215C38.875 14.1387 39.127 14.1973 39.4199 14.1973C39.7793 14.1973 40.0762 14.1211 40.3105 13.9688C40.5449 13.8164 40.7305 13.6152 40.8672 13.3652C41.0078 13.1152 41.1172 12.8438 41.1953 12.5508V11.1387C41.1523 10.9238 41.0859 10.7168 40.9961 10.5176C40.9102 10.3145 40.7969 10.1348 40.6562 9.97852C40.5195 9.81836 40.3496 9.69141 40.1465 9.59766C39.9434 9.50391 39.7051 9.45703 39.4316 9.45703C39.1348 9.45703 38.8789 9.51953 38.6641 9.64453C38.4531 9.76562 38.2793 9.93359 38.1426 10.1484C38.0098 10.3594 37.9102 10.6055 37.8438 10.8867C37.7812 11.1641 37.75 11.4609 37.75 11.7773Z" fill="white"/>
<defs>
<clipPath id="clip0_24_306">
<rect width="10" height="10" fill="white" transform="translate(8 6)"/>
</clipPath>
</defs>
</svg>
