<svg width="55" height="22" viewBox="0 0 55 22" fill="none" xmlns="http://www.w3.org/2000/svg">
<rect width="55" height="22" rx="11" fill="#040534"/>
<g clip-path="url(#clip0_27_860)">
<path fill-rule="evenodd" clip-rule="evenodd" d="M12.4799 14.8447C12.6699 14.8738 12.8645 14.8889 13.0626 14.8889C15.172 14.8889 16.882 13.1789 16.882 11.0695C16.882 8.96002 15.172 7.25 13.0626 7.25C12.9211 7.25 12.7813 7.2577 12.6438 7.2727C13.6902 8.06545 14.382 9.43871 14.382 11C14.382 12.6414 13.6174 14.075 12.4799 14.8447ZM12.9932 16C15.7546 16 17.9932 13.7614 17.9932 11C17.9932 8.23857 15.7546 6 12.9932 6C10.2317 6 7.99316 8.23857 7.99316 11C7.99316 13.7614 10.2317 16 12.9932 16Z" fill="white"/>
</g>
<path d="M25.2988 15H23.5176L23.5293 14.0801H25.2988C25.9082 14.0801 26.416 13.9531 26.8223 13.6992C27.2285 13.4414 27.5332 13.082 27.7363 12.6211C27.9434 12.1562 28.0469 11.6133 28.0469 10.9922V10.4707C28.0469 9.98242 27.9883 9.54883 27.8711 9.16992C27.7539 8.78711 27.582 8.46484 27.3555 8.20312C27.1289 7.9375 26.8516 7.73633 26.5234 7.59961C26.1992 7.46289 25.8262 7.39453 25.4043 7.39453H23.4824V6.46875H25.4043C25.9629 6.46875 26.4727 6.5625 26.9336 6.75C27.3945 6.93359 27.791 7.20117 28.123 7.55273C28.459 7.90039 28.7168 8.32227 28.8965 8.81836C29.0762 9.31055 29.166 9.86523 29.166 10.4824V10.9922C29.166 11.6094 29.0762 12.166 28.8965 12.6621C28.7168 13.1543 28.457 13.5742 28.1172 13.9219C27.7812 14.2695 27.375 14.5371 26.8984 14.7246C26.4258 14.9082 25.8926 15 25.2988 15ZM24.1211 6.46875V15H22.9902V6.46875H24.1211ZM34.4395 13.916V10.6523C34.4395 10.4023 34.3887 10.1855 34.2871 10.002C34.1895 9.81445 34.041 9.66992 33.8418 9.56836C33.6426 9.4668 33.3965 9.41602 33.1035 9.41602C32.8301 9.41602 32.5898 9.46289 32.3828 9.55664C32.1797 9.65039 32.0195 9.77344 31.9023 9.92578C31.7891 10.0781 31.7324 10.2422 31.7324 10.418H30.6484C30.6484 10.1914 30.707 9.9668 30.8242 9.74414C30.9414 9.52148 31.1094 9.32031 31.3281 9.14062C31.5508 8.95703 31.8164 8.8125 32.125 8.70703C32.4375 8.59766 32.7852 8.54297 33.168 8.54297C33.6289 8.54297 34.0352 8.62109 34.3867 8.77734C34.7422 8.93359 35.0195 9.16992 35.2188 9.48633C35.4219 9.79883 35.5234 10.1914 35.5234 10.6641V13.6172C35.5234 13.8281 35.541 14.0527 35.5762 14.291C35.6152 14.5293 35.6719 14.7344 35.7461 14.9062V15H34.6152C34.5605 14.875 34.5176 14.709 34.4863 14.502C34.4551 14.291 34.4395 14.0957 34.4395 13.916ZM34.627 11.1562L34.6387 11.918H33.543C33.2344 11.918 32.959 11.9434 32.7168 11.9941C32.4746 12.041 32.2715 12.1133 32.1074 12.2109C31.9434 12.3086 31.8184 12.4316 31.7324 12.5801C31.6465 12.7246 31.6035 12.8945 31.6035 13.0898C31.6035 13.2891 31.6484 13.4707 31.7383 13.6348C31.8281 13.7988 31.9629 13.9297 32.1426 14.0273C32.3262 14.1211 32.5508 14.168 32.8164 14.168C33.1484 14.168 33.4414 14.0977 33.6953 13.957C33.9492 13.8164 34.1504 13.6445 34.2988 13.4414C34.4512 13.2383 34.5332 13.041 34.5449 12.8496L35.0078 13.3711C34.9805 13.5352 34.9062 13.7168 34.7852 13.916C34.6641 14.1152 34.502 14.3066 34.2988 14.4902C34.0996 14.6699 33.8613 14.8203 33.584 14.9414C33.3105 15.0586 33.002 15.1172 32.6582 15.1172C32.2285 15.1172 31.8516 15.0332 31.5273 14.8652C31.207 14.6973 30.957 14.4727 30.7773 14.1914C30.6016 13.9062 30.5137 13.5879 30.5137 13.2363C30.5137 12.8965 30.5801 12.5977 30.7129 12.3398C30.8457 12.0781 31.0371 11.8613 31.2871 11.6895C31.5371 11.5137 31.8379 11.3809 32.1895 11.291C32.541 11.2012 32.9336 11.1562 33.3672 11.1562H34.627ZM38.3125 9.65625V15H37.2285V8.66016H38.2832L38.3125 9.65625ZM40.293 8.625L40.2871 9.63281C40.1973 9.61328 40.1113 9.60156 40.0293 9.59766C39.9512 9.58984 39.8613 9.58594 39.7598 9.58594C39.5098 9.58594 39.2891 9.625 39.0977 9.70312C38.9062 9.78125 38.7441 9.89062 38.6113 10.0312C38.4785 10.1719 38.373 10.3398 38.2949 10.5352C38.2207 10.7266 38.1719 10.9375 38.1484 11.168L37.8438 11.3438C37.8438 10.9609 37.8809 10.6016 37.9551 10.2656C38.0332 9.92969 38.1523 9.63281 38.3125 9.375C38.4727 9.11328 38.6758 8.91016 38.9219 8.76562C39.1719 8.61719 39.4688 8.54297 39.8125 8.54297C39.8906 8.54297 39.9805 8.55273 40.082 8.57227C40.1836 8.58789 40.2539 8.60547 40.293 8.625ZM42.3848 6V15H41.2949V6H42.3848ZM46.2578 8.66016L43.4922 11.6191L41.9453 13.2246L41.8574 12.0703L42.9648 10.7461L44.9336 8.66016H46.2578ZM45.2676 15L43.0059 11.9766L43.5684 11.0098L46.5449 15H45.2676Z" fill="white"/>
<defs>
<clipPath id="clip0_27_860">
<rect width="10" height="10" fill="white" transform="translate(8 6)"/>
</clipPath>
</defs>
</svg>
