<svg width="69" height="22" viewBox="0 0 69 22" fill="none" xmlns="http://www.w3.org/2000/svg">
<rect width="69" height="22" rx="11" fill="#0804B4"/>
<g clip-path="url(#clip0_27_864)">
<path fill-rule="evenodd" clip-rule="evenodd" d="M13.4825 10.9781C13.5502 10.9368 13.6077 10.8502 13.6541 10.754C14.2644 11.0034 14.6932 11.5928 14.6932 12.2801C14.6932 13.1932 13.9364 13.9334 13.0028 13.9334C12.6195 13.9334 12.2661 13.8086 11.9825 13.5984C11.8895 13.5544 11.813 13.5121 11.7504 13.4774C11.6533 13.4237 11.5896 13.3885 11.5497 13.394C11.4331 13.4101 11.467 13.5174 11.4977 13.6148C11.5186 13.681 11.5381 13.7427 11.5079 13.7681C11.4764 13.7947 11.3743 13.6974 11.255 13.5836C11.0926 13.4288 10.8983 13.2435 10.8066 13.2992C10.7342 13.3432 10.8045 13.4625 10.8906 13.6086L10.897 13.6195C10.9334 13.6812 10.9755 13.7441 11.014 13.8015C11.0922 13.9181 11.1551 14.0121 11.1236 14.028C11.0855 14.0472 10.8202 13.8681 10.5966 13.6195C10.5103 13.5235 10.4267 13.4195 10.349 13.3228V13.3228C10.1789 13.1112 10.0372 12.9349 9.95772 12.9558C9.86204 12.9809 9.93442 13.1783 10.0408 13.3682C10.0905 13.457 10.149 13.5474 10.1996 13.6257V13.6257C10.2784 13.7475 10.3382 13.8399 10.3165 13.8513C10.2872 13.8665 10.0298 13.6155 9.85495 13.2992C9.75109 13.1113 9.66388 12.9036 9.59328 12.7355C9.51672 12.5532 9.45969 12.4174 9.42213 12.4037C9.29165 12.3562 9.29165 12.6222 9.34398 13.0062C9.35081 13.0563 9.36097 13.1088 9.37349 13.1623C9.881 14.8044 11.44 16 13.2845 16C15.5407 16 17.3697 14.2112 17.3697 12.0045C17.3697 9.9043 15.7129 8.18256 13.6078 8.02137C13.6105 7.92243 13.6621 7.72623 13.6621 7.72623C13.6621 7.72623 14.0337 6.82709 14.0534 6.63496C14.0547 6.62221 14.0562 6.60835 14.0579 6.59359C14.081 6.38599 14.1241 6 13.792 6C13.6147 6 13.5322 6.13193 13.4379 6.28281V6.28281C13.4017 6.34074 13.3637 6.40146 13.318 6.45857C12.9885 6.86999 12.4345 7.38377 12.1204 7.65748C11.4565 8.23602 10.8051 8.71148 10.4251 8.98879L10.4251 8.98881C10.2523 9.11492 10.1357 9.20006 10.0996 9.23523C9.82762 9.50039 8.85238 11.2595 8.85238 11.2595C8.85238 11.2595 8.537 11.8239 8.6491 11.9383C8.7612 12.0528 9.03153 12.0266 9.03153 12.0266C9.03153 12.0266 12.6632 11.1934 12.9883 11.1277C13.0759 11.11 13.1377 11.0998 13.1851 11.092C13.3139 11.0707 13.337 11.0669 13.4825 10.9781ZM10.9147 9.9075C10.7198 10.0928 10.3965 10.5351 10.3965 10.5351C10.3965 10.5351 10.9974 10.5721 11.3283 10.2575C11.6592 9.94297 11.5834 9.40689 11.5834 9.40689C11.5834 9.40689 11.1097 9.72221 10.9147 9.9075Z" fill="white"/>
</g>
<path d="M25.2988 15H23.5176L23.5293 14.0801H25.2988C25.9082 14.0801 26.416 13.9531 26.8223 13.6992C27.2285 13.4414 27.5332 13.082 27.7363 12.6211C27.9434 12.1562 28.0469 11.6133 28.0469 10.9922V10.4707C28.0469 9.98242 27.9883 9.54883 27.8711 9.16992C27.7539 8.78711 27.582 8.46484 27.3555 8.20312C27.1289 7.9375 26.8516 7.73633 26.5234 7.59961C26.1992 7.46289 25.8262 7.39453 25.4043 7.39453H23.4824V6.46875H25.4043C25.9629 6.46875 26.4727 6.5625 26.9336 6.75C27.3945 6.93359 27.791 7.20117 28.123 7.55273C28.459 7.90039 28.7168 8.32227 28.8965 8.81836C29.0762 9.31055 29.166 9.86523 29.166 10.4824V10.9922C29.166 11.6094 29.0762 12.166 28.8965 12.6621C28.7168 13.1543 28.457 13.5742 28.1172 13.9219C27.7812 14.2695 27.375 14.5371 26.8984 14.7246C26.4258 14.9082 25.8926 15 25.2988 15ZM24.1211 6.46875V15H22.9902V6.46875H24.1211ZM31.7852 9.65625V15H30.7012V8.66016H31.7559L31.7852 9.65625ZM33.7656 8.625L33.7598 9.63281C33.6699 9.61328 33.584 9.60156 33.502 9.59766C33.4238 9.58984 33.334 9.58594 33.2324 9.58594C32.9824 9.58594 32.7617 9.625 32.5703 9.70312C32.3789 9.78125 32.2168 9.89062 32.084 10.0312C31.9512 10.1719 31.8457 10.3398 31.7676 10.5352C31.6934 10.7266 31.6445 10.9375 31.6211 11.168L31.3164 11.3438C31.3164 10.9609 31.3535 10.6016 31.4277 10.2656C31.5059 9.92969 31.625 9.63281 31.7852 9.375C31.9453 9.11328 32.1484 8.91016 32.3945 8.76562C32.6445 8.61719 32.9414 8.54297 33.2852 8.54297C33.3633 8.54297 33.4531 8.55273 33.5547 8.57227C33.6562 8.58789 33.7266 8.60547 33.7656 8.625ZM38.2715 13.916V10.6523C38.2715 10.4023 38.2207 10.1855 38.1191 10.002C38.0215 9.81445 37.873 9.66992 37.6738 9.56836C37.4746 9.4668 37.2285 9.41602 36.9355 9.41602C36.6621 9.41602 36.4219 9.46289 36.2148 9.55664C36.0117 9.65039 35.8516 9.77344 35.7344 9.92578C35.6211 10.0781 35.5645 10.2422 35.5645 10.418H34.4805C34.4805 10.1914 34.5391 9.9668 34.6562 9.74414C34.7734 9.52148 34.9414 9.32031 35.1602 9.14062C35.3828 8.95703 35.6484 8.8125 35.957 8.70703C36.2695 8.59766 36.6172 8.54297 37 8.54297C37.4609 8.54297 37.8672 8.62109 38.2188 8.77734C38.5742 8.93359 38.8516 9.16992 39.0508 9.48633C39.2539 9.79883 39.3555 10.1914 39.3555 10.6641V13.6172C39.3555 13.8281 39.373 14.0527 39.4082 14.291C39.4473 14.5293 39.5039 14.7344 39.5781 14.9062V15H38.4473C38.3926 14.875 38.3496 14.709 38.3184 14.502C38.2871 14.291 38.2715 14.0957 38.2715 13.916ZM38.459 11.1562L38.4707 11.918H37.375C37.0664 11.918 36.791 11.9434 36.5488 11.9941C36.3066 12.041 36.1035 12.1133 35.9395 12.2109C35.7754 12.3086 35.6504 12.4316 35.5645 12.5801C35.4785 12.7246 35.4355 12.8945 35.4355 13.0898C35.4355 13.2891 35.4805 13.4707 35.5703 13.6348C35.6602 13.7988 35.7949 13.9297 35.9746 14.0273C36.1582 14.1211 36.3828 14.168 36.6484 14.168C36.9805 14.168 37.2734 14.0977 37.5273 13.957C37.7812 13.8164 37.9824 13.6445 38.1309 13.4414C38.2832 13.2383 38.3652 13.041 38.377 12.8496L38.8398 13.3711C38.8125 13.5352 38.7383 13.7168 38.6172 13.916C38.4961 14.1152 38.334 14.3066 38.1309 14.4902C37.9316 14.6699 37.6934 14.8203 37.416 14.9414C37.1426 15.0586 36.834 15.1172 36.4902 15.1172C36.0605 15.1172 35.6836 15.0332 35.3594 14.8652C35.0391 14.6973 34.7891 14.4727 34.6094 14.1914C34.4336 13.9062 34.3457 13.5879 34.3457 13.2363C34.3457 12.8965 34.4121 12.5977 34.5449 12.3398C34.6777 12.0781 34.8691 11.8613 35.1191 11.6895C35.3691 11.5137 35.6699 11.3809 36.0215 11.291C36.373 11.2012 36.7656 11.1562 37.1992 11.1562H38.459ZM45.168 8.66016H46.1523V14.8652C46.1523 15.4238 46.0391 15.9004 45.8125 16.2949C45.5859 16.6895 45.2695 16.9883 44.8633 17.1914C44.4609 17.3984 43.9961 17.502 43.4688 17.502C43.25 17.502 42.9922 17.4668 42.6953 17.3965C42.4023 17.3301 42.1133 17.2148 41.8281 17.0508C41.5469 16.8906 41.3105 16.6738 41.1191 16.4004L41.6875 15.7559C41.9531 16.0762 42.2305 16.2988 42.5195 16.4238C42.8125 16.5488 43.1016 16.6113 43.3867 16.6113C43.7305 16.6113 44.0273 16.5469 44.2773 16.418C44.5273 16.2891 44.7207 16.0977 44.8574 15.8438C44.998 15.5938 45.0684 15.2852 45.0684 14.918V10.0547L45.168 8.66016ZM40.8027 11.9004V11.7773C40.8027 11.293 40.8594 10.8535 40.9727 10.459C41.0898 10.0605 41.2559 9.71875 41.4707 9.43359C41.6895 9.14844 41.9531 8.92969 42.2617 8.77734C42.5703 8.62109 42.918 8.54297 43.3047 8.54297C43.7031 8.54297 44.0508 8.61328 44.3477 8.75391C44.6484 8.89062 44.9023 9.0918 45.1094 9.35742C45.3203 9.61914 45.4863 9.93555 45.6074 10.3066C45.7285 10.6777 45.8125 11.0977 45.8594 11.5664V12.1055C45.8164 12.5703 45.7324 12.9883 45.6074 13.3594C45.4863 13.7305 45.3203 14.0469 45.1094 14.3086C44.9023 14.5703 44.6484 14.7715 44.3477 14.9121C44.0469 15.0488 43.6953 15.1172 43.293 15.1172C42.9141 15.1172 42.5703 15.0371 42.2617 14.877C41.957 14.7168 41.6953 14.4922 41.4766 14.2031C41.2578 13.9141 41.0898 13.5742 40.9727 13.1836C40.8594 12.7891 40.8027 12.3613 40.8027 11.9004ZM41.8867 11.7773V11.9004C41.8867 12.2168 41.918 12.5137 41.9805 12.791C42.0469 13.0684 42.1465 13.3125 42.2793 13.5234C42.416 13.7344 42.5898 13.9004 42.8008 14.0215C43.0117 14.1387 43.2637 14.1973 43.5566 14.1973C43.916 14.1973 44.2129 14.1211 44.4473 13.9688C44.6816 13.8164 44.8672 13.6152 45.0039 13.3652C45.1445 13.1152 45.2539 12.8438 45.332 12.5508V11.1387C45.2891 10.9238 45.2227 10.7168 45.1328 10.5176C45.0469 10.3145 44.9336 10.1348 44.793 9.97852C44.6562 9.81836 44.4863 9.69141 44.2832 9.59766C44.0801 9.50391 43.8418 9.45703 43.5684 9.45703C43.2715 9.45703 43.0156 9.51953 42.8008 9.64453C42.5898 9.76562 42.416 9.93359 42.2793 10.1484C42.1465 10.3594 42.0469 10.6055 41.9805 10.8867C41.918 11.1641 41.8867 11.4609 41.8867 11.7773ZM47.5117 11.9004V11.7656C47.5117 11.3086 47.5781 10.8848 47.7109 10.4941C47.8438 10.0996 48.0352 9.75781 48.2852 9.46875C48.5352 9.17578 48.8379 8.94922 49.1934 8.78906C49.5488 8.625 49.9473 8.54297 50.3887 8.54297C50.834 8.54297 51.2344 8.625 51.5898 8.78906C51.9492 8.94922 52.2539 9.17578 52.5039 9.46875C52.7578 9.75781 52.9512 10.0996 53.084 10.4941C53.2168 10.8848 53.2832 11.3086 53.2832 11.7656V11.9004C53.2832 12.3574 53.2168 12.7812 53.084 13.1719C52.9512 13.5625 52.7578 13.9043 52.5039 14.1973C52.2539 14.4863 51.9512 14.7129 51.5957 14.877C51.2441 15.0371 50.8457 15.1172 50.4004 15.1172C49.9551 15.1172 49.5547 15.0371 49.1992 14.877C48.8438 14.7129 48.5391 14.4863 48.2852 14.1973C48.0352 13.9043 47.8438 13.5625 47.7109 13.1719C47.5781 12.7812 47.5117 12.3574 47.5117 11.9004ZM48.5957 11.7656V11.9004C48.5957 12.2168 48.6328 12.5156 48.707 12.7969C48.7812 13.0742 48.8926 13.3203 49.041 13.5352C49.1934 13.75 49.3828 13.9199 49.6094 14.0449C49.8359 14.166 50.0996 14.2266 50.4004 14.2266C50.6973 14.2266 50.957 14.166 51.1797 14.0449C51.4062 13.9199 51.5938 13.75 51.7422 13.5352C51.8906 13.3203 52.002 13.0742 52.0762 12.7969C52.1543 12.5156 52.1934 12.2168 52.1934 11.9004V11.7656C52.1934 11.4531 52.1543 11.1582 52.0762 10.8809C52.002 10.5996 51.8887 10.3516 51.7363 10.1367C51.5879 9.91797 51.4004 9.74609 51.1738 9.62109C50.9512 9.49609 50.6895 9.43359 50.3887 9.43359C50.0918 9.43359 49.8301 9.49609 49.6035 9.62109C49.3809 9.74609 49.1934 9.91797 49.041 10.1367C48.8926 10.3516 48.7812 10.5996 48.707 10.8809C48.6328 11.1582 48.5957 11.4531 48.5957 11.7656ZM55.7266 10.0137V15H54.6426V8.66016H55.668L55.7266 10.0137ZM55.4688 11.5898L55.0176 11.5723C55.0215 11.1387 55.0859 10.7383 55.2109 10.3711C55.3359 10 55.5117 9.67773 55.7383 9.4043C55.9648 9.13086 56.2344 8.91992 56.5469 8.77148C56.8633 8.61914 57.2129 8.54297 57.5957 8.54297C57.9082 8.54297 58.1895 8.58594 58.4395 8.67188C58.6895 8.75391 58.9023 8.88672 59.0781 9.07031C59.2578 9.25391 59.3945 9.49219 59.4883 9.78516C59.582 10.0742 59.6289 10.4277 59.6289 10.8457V15H58.5391V10.834C58.5391 10.502 58.4902 10.2363 58.3926 10.0371C58.2949 9.83398 58.1523 9.6875 57.9648 9.59766C57.7773 9.50391 57.5469 9.45703 57.2734 9.45703C57.0039 9.45703 56.7578 9.51367 56.5352 9.62695C56.3164 9.74023 56.127 9.89648 55.9668 10.0957C55.8105 10.2949 55.6875 10.5234 55.5977 10.7812C55.5117 11.0352 55.4688 11.3047 55.4688 11.5898Z" fill="white"/>
<defs>
<clipPath id="clip0_27_864">
<rect width="10" height="10" fill="white" transform="translate(8 6)"/>
</clipPath>
</defs>
</svg>
