<svg width="64" height="22" viewBox="0 0 64 22" fill="none" xmlns="http://www.w3.org/2000/svg">
<rect width="64" height="22" rx="11" fill="#F8A801"/>
<path fill-rule="evenodd" clip-rule="evenodd" d="M10.9796 6.0114C10.9777 6.00582 10.9819 6 10.9878 6H14.5C14.5038 6 14.5072 6.00245 14.5083 6.00605L16.1215 11.2182C16.1232 11.2237 16.1191 11.2293 16.1133 11.2293H13.775C13.7722 11.2293 13.7701 11.232 13.7709 11.2348L15.112 15.9556C15.1146 15.9647 15.1026 15.9707 15.0968 15.9631L9.88529 9.03256C9.88103 9.02689 9.88507 9.01881 9.89215 9.01881H12.0143C12.0173 9.01881 12.0193 9.0159 12.0184 9.01311L10.9796 6.0114Z" fill="white"/>
<path d="M28.4102 14.0801V15H23.8926V14.0801H28.4102ZM24.1211 6.46875V15H22.9902V6.46875H24.1211ZM27.8125 10.1367V11.0566H23.8926V10.1367H27.8125ZM28.3516 6.46875V7.39453H23.8926V6.46875H28.3516ZM30.8242 6V15H29.7344V6H30.8242ZM35.1953 15.1172C34.7539 15.1172 34.3535 15.043 33.9941 14.8945C33.6387 14.7422 33.332 14.5293 33.0742 14.2559C32.8203 13.9824 32.625 13.6582 32.4883 13.2832C32.3516 12.9082 32.2832 12.498 32.2832 12.0527V11.8066C32.2832 11.291 32.3594 10.832 32.5117 10.4297C32.6641 10.0234 32.8711 9.67969 33.1328 9.39844C33.3945 9.11719 33.6914 8.9043 34.0234 8.75977C34.3555 8.61523 34.6992 8.54297 35.0547 8.54297C35.5078 8.54297 35.8984 8.62109 36.2266 8.77734C36.5586 8.93359 36.8301 9.15234 37.041 9.43359C37.252 9.71094 37.4082 10.0391 37.5098 10.418C37.6113 10.793 37.6621 11.2031 37.6621 11.6484V12.1348H32.9277V11.25H36.5781V11.168C36.5625 10.8867 36.5039 10.6133 36.4023 10.3477C36.3047 10.082 36.1484 9.86328 35.9336 9.69141C35.7188 9.51953 35.4258 9.43359 35.0547 9.43359C34.8086 9.43359 34.582 9.48633 34.375 9.5918C34.168 9.69336 33.9902 9.8457 33.8418 10.0488C33.6934 10.252 33.5781 10.5 33.4961 10.793C33.4141 11.0859 33.373 11.4238 33.373 11.8066V12.0527C33.373 12.3535 33.4141 12.6367 33.4961 12.9023C33.582 13.1641 33.7051 13.3945 33.8652 13.5938C34.0293 13.793 34.2266 13.9492 34.457 14.0625C34.6914 14.1758 34.957 14.2324 35.2539 14.2324C35.6367 14.2324 35.9609 14.1543 36.2266 13.998C36.4922 13.8418 36.7246 13.6328 36.9238 13.3711L37.5801 13.8926C37.4434 14.0996 37.2695 14.2969 37.0586 14.4844C36.8477 14.6719 36.5879 14.8242 36.2793 14.9414C35.9746 15.0586 35.6133 15.1172 35.1953 15.1172ZM41.582 8.66016V9.49219H38.1543V8.66016H41.582ZM39.3145 7.11914H40.3984V13.4297C40.3984 13.6445 40.4316 13.8066 40.498 13.916C40.5645 14.0254 40.6504 14.0977 40.7559 14.1328C40.8613 14.168 40.9746 14.1855 41.0957 14.1855C41.1855 14.1855 41.2793 14.1777 41.377 14.1621C41.4785 14.1426 41.5547 14.127 41.6055 14.1152L41.6113 15C41.5254 15.0273 41.4121 15.0527 41.2715 15.0762C41.1348 15.1035 40.9688 15.1172 40.7734 15.1172C40.5078 15.1172 40.2637 15.0645 40.041 14.959C39.8184 14.8535 39.6406 14.6777 39.5078 14.4316C39.3789 14.1816 39.3145 13.8457 39.3145 13.4238V7.11914ZM43.9375 9.65625V15H42.8535V8.66016H43.9082L43.9375 9.65625ZM45.918 8.625L45.9121 9.63281C45.8223 9.61328 45.7363 9.60156 45.6543 9.59766C45.5762 9.58984 45.4863 9.58594 45.3848 9.58594C45.1348 9.58594 44.9141 9.625 44.7227 9.70312C44.5312 9.78125 44.3691 9.89062 44.2363 10.0312C44.1035 10.1719 43.998 10.3398 43.9199 10.5352C43.8457 10.7266 43.7969 10.9375 43.7734 11.168L43.4688 11.3438C43.4688 10.9609 43.5059 10.6016 43.5801 10.2656C43.6582 9.92969 43.7773 9.63281 43.9375 9.375C44.0977 9.11328 44.3008 8.91016 44.5469 8.76562C44.7969 8.61719 45.0938 8.54297 45.4375 8.54297C45.5156 8.54297 45.6055 8.55273 45.707 8.57227C45.8086 8.58789 45.8789 8.60547 45.918 8.625ZM48.0977 8.66016V15H47.0078V8.66016H48.0977ZM46.9258 6.97852C46.9258 6.80273 46.9785 6.6543 47.084 6.5332C47.1934 6.41211 47.3535 6.35156 47.5645 6.35156C47.7715 6.35156 47.9297 6.41211 48.0391 6.5332C48.1523 6.6543 48.209 6.80273 48.209 6.97852C48.209 7.14648 48.1523 7.29102 48.0391 7.41211C47.9297 7.5293 47.7715 7.58789 47.5645 7.58789C47.3535 7.58789 47.1934 7.5293 47.084 7.41211C46.9785 7.29102 46.9258 7.14648 46.9258 6.97852ZM52.375 14.2266C52.6328 14.2266 52.8711 14.1738 53.0898 14.0684C53.3086 13.9629 53.4883 13.8184 53.6289 13.6348C53.7695 13.4473 53.8496 13.2344 53.8691 12.9961H54.9004C54.8809 13.3711 54.7539 13.7207 54.5195 14.0449C54.2891 14.3652 53.9863 14.625 53.6113 14.8242C53.2363 15.0195 52.8242 15.1172 52.375 15.1172C51.8984 15.1172 51.4824 15.0332 51.127 14.8652C50.7754 14.6973 50.4824 14.4668 50.248 14.1738C50.0176 13.8809 49.8438 13.5449 49.7266 13.166C49.6133 12.7832 49.5566 12.3789 49.5566 11.9531V11.707C49.5566 11.2812 49.6133 10.8789 49.7266 10.5C49.8438 10.1172 50.0176 9.7793 50.248 9.48633C50.4824 9.19336 50.7754 8.96289 51.127 8.79492C51.4824 8.62695 51.8984 8.54297 52.375 8.54297C52.8711 8.54297 53.3047 8.64453 53.6758 8.84766C54.0469 9.04688 54.3379 9.32031 54.5488 9.66797C54.7637 10.0117 54.8809 10.4023 54.9004 10.8398H53.8691C53.8496 10.5781 53.7754 10.3418 53.6465 10.1309C53.5215 9.91992 53.3496 9.75195 53.1309 9.62695C52.916 9.49805 52.6641 9.43359 52.375 9.43359C52.043 9.43359 51.7637 9.5 51.5371 9.63281C51.3145 9.76172 51.1367 9.9375 51.0039 10.1602C50.875 10.3789 50.7812 10.623 50.7227 10.8926C50.668 11.1582 50.6406 11.4297 50.6406 11.707V11.9531C50.6406 12.2305 50.668 12.5039 50.7227 12.7734C50.7773 13.043 50.8691 13.2871 50.998 13.5059C51.1309 13.7246 51.3086 13.9004 51.5312 14.0332C51.7578 14.1621 52.0391 14.2266 52.375 14.2266Z" fill="white"/>
</svg>
