<svg width="56" height="22" viewBox="0 0 56 22" fill="none" xmlns="http://www.w3.org/2000/svg">
<rect width="56" height="22" rx="11" fill="#FF48CC"/>
<g clip-path="url(#clip0_21_428)">
<path fill-rule="evenodd" clip-rule="evenodd" d="M10.0064 13.9293L11.6103 13.4642L12.9957 15.9972C12.9975 16.0005 13.0022 16.0005 13.004 15.9972L14.3893 13.4642L15.9933 13.9293C15.9969 13.9303 16.0002 13.927 15.9992 13.9234L15.534 12.3512L17.9972 11.004C18.0005 11.0022 18.0005 10.9975 17.9972 10.9957L15.5137 9.6374L15.9992 7.99658C16.0002 7.99299 15.9969 7.98965 15.9933 7.99068L14.3517 8.46668L13.004 6.00246C13.0022 5.99918 12.9975 5.99918 12.9957 6.00246L11.6479 8.46668L10.0064 7.99068C10.0028 7.98965 9.99943 7.99299 10.0005 7.99658L10.486 9.6374L8.00246 10.9957C7.99918 10.9975 7.99918 11.0022 8.00246 11.004L10.4656 12.3512L10.0005 13.9234C9.99943 13.927 10.0028 13.9303 10.0064 13.9293ZM11.251 11.0171L12.3873 11.6386L13.0088 12.7749C13.0106 12.7782 13.0153 12.7782 13.0171 12.7749L13.6386 11.6386L14.7749 11.0171C14.7781 11.0153 14.7781 11.0106 14.7749 11.0088L13.6386 10.3873L13.0171 9.25104C13.0153 9.24773 13.0106 9.24773 13.0088 9.25104L12.3873 10.3873L11.251 11.0088C11.2477 11.0106 11.2477 11.0153 11.251 11.0171Z" fill="white"/>
</g>
<path d="M24.1211 6.46875V15H22.9902V6.46875H24.1211ZM27.6953 10.3066V11.2324H23.875V10.3066H27.6953ZM28.2754 6.46875V7.39453H23.875V6.46875H28.2754ZM32.998 13.916V10.6523C32.998 10.4023 32.9473 10.1855 32.8457 10.002C32.748 9.81445 32.5996 9.66992 32.4004 9.56836C32.2012 9.4668 31.9551 9.41602 31.6621 9.41602C31.3887 9.41602 31.1484 9.46289 30.9414 9.55664C30.7383 9.65039 30.5781 9.77344 30.4609 9.92578C30.3477 10.0781 30.291 10.2422 30.291 10.418H29.207C29.207 10.1914 29.2656 9.9668 29.3828 9.74414C29.5 9.52148 29.668 9.32031 29.8867 9.14062C30.1094 8.95703 30.375 8.8125 30.6836 8.70703C30.9961 8.59766 31.3438 8.54297 31.7266 8.54297C32.1875 8.54297 32.5938 8.62109 32.9453 8.77734C33.3008 8.93359 33.5781 9.16992 33.7773 9.48633C33.9805 9.79883 34.082 10.1914 34.082 10.6641V13.6172C34.082 13.8281 34.0996 14.0527 34.1348 14.291C34.1738 14.5293 34.2305 14.7344 34.3047 14.9062V15H33.1738C33.1191 14.875 33.0762 14.709 33.0449 14.502C33.0137 14.291 32.998 14.0957 32.998 13.916ZM33.1855 11.1562L33.1973 11.918H32.1016C31.793 11.918 31.5176 11.9434 31.2754 11.9941C31.0332 12.041 30.8301 12.1133 30.666 12.2109C30.502 12.3086 30.377 12.4316 30.291 12.5801C30.2051 12.7246 30.1621 12.8945 30.1621 13.0898C30.1621 13.2891 30.207 13.4707 30.2969 13.6348C30.3867 13.7988 30.5215 13.9297 30.7012 14.0273C30.8848 14.1211 31.1094 14.168 31.375 14.168C31.707 14.168 32 14.0977 32.2539 13.957C32.5078 13.8164 32.709 13.6445 32.8574 13.4414C33.0098 13.2383 33.0918 13.041 33.1035 12.8496L33.5664 13.3711C33.5391 13.5352 33.4648 13.7168 33.3438 13.916C33.2227 14.1152 33.0605 14.3066 32.8574 14.4902C32.6582 14.6699 32.4199 14.8203 32.1426 14.9414C31.8691 15.0586 31.5605 15.1172 31.2168 15.1172C30.7871 15.1172 30.4102 15.0332 30.0859 14.8652C29.7656 14.6973 29.5156 14.4727 29.3359 14.1914C29.1602 13.9062 29.0723 13.5879 29.0723 13.2363C29.0723 12.8965 29.1387 12.5977 29.2715 12.3398C29.4043 12.0781 29.5957 11.8613 29.8457 11.6895C30.0957 11.5137 30.3965 11.3809 30.748 11.291C31.0996 11.2012 31.4922 11.1562 31.9258 11.1562H33.1855ZM36.9648 8.66016V15H35.875V8.66016H36.9648ZM35.793 6.97852C35.793 6.80273 35.8457 6.6543 35.9512 6.5332C36.0605 6.41211 36.2207 6.35156 36.4316 6.35156C36.6387 6.35156 36.7969 6.41211 36.9062 6.5332C37.0195 6.6543 37.0762 6.80273 37.0762 6.97852C37.0762 7.14648 37.0195 7.29102 36.9062 7.41211C36.7969 7.5293 36.6387 7.58789 36.4316 7.58789C36.2207 7.58789 36.0605 7.5293 35.9512 7.41211C35.8457 7.29102 35.793 7.14648 35.793 6.97852ZM39.7891 9.65625V15H38.7051V8.66016H39.7598L39.7891 9.65625ZM41.7695 8.625L41.7637 9.63281C41.6738 9.61328 41.5879 9.60156 41.5059 9.59766C41.4277 9.58984 41.3379 9.58594 41.2363 9.58594C40.9863 9.58594 40.7656 9.625 40.5742 9.70312C40.3828 9.78125 40.2207 9.89062 40.0879 10.0312C39.9551 10.1719 39.8496 10.3398 39.7715 10.5352C39.6973 10.7266 39.6484 10.9375 39.625 11.168L39.3203 11.3438C39.3203 10.9609 39.3574 10.6016 39.4316 10.2656C39.5098 9.92969 39.6289 9.63281 39.7891 9.375C39.9492 9.11328 40.1523 8.91016 40.3984 8.76562C40.6484 8.61719 40.9453 8.54297 41.2891 8.54297C41.3672 8.54297 41.457 8.55273 41.5586 8.57227C41.6602 8.58789 41.7305 8.60547 41.7695 8.625ZM44.6582 14.3438L46.4219 8.66016H47.582L45.0391 15.9785C44.9805 16.1348 44.9023 16.3027 44.8047 16.4824C44.7109 16.666 44.5898 16.8398 44.4414 17.0039C44.293 17.168 44.1133 17.3008 43.9023 17.4023C43.6953 17.5078 43.4473 17.5605 43.1582 17.5605C43.0723 17.5605 42.9629 17.5488 42.8301 17.5254C42.6973 17.502 42.6035 17.4824 42.5488 17.4668L42.543 16.5879C42.5742 16.5918 42.623 16.5957 42.6895 16.5996C42.7598 16.6074 42.8086 16.6113 42.8359 16.6113C43.082 16.6113 43.291 16.5781 43.4629 16.5117C43.6348 16.4492 43.7793 16.3418 43.8965 16.1895C44.0176 16.041 44.1211 15.8359 44.207 15.5742L44.6582 14.3438ZM43.3633 8.66016L45.0098 13.582L45.291 14.7246L44.5117 15.123L42.1797 8.66016H43.3633Z" fill="white"/>
<defs>
<clipPath id="clip0_21_428">
<rect width="10" height="10" fill="white" transform="translate(8 6)"/>
</clipPath>
</defs>
</svg>
