<svg width="44" height="44" viewBox="0 0 44 44" fill="none" xmlns="http://www.w3.org/2000/svg">
<g clip-path="url(#clip0_64_2493)" filter="url(#filter0_d_64_2493)">
<g filter="url(#filter1_d_64_2493)">
<path d="M33.6666 23.3333C36.15 20.9 38.6666 17.9833 38.6666 14.1667C38.6666 11.7355 37.7009 9.40394 35.9818 7.68485C34.2627 5.96577 31.9311 5 29.5 5C26.5666 5 24.5 5.83333 22 8.33333C19.5 5.83333 17.4333 5 14.5 5C12.0688 5 9.73725 5.96577 8.01817 7.68485C6.29908 9.40394 5.33331 11.7355 5.33331 14.1667C5.33331 18 7.83331 20.9167 10.3333 23.3333L22 35L33.6666 23.3333Z" stroke="black" stroke-width="2" stroke-linecap="round" stroke-linejoin="round" shape-rendering="crispEdges"/>
</g>
</g>
<defs>
<filter id="filter0_d_64_2493" x="-2" y="0" width="48" height="48" filterUnits="userSpaceOnUse" color-interpolation-filters="sRGB">
<feFlood flood-opacity="0" result="BackgroundImageFix"/>
<feColorMatrix in="SourceAlpha" type="matrix" values="0 0 0 0 0 0 0 0 0 0 0 0 0 0 0 0 0 0 127 0" result="hardAlpha"/>
<feOffset dy="4"/>
<feGaussianBlur stdDeviation="2"/>
<feComposite in2="hardAlpha" operator="out"/>
<feColorMatrix type="matrix" values="0 0 0 0 0 0 0 0 0 0 0 0 0 0 0 0 0 0 0.25 0"/>
<feBlend mode="normal" in2="BackgroundImageFix" result="effect1_dropShadow_64_2493"/>
<feBlend mode="normal" in="SourceGraphic" in2="effect1_dropShadow_64_2493" result="shape"/>
</filter>
<filter id="filter1_d_64_2493" x="0.333313" y="4" width="43.3333" height="40" filterUnits="userSpaceOnUse" color-interpolation-filters="sRGB">
<feFlood flood-opacity="0" result="BackgroundImageFix"/>
<feColorMatrix in="SourceAlpha" type="matrix" values="0 0 0 0 0 0 0 0 0 0 0 0 0 0 0 0 0 0 127 0" result="hardAlpha"/>
<feOffset dy="4"/>
<feGaussianBlur stdDeviation="2"/>
<feComposite in2="hardAlpha" operator="out"/>
<feColorMatrix type="matrix" values="0 0 0 0 0 0 0 0 0 0 0 0 0 0 0 0 0 0 0.25 0"/>
<feBlend mode="normal" in2="BackgroundImageFix" result="effect1_dropShadow_64_2493"/>
<feBlend mode="normal" in="SourceGraphic" in2="effect1_dropShadow_64_2493" result="shape"/>
</filter>
<clipPath id="clip0_64_2493">
<rect width="40" height="40" fill="white" transform="translate(2)"/>
</clipPath>
</defs>
</svg>
