<svg width="56" height="74" viewBox="0 0 56 74" fill="none" xmlns="http://www.w3.org/2000/svg">
<mask id="path-1-outside-1_33_6229" maskUnits="userSpaceOnUse" x="11.8333" y="11.8335" width="32" height="32" fill="black">
<rect fill="white" x="11.8333" y="11.8335" width="32" height="32"/>
<path fill-rule="evenodd" clip-rule="evenodd" d="M43.1666 28.0002C43.1666 36.3765 36.3762 43.1668 27.9999 43.1668C19.6236 43.1668 12.8333 36.3765 12.8333 28.0002C12.8333 19.6238 19.6236 12.8335 27.9999 12.8335C36.3762 12.8335 43.1666 19.6238 43.1666 28.0002ZM42 28.0002C42 35.7322 35.732 42.0002 28 42.0002C20.268 42.0002 14 35.7322 14 28.0002L23.3333 28.0002C23.3333 30.5775 25.4226 32.6668 27.9999 32.6668C30.5772 32.6668 32.6666 30.5775 32.6666 28.0002L42 28.0002ZM32.5592 27.0002H41.9648C41.4521 19.7349 35.3958 14.0002 28 14.0002C20.6042 14.0002 14.5479 19.7349 14.0352 27.0002H23.4406C23.8984 24.9034 25.7658 23.3335 27.9999 23.3335C30.234 23.3335 32.1014 24.9034 32.5592 27.0002ZM28 31.5002C29.933 31.5002 31.5 29.9332 31.5 28.0002C31.5 26.0672 29.933 24.5002 28 24.5002C26.067 24.5002 24.5 26.0672 24.5 28.0002C24.5 29.9332 26.067 31.5002 28 31.5002Z"/>
</mask>
<path fill-rule="evenodd" clip-rule="evenodd" d="M43.1666 28.0002C43.1666 36.3765 36.3762 43.1668 27.9999 43.1668C19.6236 43.1668 12.8333 36.3765 12.8333 28.0002C12.8333 19.6238 19.6236 12.8335 27.9999 12.8335C36.3762 12.8335 43.1666 19.6238 43.1666 28.0002ZM42 28.0002C42 35.7322 35.732 42.0002 28 42.0002C20.268 42.0002 14 35.7322 14 28.0002L23.3333 28.0002C23.3333 30.5775 25.4226 32.6668 27.9999 32.6668C30.5772 32.6668 32.6666 30.5775 32.6666 28.0002L42 28.0002ZM32.5592 27.0002H41.9648C41.4521 19.7349 35.3958 14.0002 28 14.0002C20.6042 14.0002 14.5479 19.7349 14.0352 27.0002H23.4406C23.8984 24.9034 25.7658 23.3335 27.9999 23.3335C30.234 23.3335 32.1014 24.9034 32.5592 27.0002ZM28 31.5002C29.933 31.5002 31.5 29.9332 31.5 28.0002C31.5 26.0672 29.933 24.5002 28 24.5002C26.067 24.5002 24.5 26.0672 24.5 28.0002C24.5 29.9332 26.067 31.5002 28 31.5002Z" fill="#F10A34"/>
<path d="M42 28.0002H42.5V27.5002H42V28.0002ZM14 28.0002L14 27.5002H13.5V28.0002H14ZM23.3333 28.0002H23.8333V27.5002H23.3333V28.0002ZM32.6666 28.0002V27.5002H32.1666V28.0002H32.6666ZM41.9648 27.0002V27.5002H42.5014L42.4636 26.965L41.9648 27.0002ZM32.5592 27.0002L32.0707 27.1068L32.1566 27.5002H32.5592V27.0002ZM14.0352 27.0002L13.5364 26.965L13.4986 27.5002H14.0352V27.0002ZM23.4406 27.0002V27.5002H23.8433L23.9291 27.1068L23.4406 27.0002ZM27.9999 43.6668C36.6524 43.6668 43.6666 36.6526 43.6666 28.0002H42.6666C42.6666 36.1003 36.1001 42.6668 27.9999 42.6668V43.6668ZM12.3333 28.0002C12.3333 36.6526 19.3475 43.6668 27.9999 43.6668V42.6668C19.8997 42.6668 13.3333 36.1003 13.3333 28.0002H12.3333ZM27.9999 12.3335C19.3475 12.3335 12.3333 19.3477 12.3333 28.0002H13.3333C13.3333 19.9 19.8997 13.3335 27.9999 13.3335V12.3335ZM43.6666 28.0002C43.6666 19.3477 36.6524 12.3335 27.9999 12.3335V13.3335C36.1001 13.3335 42.6666 19.9 42.6666 28.0002H43.6666ZM28 42.5002C36.0081 42.5002 42.5 36.0083 42.5 28.0002H41.5C41.5 35.456 35.4558 41.5002 28 41.5002V42.5002ZM13.5 28.0002C13.5 36.0083 19.9919 42.5002 28 42.5002V41.5002C20.5442 41.5002 14.5 35.456 14.5 28.0002H13.5ZM23.3333 27.5002L14 27.5002L14 28.5002L23.3333 28.5002V27.5002ZM27.9999 32.1668C25.6987 32.1668 23.8333 30.3013 23.8333 28.0002H22.8333C22.8333 30.8536 25.1464 33.1668 27.9999 33.1668V32.1668ZM32.1666 28.0002C32.1666 30.3013 30.3011 32.1668 27.9999 32.1668V33.1668C30.8534 33.1668 33.1666 30.8536 33.1666 28.0002H32.1666ZM42 27.5002L32.6666 27.5002V28.5002L42 28.5002V27.5002ZM41.9648 26.5002H32.5592V27.5002H41.9648V26.5002ZM28 14.5002C35.1314 14.5002 40.9717 20.0301 41.4661 27.0354L42.4636 26.965C41.9325 19.4397 35.6601 13.5002 28 13.5002V14.5002ZM14.5339 27.0354C15.0283 20.0301 20.8686 14.5002 28 14.5002V13.5002C20.3399 13.5002 14.0675 19.4397 13.5364 26.965L14.5339 27.0354ZM23.4406 26.5002H14.0352V27.5002H23.4406V26.5002ZM27.9999 22.8335C25.5259 22.8335 23.459 24.5719 22.9522 26.8935L23.9291 27.1068C24.3378 25.2348 26.0058 23.8335 27.9999 23.8335V22.8335ZM33.0477 26.8935C32.5408 24.5719 30.474 22.8335 27.9999 22.8335V23.8335C29.994 23.8335 31.662 25.2348 32.0707 27.1068L33.0477 26.8935ZM31 28.0002C31 29.657 29.6569 31.0002 28 31.0002V32.0002C30.2091 32.0002 32 30.2093 32 28.0002H31ZM28 25.0002C29.6569 25.0002 31 26.3433 31 28.0002H32C32 25.791 30.2091 24.0002 28 24.0002V25.0002ZM25 28.0002C25 26.3433 26.3431 25.0002 28 25.0002V24.0002C25.7909 24.0002 24 25.791 24 28.0002H25ZM28 31.0002C26.3431 31.0002 25 29.657 25 28.0002H24C24 30.2093 25.7909 32.0002 28 32.0002V31.0002Z" fill="#F10A34" mask="url(#path-1-outside-1_33_6229)"/>
<path d="M5.61328 62.4688V71H3.70312V62.4688H5.61328ZM8.9707 66.0664V67.543H5.08008V66.0664H8.9707ZM9.3457 62.4688V63.9512H5.08008V62.4688H9.3457ZM13.3418 69.4883V66.7695C13.3418 66.5781 13.3125 66.4141 13.2539 66.2773C13.1953 66.1406 13.1035 66.0332 12.9785 65.9551C12.8535 65.877 12.6914 65.8379 12.4922 65.8379C12.3242 65.8379 12.1777 65.8672 12.0527 65.9258C11.9316 65.9844 11.8379 66.0684 11.7715 66.1777C11.709 66.2871 11.6777 66.4219 11.6777 66.582H9.84961C9.84961 66.2969 9.91406 66.0312 10.043 65.7852C10.1719 65.5391 10.3555 65.3223 10.5938 65.1348C10.8359 64.9473 11.125 64.8027 11.4609 64.7012C11.7969 64.5957 12.1738 64.543 12.5918 64.543C13.0879 64.543 13.5293 64.627 13.916 64.7949C14.3066 64.959 14.6152 65.207 14.8418 65.5391C15.0684 65.8672 15.1816 66.2812 15.1816 66.7812V69.4355C15.1816 69.8184 15.2031 70.1191 15.2461 70.3379C15.293 70.5527 15.3594 70.7402 15.4453 70.9004V71H13.5996C13.5137 70.8164 13.4492 70.5898 13.4062 70.3203C13.3633 70.0469 13.3418 69.7695 13.3418 69.4883ZM13.5703 67.1328L13.582 68.1406H12.6738C12.4707 68.1406 12.2949 68.166 12.1465 68.2168C12.002 68.2676 11.8848 68.3379 11.7949 68.4277C11.7051 68.5137 11.6387 68.6152 11.5957 68.7324C11.5566 68.8457 11.5371 68.9707 11.5371 69.1074C11.5371 69.2363 11.5684 69.3535 11.6309 69.459C11.6934 69.5605 11.7793 69.6406 11.8887 69.6992C11.998 69.7578 12.125 69.7871 12.2695 69.7871C12.5078 69.7871 12.7109 69.7402 12.8789 69.6465C13.0508 69.5527 13.1836 69.4395 13.2773 69.3066C13.3711 69.1699 13.418 69.043 13.418 68.9258L13.8574 69.6875C13.7871 69.8438 13.7012 70.0059 13.5996 70.1738C13.498 70.3379 13.3691 70.4922 13.2129 70.6367C13.0566 70.7773 12.8672 70.8926 12.6445 70.9824C12.4258 71.0723 12.1621 71.1172 11.8535 71.1172C11.4551 71.1172 11.0938 71.0371 10.7695 70.877C10.4453 70.7129 10.1855 70.4883 9.99023 70.2031C9.79883 69.918 9.70312 69.5898 9.70312 69.2188C9.70312 68.8867 9.76367 68.5918 9.88477 68.334C10.0059 68.0762 10.1875 67.8574 10.4297 67.6777C10.6758 67.498 10.9844 67.3633 11.3555 67.2734C11.7266 67.1797 12.1602 67.1328 12.6562 67.1328H13.5703ZM18.5098 69.7051L19.834 64.6602H21.7559L19.6523 71H18.498L18.5098 69.7051ZM17.6543 64.6602L18.9727 69.7109L18.9844 71H17.8301L15.7266 64.6602H17.6543ZM22.0723 67.8945V67.7715C22.0723 67.3066 22.1387 66.8789 22.2715 66.4883C22.4043 66.0938 22.5996 65.752 22.8574 65.4629C23.1152 65.1738 23.4316 64.9492 23.8066 64.7891C24.1816 64.625 24.6113 64.543 25.0957 64.543C25.5879 64.543 26.0215 64.625 26.3965 64.7891C26.7754 64.9492 27.0938 65.1738 27.3516 65.4629C27.6094 65.752 27.8047 66.0938 27.9375 66.4883C28.0703 66.8789 28.1367 67.3066 28.1367 67.7715V67.8945C28.1367 68.3555 28.0703 68.7832 27.9375 69.1777C27.8047 69.5684 27.6094 69.9102 27.3516 70.2031C27.0938 70.4922 26.7773 70.7168 26.4023 70.877C26.0273 71.0371 25.5957 71.1172 25.1074 71.1172C24.623 71.1172 24.1914 71.0371 23.8125 70.877C23.4336 70.7168 23.1152 70.4922 22.8574 70.2031C22.5996 69.9102 22.4043 69.5684 22.2715 69.1777C22.1387 68.7832 22.0723 68.3555 22.0723 67.8945ZM23.9062 67.7715V67.8945C23.9062 68.1445 23.9258 68.3789 23.9648 68.5977C24.0078 68.8164 24.0762 69.0078 24.1699 69.1719C24.2637 69.3359 24.3867 69.4648 24.5391 69.5586C24.6953 69.6484 24.8848 69.6934 25.1074 69.6934C25.3301 69.6934 25.5176 69.6484 25.6699 69.5586C25.8223 69.4648 25.9453 69.3359 26.0391 69.1719C26.1328 69.0078 26.1992 68.8164 26.2383 68.5977C26.2812 68.3789 26.3027 68.1445 26.3027 67.8945V67.7715C26.3027 67.5254 26.2812 67.2949 26.2383 67.0801C26.1992 66.8613 26.1328 66.668 26.0391 66.5C25.9453 66.332 25.8203 66.2012 25.6641 66.1074C25.5117 66.0137 25.3223 65.9668 25.0957 65.9668C24.877 65.9668 24.6914 66.0137 24.5391 66.1074C24.3867 66.2012 24.2637 66.332 24.1699 66.5C24.0762 66.668 24.0078 66.8613 23.9648 67.0801C23.9258 67.2949 23.9062 67.5254 23.9062 67.7715ZM30.9316 66.1367V71H29.1035V64.6602H30.8203L30.9316 66.1367ZM32.8242 64.6133L32.7949 66.3184C32.7168 66.3066 32.6152 66.2969 32.4902 66.2891C32.3652 66.2773 32.2578 66.2715 32.168 66.2715C31.9336 66.2715 31.7305 66.3008 31.5586 66.3594C31.3906 66.4141 31.25 66.4961 31.1367 66.6055C31.0273 66.7148 30.9453 66.8516 30.8906 67.0156C30.8359 67.1758 30.8086 67.3613 30.8086 67.5723L30.4629 67.4023C30.4629 66.9844 30.5039 66.6016 30.5859 66.2539C30.668 65.9062 30.7871 65.6055 30.9434 65.3516C31.0996 65.0938 31.291 64.8945 31.5176 64.7539C31.7441 64.6133 32.002 64.543 32.291 64.543C32.3848 64.543 32.4805 64.5488 32.5781 64.5605C32.6758 64.5723 32.7578 64.5898 32.8242 64.6133ZM35.502 64.6602V71H33.668V64.6602H35.502ZM33.5566 63.0195C33.5566 62.7539 33.6504 62.5371 33.8379 62.3691C34.0254 62.1973 34.2715 62.1113 34.5762 62.1113C34.8809 62.1113 35.127 62.1973 35.3145 62.3691C35.5059 62.5371 35.6016 62.7539 35.6016 63.0195C35.6016 63.2812 35.5059 63.498 35.3145 63.6699C35.127 63.8379 34.8809 63.9219 34.5762 63.9219C34.2715 63.9219 34.0254 63.8379 33.8379 63.6699C33.6504 63.498 33.5566 63.2812 33.5566 63.0195ZM40.043 64.6602V65.9434H36.2812V64.6602H40.043ZM37.1426 63.0898H38.9766V69.0137C38.9766 69.1895 38.998 69.3242 39.041 69.418C39.084 69.5117 39.1543 69.5781 39.252 69.6172C39.3496 69.6523 39.4746 69.6699 39.627 69.6699C39.7363 69.6699 39.8301 69.666 39.9082 69.6582C39.9863 69.6504 40.0586 69.6406 40.125 69.6289V70.9531C39.9688 71.0039 39.8027 71.043 39.627 71.0703C39.4512 71.1016 39.2598 71.1172 39.0527 71.1172C38.6582 71.1172 38.3164 71.0527 38.0273 70.9238C37.7422 70.7949 37.5234 70.5918 37.3711 70.3145C37.2188 70.0332 37.1426 69.668 37.1426 69.2188V63.0898ZM40.4941 67.8945V67.7715C40.4941 67.3066 40.5605 66.8789 40.6934 66.4883C40.8262 66.0938 41.0215 65.752 41.2793 65.4629C41.5371 65.1738 41.8535 64.9492 42.2285 64.7891C42.6035 64.625 43.0332 64.543 43.5176 64.543C44.0098 64.543 44.4434 64.625 44.8184 64.7891C45.1973 64.9492 45.5156 65.1738 45.7734 65.4629C46.0312 65.752 46.2266 66.0938 46.3594 66.4883C46.4922 66.8789 46.5586 67.3066 46.5586 67.7715V67.8945C46.5586 68.3555 46.4922 68.7832 46.3594 69.1777C46.2266 69.5684 46.0312 69.9102 45.7734 70.2031C45.5156 70.4922 45.1992 70.7168 44.8242 70.877C44.4492 71.0371 44.0176 71.1172 43.5293 71.1172C43.0449 71.1172 42.6133 71.0371 42.2344 70.877C41.8555 70.7168 41.5371 70.4922 41.2793 70.2031C41.0215 69.9102 40.8262 69.5684 40.6934 69.1777C40.5605 68.7832 40.4941 68.3555 40.4941 67.8945ZM42.3281 67.7715V67.8945C42.3281 68.1445 42.3477 68.3789 42.3867 68.5977C42.4297 68.8164 42.498 69.0078 42.5918 69.1719C42.6855 69.3359 42.8086 69.4648 42.9609 69.5586C43.1172 69.6484 43.3066 69.6934 43.5293 69.6934C43.752 69.6934 43.9395 69.6484 44.0918 69.5586C44.2441 69.4648 44.3672 69.3359 44.4609 69.1719C44.5547 69.0078 44.6211 68.8164 44.6602 68.5977C44.7031 68.3789 44.7246 68.1445 44.7246 67.8945V67.7715C44.7246 67.5254 44.7031 67.2949 44.6602 67.0801C44.6211 66.8613 44.5547 66.668 44.4609 66.5C44.3672 66.332 44.2422 66.2012 44.0859 66.1074C43.9336 66.0137 43.7441 65.9668 43.5176 65.9668C43.2988 65.9668 43.1133 66.0137 42.9609 66.1074C42.8086 66.2012 42.6855 66.332 42.5918 66.5C42.498 66.668 42.4297 66.8613 42.3867 67.0801C42.3477 67.2949 42.3281 67.5254 42.3281 67.7715ZM50.8945 69.2363C50.8945 69.1191 50.8574 69.0156 50.7832 68.9258C50.7129 68.8359 50.584 68.7539 50.3965 68.6797C50.2129 68.6055 49.9531 68.5312 49.6172 68.457C49.3008 68.3906 49.0059 68.3047 48.7324 68.1992C48.459 68.0898 48.2207 67.959 48.0176 67.8066C47.8145 67.6504 47.6562 67.4668 47.543 67.2559C47.4297 67.041 47.373 66.7969 47.373 66.5234C47.373 66.2578 47.4297 66.0059 47.543 65.7676C47.6602 65.5293 47.8281 65.3184 48.0469 65.1348C48.2695 64.9512 48.5391 64.8066 48.8555 64.7012C49.1758 64.5957 49.5391 64.543 49.9453 64.543C50.5039 64.543 50.9863 64.6309 51.3926 64.8066C51.7988 64.9785 52.1113 65.2207 52.3301 65.5332C52.5488 65.8418 52.6582 66.1953 52.6582 66.5938H50.8301C50.8301 66.4297 50.7988 66.2871 50.7363 66.166C50.6738 66.0449 50.5781 65.9512 50.4492 65.8848C50.3203 65.8145 50.1504 65.7793 49.9395 65.7793C49.7754 65.7793 49.6309 65.8086 49.5059 65.8672C49.3848 65.9219 49.2891 65.998 49.2188 66.0957C49.1523 66.1934 49.1191 66.3066 49.1191 66.4355C49.1191 66.5254 49.1387 66.6074 49.1777 66.6816C49.2207 66.752 49.2852 66.8184 49.3711 66.8809C49.4609 66.9395 49.5762 66.9922 49.7168 67.0391C49.8613 67.0859 50.0371 67.1309 50.2441 67.1738C50.6855 67.2559 51.0879 67.3711 51.4512 67.5195C51.8184 67.668 52.1113 67.873 52.3301 68.1348C52.5527 68.3965 52.6641 68.7422 52.6641 69.1719C52.6641 69.4531 52.5996 69.7109 52.4707 69.9453C52.3457 70.1797 52.1641 70.3848 51.9258 70.5605C51.6875 70.7363 51.4023 70.873 51.0703 70.9707C50.7383 71.0684 50.3633 71.1172 49.9453 71.1172C49.3477 71.1172 48.8418 71.0098 48.4277 70.7949C48.0137 70.5801 47.7012 70.3105 47.4902 69.9863C47.2832 69.6582 47.1797 69.3223 47.1797 68.9785H48.8965C48.9043 69.1895 48.957 69.3613 49.0547 69.4941C49.1562 69.627 49.2871 69.7246 49.4473 69.7871C49.6074 69.8457 49.7871 69.875 49.9863 69.875C50.1855 69.875 50.3516 69.8477 50.4844 69.793C50.6172 69.7383 50.7188 69.6641 50.7891 69.5703C50.8594 69.4727 50.8945 69.3613 50.8945 69.2363Z" fill="#F10A34"/>
</svg>
