<svg width="56" height="74" viewBox="0 0 56 74" fill="none" xmlns="http://www.w3.org/2000/svg">
<mask id="path-1-outside-1_64_7937" maskUnits="userSpaceOnUse" x="11.8333" y="11.8335" width="32" height="32" fill="black">
<rect fill="white" x="11.8333" y="11.8335" width="32" height="32"/>
<path fill-rule="evenodd" clip-rule="evenodd" d="M43.1666 28.0002C43.1666 36.3765 36.3762 43.1668 27.9999 43.1668C19.6236 43.1668 12.8333 36.3765 12.8333 28.0002C12.8333 19.6238 19.6236 12.8335 27.9999 12.8335C36.3762 12.8335 43.1666 19.6238 43.1666 28.0002ZM42 28.0002C42 35.7322 35.732 42.0002 28 42.0002C20.268 42.0002 14 35.7322 14 28.0002L23.3333 28.0002C23.3333 30.5775 25.4226 32.6668 27.9999 32.6668C30.5772 32.6668 32.6666 30.5775 32.6666 28.0002L42 28.0002ZM32.5592 27.0002H41.9648C41.4521 19.7349 35.3958 14.0002 28 14.0002C20.6042 14.0002 14.5479 19.7349 14.0352 27.0002H23.4406C23.8984 24.9034 25.7658 23.3335 27.9999 23.3335C30.234 23.3335 32.1014 24.9034 32.5592 27.0002ZM28 31.5002C29.933 31.5002 31.5 29.9332 31.5 28.0002C31.5 26.0672 29.933 24.5002 28 24.5002C26.067 24.5002 24.5 26.0672 24.5 28.0002C24.5 29.9332 26.067 31.5002 28 31.5002Z"/>
</mask>
<path fill-rule="evenodd" clip-rule="evenodd" d="M43.1666 28.0002C43.1666 36.3765 36.3762 43.1668 27.9999 43.1668C19.6236 43.1668 12.8333 36.3765 12.8333 28.0002C12.8333 19.6238 19.6236 12.8335 27.9999 12.8335C36.3762 12.8335 43.1666 19.6238 43.1666 28.0002ZM42 28.0002C42 35.7322 35.732 42.0002 28 42.0002C20.268 42.0002 14 35.7322 14 28.0002L23.3333 28.0002C23.3333 30.5775 25.4226 32.6668 27.9999 32.6668C30.5772 32.6668 32.6666 30.5775 32.6666 28.0002L42 28.0002ZM32.5592 27.0002H41.9648C41.4521 19.7349 35.3958 14.0002 28 14.0002C20.6042 14.0002 14.5479 19.7349 14.0352 27.0002H23.4406C23.8984 24.9034 25.7658 23.3335 27.9999 23.3335C30.234 23.3335 32.1014 24.9034 32.5592 27.0002ZM28 31.5002C29.933 31.5002 31.5 29.9332 31.5 28.0002C31.5 26.0672 29.933 24.5002 28 24.5002C26.067 24.5002 24.5 26.0672 24.5 28.0002C24.5 29.9332 26.067 31.5002 28 31.5002Z" fill="#555252"/>
<path d="M42 28.0002H42.5V27.5002H42V28.0002ZM14 28.0002L14 27.5002H13.5V28.0002H14ZM23.3333 28.0002H23.8333V27.5002H23.3333V28.0002ZM32.6666 28.0002V27.5002H32.1666V28.0002H32.6666ZM41.9648 27.0002V27.5002H42.5014L42.4636 26.965L41.9648 27.0002ZM32.5592 27.0002L32.0707 27.1068L32.1566 27.5002H32.5592V27.0002ZM14.0352 27.0002L13.5364 26.965L13.4986 27.5002H14.0352V27.0002ZM23.4406 27.0002V27.5002H23.8433L23.9291 27.1068L23.4406 27.0002ZM27.9999 43.6668C36.6524 43.6668 43.6666 36.6526 43.6666 28.0002H42.6666C42.6666 36.1003 36.1001 42.6668 27.9999 42.6668V43.6668ZM12.3333 28.0002C12.3333 36.6526 19.3475 43.6668 27.9999 43.6668V42.6668C19.8997 42.6668 13.3333 36.1003 13.3333 28.0002H12.3333ZM27.9999 12.3335C19.3475 12.3335 12.3333 19.3477 12.3333 28.0002H13.3333C13.3333 19.9 19.8997 13.3335 27.9999 13.3335V12.3335ZM43.6666 28.0002C43.6666 19.3477 36.6524 12.3335 27.9999 12.3335V13.3335C36.1001 13.3335 42.6666 19.9 42.6666 28.0002H43.6666ZM28 42.5002C36.0081 42.5002 42.5 36.0083 42.5 28.0002H41.5C41.5 35.456 35.4558 41.5002 28 41.5002V42.5002ZM13.5 28.0002C13.5 36.0083 19.9919 42.5002 28 42.5002V41.5002C20.5442 41.5002 14.5 35.456 14.5 28.0002H13.5ZM23.3333 27.5002L14 27.5002L14 28.5002L23.3333 28.5002V27.5002ZM27.9999 32.1668C25.6987 32.1668 23.8333 30.3013 23.8333 28.0002H22.8333C22.8333 30.8536 25.1464 33.1668 27.9999 33.1668V32.1668ZM32.1666 28.0002C32.1666 30.3013 30.3011 32.1668 27.9999 32.1668V33.1668C30.8534 33.1668 33.1666 30.8536 33.1666 28.0002H32.1666ZM42 27.5002L32.6666 27.5002V28.5002L42 28.5002V27.5002ZM41.9648 26.5002H32.5592V27.5002H41.9648V26.5002ZM28 14.5002C35.1314 14.5002 40.9717 20.0301 41.4661 27.0354L42.4636 26.965C41.9325 19.4397 35.6601 13.5002 28 13.5002V14.5002ZM14.5339 27.0354C15.0283 20.0301 20.8686 14.5002 28 14.5002V13.5002C20.3399 13.5002 14.0675 19.4397 13.5364 26.965L14.5339 27.0354ZM23.4406 26.5002H14.0352V27.5002H23.4406V26.5002ZM27.9999 22.8335C25.5259 22.8335 23.459 24.5719 22.9522 26.8935L23.9291 27.1068C24.3378 25.2348 26.0058 23.8335 27.9999 23.8335V22.8335ZM33.0477 26.8935C32.5408 24.5719 30.474 22.8335 27.9999 22.8335V23.8335C29.994 23.8335 31.662 25.2348 32.0707 27.1068L33.0477 26.8935ZM31 28.0002C31 29.657 29.6569 31.0002 28 31.0002V32.0002C30.2091 32.0002 32 30.2093 32 28.0002H31ZM28 25.0002C29.6569 25.0002 31 26.3433 31 28.0002H32C32 25.791 30.2091 24.0002 28 24.0002V25.0002ZM25 28.0002C25 26.3433 26.3431 25.0002 28 25.0002V24.0002C25.7909 24.0002 24 25.791 24 28.0002H25ZM28 31.0002C26.3431 31.0002 25 29.657 25 28.0002H24C24 30.2093 25.7909 32.0002 28 32.0002V31.0002Z" fill="#555252" mask="url(#path-1-outside-1_64_7937)"/>
<path d="M5.33789 62.4688V71H3.86719V62.4688H5.33789ZM8.81836 66.2012V67.3672H4.96289V66.2012H8.81836ZM9.30469 62.4688V63.6406H4.96289V62.4688H9.30469ZM13.7109 69.7285V66.7051C13.7109 66.4785 13.6699 66.2832 13.5879 66.1191C13.5059 65.9551 13.3809 65.8281 13.2129 65.7383C13.0488 65.6484 12.8418 65.6035 12.5918 65.6035C12.3613 65.6035 12.1621 65.6426 11.9941 65.7207C11.8262 65.7988 11.6953 65.9043 11.6016 66.0371C11.5078 66.1699 11.4609 66.3203 11.4609 66.4883H10.0547C10.0547 66.2383 10.1152 65.9961 10.2363 65.7617C10.3574 65.5273 10.5332 65.3184 10.7637 65.1348C10.9941 64.9512 11.2695 64.8066 11.5898 64.7012C11.9102 64.5957 12.2695 64.543 12.668 64.543C13.1445 64.543 13.5664 64.623 13.9336 64.7832C14.3047 64.9434 14.5957 65.1855 14.8066 65.5098C15.0215 65.8301 15.1289 66.2324 15.1289 66.7168V69.5352C15.1289 69.8242 15.1484 70.084 15.1875 70.3145C15.2305 70.541 15.291 70.7383 15.3691 70.9062V71H13.9219C13.8555 70.8477 13.8027 70.6543 13.7637 70.4199C13.7285 70.1816 13.7109 69.9512 13.7109 69.7285ZM13.916 67.1445L13.9277 68.0176H12.9141C12.6523 68.0176 12.4219 68.043 12.2227 68.0938C12.0234 68.1406 11.8574 68.2109 11.7246 68.3047C11.5918 68.3984 11.4922 68.5117 11.4258 68.6445C11.3594 68.7773 11.3262 68.9277 11.3262 69.0957C11.3262 69.2637 11.3652 69.418 11.4434 69.5586C11.5215 69.6953 11.6348 69.8027 11.7832 69.8809C11.9355 69.959 12.1191 69.998 12.334 69.998C12.623 69.998 12.875 69.9395 13.0898 69.8223C13.3086 69.7012 13.4805 69.5547 13.6055 69.3828C13.7305 69.207 13.7969 69.041 13.8047 68.8848L14.2617 69.5117C14.2148 69.6719 14.1348 69.8438 14.0215 70.0273C13.9082 70.2109 13.7598 70.3867 13.5762 70.5547C13.3965 70.7188 13.1797 70.8535 12.9258 70.959C12.6758 71.0645 12.3867 71.1172 12.0586 71.1172C11.6445 71.1172 11.2754 71.0352 10.9512 70.8711C10.627 70.7031 10.373 70.4785 10.1895 70.1973C10.0059 69.9121 9.91406 69.5898 9.91406 69.2305C9.91406 68.8945 9.97656 68.5977 10.1016 68.3398C10.2305 68.0781 10.418 67.8594 10.6641 67.6836C10.9141 67.5078 11.2188 67.375 11.5781 67.2852C11.9375 67.1914 12.3477 67.1445 12.8086 67.1445H13.916ZM18.5742 69.8809L20.127 64.6602H21.5918L19.3887 71H18.4746L18.5742 69.8809ZM17.3848 64.6602L18.9668 69.9043L19.043 71H18.1289L15.9141 64.6602H17.3848ZM22.1016 67.9004V67.7656C22.1016 67.3086 22.168 66.8848 22.3008 66.4941C22.4336 66.0996 22.625 65.7578 22.875 65.4688C23.1289 65.1758 23.4375 64.9492 23.8008 64.7891C24.168 64.625 24.582 64.543 25.043 64.543C25.5078 64.543 25.9219 64.625 26.2852 64.7891C26.6523 64.9492 26.9629 65.1758 27.2168 65.4688C27.4707 65.7578 27.6641 66.0996 27.7969 66.4941C27.9297 66.8848 27.9961 67.3086 27.9961 67.7656V67.9004C27.9961 68.3574 27.9297 68.7812 27.7969 69.1719C27.6641 69.5625 27.4707 69.9043 27.2168 70.1973C26.9629 70.4863 26.6543 70.7129 26.291 70.877C25.9277 71.0371 25.5156 71.1172 25.0547 71.1172C24.5898 71.1172 24.1738 71.0371 23.8066 70.877C23.4434 70.7129 23.1348 70.4863 22.8809 70.1973C22.627 69.9043 22.4336 69.5625 22.3008 69.1719C22.168 68.7812 22.1016 68.3574 22.1016 67.9004ZM23.5137 67.7656V67.9004C23.5137 68.1855 23.543 68.4551 23.6016 68.709C23.6602 68.9629 23.752 69.1855 23.877 69.377C24.002 69.5684 24.1621 69.7188 24.3574 69.8281C24.5527 69.9375 24.7852 69.9922 25.0547 69.9922C25.3164 69.9922 25.543 69.9375 25.7344 69.8281C25.9297 69.7188 26.0898 69.5684 26.2148 69.377C26.3398 69.1855 26.4316 68.9629 26.4902 68.709C26.5527 68.4551 26.584 68.1855 26.584 67.9004V67.7656C26.584 67.4844 26.5527 67.2188 26.4902 66.9688C26.4316 66.7148 26.3379 66.4902 26.209 66.2949C26.084 66.0996 25.9238 65.9473 25.7285 65.8379C25.5371 65.7246 25.3086 65.668 25.043 65.668C24.7773 65.668 24.5469 65.7246 24.3516 65.8379C24.1602 65.9473 24.002 66.0996 23.877 66.2949C23.752 66.4902 23.6602 66.7148 23.6016 66.9688C23.543 67.2188 23.5137 67.4844 23.5137 67.7656ZM30.5977 65.8672V71H29.1855V64.6602H30.5332L30.5977 65.8672ZM32.5371 64.6191L32.5254 65.9316C32.4395 65.916 32.3457 65.9043 32.2441 65.8965C32.1465 65.8887 32.0488 65.8848 31.9512 65.8848C31.709 65.8848 31.4961 65.9199 31.3125 65.9902C31.1289 66.0566 30.9746 66.1543 30.8496 66.2832C30.7285 66.4082 30.6348 66.5605 30.5684 66.7402C30.502 66.9199 30.4629 67.1211 30.4512 67.3438L30.1289 67.3672C30.1289 66.9688 30.168 66.5996 30.2461 66.2598C30.3242 65.9199 30.4414 65.6211 30.5977 65.3633C30.7578 65.1055 30.957 64.9043 31.1953 64.7598C31.4375 64.6152 31.7168 64.543 32.0332 64.543C32.1191 64.543 32.2109 64.5508 32.3086 64.5664C32.4102 64.582 32.4863 64.5996 32.5371 64.6191ZM34.9336 64.6602V71H33.5156V64.6602H34.9336ZM33.4219 62.9961C33.4219 62.7812 33.4922 62.6035 33.6328 62.4629C33.7773 62.3184 33.9766 62.2461 34.2305 62.2461C34.4805 62.2461 34.6777 62.3184 34.8223 62.4629C34.9668 62.6035 35.0391 62.7812 35.0391 62.9961C35.0391 63.207 34.9668 63.3828 34.8223 63.5234C34.6777 63.6641 34.4805 63.7344 34.2305 63.7344C33.9766 63.7344 33.7773 63.6641 33.6328 63.5234C33.4922 63.3828 33.4219 63.207 33.4219 62.9961ZM39.3867 64.6602V65.6914H35.8125V64.6602H39.3867ZM36.8438 63.1074H38.2559V69.248C38.2559 69.4434 38.2832 69.5938 38.3379 69.6992C38.3965 69.8008 38.4766 69.8691 38.5781 69.9043C38.6797 69.9395 38.7988 69.957 38.9355 69.957C39.0332 69.957 39.127 69.9512 39.2168 69.9395C39.3066 69.9277 39.3789 69.916 39.4336 69.9043L39.4395 70.9824C39.3223 71.0176 39.1855 71.0488 39.0293 71.0762C38.877 71.1035 38.7012 71.1172 38.502 71.1172C38.1777 71.1172 37.8906 71.0605 37.6406 70.9473C37.3906 70.8301 37.1953 70.6406 37.0547 70.3789C36.9141 70.1172 36.8438 69.7695 36.8438 69.3359V63.1074ZM40.0664 67.9004V67.7656C40.0664 67.3086 40.1328 66.8848 40.2656 66.4941C40.3984 66.0996 40.5898 65.7578 40.8398 65.4688C41.0938 65.1758 41.4023 64.9492 41.7656 64.7891C42.1328 64.625 42.5469 64.543 43.0078 64.543C43.4727 64.543 43.8867 64.625 44.25 64.7891C44.6172 64.9492 44.9277 65.1758 45.1816 65.4688C45.4355 65.7578 45.6289 66.0996 45.7617 66.4941C45.8945 66.8848 45.9609 67.3086 45.9609 67.7656V67.9004C45.9609 68.3574 45.8945 68.7812 45.7617 69.1719C45.6289 69.5625 45.4355 69.9043 45.1816 70.1973C44.9277 70.4863 44.6191 70.7129 44.2559 70.877C43.8926 71.0371 43.4805 71.1172 43.0195 71.1172C42.5547 71.1172 42.1387 71.0371 41.7715 70.877C41.4082 70.7129 41.0996 70.4863 40.8457 70.1973C40.5918 69.9043 40.3984 69.5625 40.2656 69.1719C40.1328 68.7812 40.0664 68.3574 40.0664 67.9004ZM41.4785 67.7656V67.9004C41.4785 68.1855 41.5078 68.4551 41.5664 68.709C41.625 68.9629 41.7168 69.1855 41.8418 69.377C41.9668 69.5684 42.127 69.7188 42.3223 69.8281C42.5176 69.9375 42.75 69.9922 43.0195 69.9922C43.2812 69.9922 43.5078 69.9375 43.6992 69.8281C43.8945 69.7188 44.0547 69.5684 44.1797 69.377C44.3047 69.1855 44.3965 68.9629 44.4551 68.709C44.5176 68.4551 44.5488 68.1855 44.5488 67.9004V67.7656C44.5488 67.4844 44.5176 67.2188 44.4551 66.9688C44.3965 66.7148 44.3027 66.4902 44.1738 66.2949C44.0488 66.0996 43.8887 65.9473 43.6934 65.8379C43.502 65.7246 43.2734 65.668 43.0078 65.668C42.7422 65.668 42.5117 65.7246 42.3164 65.8379C42.125 65.9473 41.9668 66.0996 41.8418 66.2949C41.7168 66.4902 41.625 66.7148 41.5664 66.9688C41.5078 67.2188 41.4785 67.4844 41.4785 67.7656ZM50.7012 69.2832C50.7012 69.1426 50.666 69.0156 50.5957 68.9023C50.5254 68.7852 50.3906 68.6797 50.1914 68.5859C49.9961 68.4922 49.707 68.4062 49.3242 68.3281C48.9883 68.2539 48.6797 68.166 48.3984 68.0645C48.1211 67.959 47.8828 67.832 47.6836 67.6836C47.4844 67.5352 47.3301 67.3594 47.2207 67.1562C47.1113 66.9531 47.0566 66.7188 47.0566 66.4531C47.0566 66.1953 47.1133 65.9512 47.2266 65.7207C47.3398 65.4902 47.502 65.2871 47.7129 65.1113C47.9238 64.9355 48.1797 64.7969 48.4805 64.6953C48.7852 64.5938 49.125 64.543 49.5 64.543C50.0312 64.543 50.4863 64.6328 50.8652 64.8125C51.248 64.9883 51.541 65.2285 51.7441 65.5332C51.9473 65.834 52.0488 66.1738 52.0488 66.5527H50.6367C50.6367 66.3848 50.5938 66.2285 50.5078 66.084C50.4258 65.9355 50.3008 65.8164 50.1328 65.7266C49.9648 65.6328 49.7539 65.5859 49.5 65.5859C49.2578 65.5859 49.0566 65.625 48.8965 65.7031C48.7402 65.7773 48.623 65.875 48.5449 65.9961C48.4707 66.1172 48.4336 66.25 48.4336 66.3945C48.4336 66.5 48.4531 66.5957 48.4922 66.6816C48.5352 66.7637 48.6055 66.8398 48.7031 66.9102C48.8008 66.9766 48.9336 67.0391 49.1016 67.0977C49.2734 67.1562 49.4883 67.2129 49.7461 67.2676C50.2305 67.3691 50.6465 67.5 50.9941 67.6602C51.3457 67.8164 51.6152 68.0195 51.8027 68.2695C51.9902 68.5156 52.084 68.8281 52.084 69.207C52.084 69.4883 52.0234 69.7461 51.9023 69.9805C51.7852 70.2109 51.6133 70.4121 51.3867 70.584C51.1602 70.752 50.8887 70.8828 50.5723 70.9766C50.2598 71.0703 49.9082 71.1172 49.5176 71.1172C48.9434 71.1172 48.457 71.0156 48.0586 70.8125C47.6602 70.6055 47.3574 70.3418 47.1504 70.0215C46.9473 69.6973 46.8457 69.3613 46.8457 69.0137H48.2109C48.2266 69.2754 48.2988 69.4844 48.4277 69.6406C48.5605 69.793 48.7246 69.9043 48.9199 69.9746C49.1191 70.041 49.3242 70.0742 49.5352 70.0742C49.7891 70.0742 50.002 70.041 50.1738 69.9746C50.3457 69.9043 50.4766 69.8105 50.5664 69.6934C50.6562 69.5723 50.7012 69.4355 50.7012 69.2832Z" fill="#555252"/>
</svg>
