<svg width="133" height="28" viewBox="0 0 133 28" fill="none" xmlns="http://www.w3.org/2000/svg">
<path d="M37.8516 4.9375V22H34.6289V4.9375H37.8516ZM44.7305 12.3086V14.8516H37.0078V12.3086H44.7305ZM45.6328 4.9375V7.48047H37.0078V4.9375H45.6328ZM54.1758 19.3047V13.457C54.1758 13.0273 54.1016 12.6562 53.9531 12.3438C53.8047 12.0312 53.5781 11.7891 53.2734 11.6172C52.9688 11.4453 52.582 11.3594 52.1133 11.3594C51.6992 11.3594 51.3359 11.4297 51.0234 11.5703C50.7188 11.7109 50.4844 11.9102 50.3203 12.168C50.1562 12.418 50.0742 12.707 50.0742 13.0352H46.9688C46.9688 12.5117 47.0938 12.0156 47.3438 11.5469C47.5938 11.0703 47.9492 10.6484 48.4102 10.2812C48.8789 9.90625 49.4375 9.61328 50.0859 9.40234C50.7422 9.19141 51.4766 9.08594 52.2891 9.08594C53.25 9.08594 54.1055 9.25 54.8555 9.57812C55.6133 9.89844 56.207 10.3828 56.6367 11.0312C57.0742 11.6797 57.293 12.4961 57.293 13.4805V19.0117C57.293 19.6445 57.332 20.1875 57.4102 20.6406C57.4961 21.0859 57.6211 21.4727 57.7852 21.8008V22H54.6328C54.4844 21.6797 54.3711 21.2734 54.293 20.7812C54.2148 20.2812 54.1758 19.7891 54.1758 19.3047ZM54.6094 14.2773L54.6328 16.1172H52.6758C52.1914 16.1172 51.7656 16.168 51.3984 16.2695C51.0312 16.3633 50.7305 16.5039 50.4961 16.6914C50.2617 16.8711 50.0859 17.0898 49.9688 17.3477C49.8516 17.5977 49.793 17.8828 49.793 18.2031C49.793 18.5156 49.8633 18.7969 50.0039 19.0469C50.1523 19.2969 50.3633 19.4961 50.6367 19.6445C50.918 19.7852 51.2461 19.8555 51.6211 19.8555C52.168 19.8555 52.6445 19.7461 53.0508 19.5273C53.457 19.3008 53.7734 19.0273 54 18.707C54.2266 18.3867 54.3477 18.082 54.3633 17.793L55.2539 19.1289C55.1445 19.4492 54.9805 19.7891 54.7617 20.1484C54.543 20.5078 54.2617 20.8438 53.918 21.1562C53.5742 21.4688 53.1602 21.7266 52.6758 21.9297C52.1914 22.1328 51.6289 22.2344 50.9883 22.2344C50.168 22.2344 49.4336 22.0703 48.7852 21.7422C48.1367 21.4141 47.625 20.9648 47.25 20.3945C46.875 19.8242 46.6875 19.1758 46.6875 18.4492C46.6875 17.7773 46.8125 17.1836 47.0625 16.668C47.3125 16.1523 47.6836 15.7188 48.1758 15.3672C48.668 15.0078 49.2773 14.7383 50.0039 14.5586C50.7383 14.3711 51.5781 14.2773 52.5234 14.2773H54.6094ZM64.1016 19.6562L67.0547 9.32031H70.2891L65.9414 22H63.9727L64.1016 19.6562ZM61.9453 9.32031L64.9336 19.6797L65.0391 22H63.0586L58.6992 9.32031H61.9453ZM71.1797 15.7891V15.543C71.1797 14.6133 71.3125 13.7578 71.5781 12.9766C71.8438 12.1875 72.2305 11.5039 72.7383 10.9258C73.2461 10.3477 73.8672 9.89844 74.6016 9.57812C75.3359 9.25 76.1719 9.08594 77.1094 9.08594C78.0625 9.08594 78.9062 9.25 79.6406 9.57812C80.3828 9.89844 81.0078 10.3477 81.5156 10.9258C82.0234 11.5039 82.4102 12.1875 82.6758 12.9766C82.9414 13.7578 83.0742 14.6133 83.0742 15.543V15.7891C83.0742 16.7109 82.9414 17.5664 82.6758 18.3555C82.4102 19.1367 82.0234 19.8203 81.5156 20.4062C81.0078 20.9844 80.3867 21.4336 79.6523 21.7539C78.918 22.0742 78.0781 22.2344 77.1328 22.2344C76.1953 22.2344 75.3555 22.0742 74.6133 21.7539C73.8711 21.4336 73.2461 20.9844 72.7383 20.4062C72.2305 19.8203 71.8438 19.1367 71.5781 18.3555C71.3125 17.5664 71.1797 16.7109 71.1797 15.7891ZM74.2734 15.543V15.7891C74.2734 16.3438 74.3281 16.8633 74.4375 17.3477C74.5469 17.832 74.7148 18.2578 74.9414 18.625C75.168 18.9922 75.4609 19.2812 75.8203 19.4922C76.1875 19.6953 76.625 19.7969 77.1328 19.7969C77.6328 19.7969 78.0625 19.6953 78.4219 19.4922C78.7812 19.2812 79.0742 18.9922 79.3008 18.625C79.5352 18.2578 79.707 17.832 79.8164 17.3477C79.9258 16.8633 79.9805 16.3438 79.9805 15.7891V15.543C79.9805 14.9961 79.9258 14.4844 79.8164 14.0078C79.707 13.5234 79.5352 13.0977 79.3008 12.7305C79.0742 12.3555 78.7773 12.0625 78.4102 11.8516C78.0508 11.6328 77.6172 11.5234 77.1094 11.5234C76.6094 11.5234 76.1797 11.6328 75.8203 11.8516C75.4609 12.0625 75.168 12.3555 74.9414 12.7305C74.7148 13.0977 74.5469 13.5234 74.4375 14.0078C74.3281 14.4844 74.2734 14.9961 74.2734 15.543ZM88.418 11.9102V22H85.3242V9.32031H88.2539L88.418 11.9102ZM92.2734 9.23828L92.2266 12.1211C92.0547 12.0898 91.8594 12.0664 91.6406 12.0508C91.4297 12.0352 91.2305 12.0273 91.043 12.0273C90.5664 12.0273 90.1484 12.0938 89.7891 12.2266C89.4297 12.3516 89.1289 12.5352 88.8867 12.7773C88.6523 13.0195 88.4727 13.3164 88.3477 13.668C88.2227 14.0117 88.1523 14.4023 88.1367 14.8398L87.4688 14.7578C87.4688 13.9531 87.5508 13.207 87.7148 12.5195C87.8789 11.832 88.1172 11.2305 88.4297 10.7148C88.7422 10.1992 89.1328 9.80078 89.6016 9.51953C90.0781 9.23047 90.625 9.08594 91.2422 9.08594C91.4141 9.08594 91.5977 9.10156 91.793 9.13281C91.9961 9.15625 92.1562 9.19141 92.2734 9.23828ZM97.2539 9.32031V22H94.1484V9.32031H97.2539ZM93.9375 6.00391C93.9375 5.54297 94.0938 5.16016 94.4062 4.85547C94.7266 4.55078 95.1562 4.39844 95.6953 4.39844C96.2344 4.39844 96.6602 4.55078 96.9727 4.85547C97.293 5.16016 97.4531 5.54297 97.4531 6.00391C97.4531 6.45703 97.293 6.83594 96.9727 7.14062C96.6602 7.44531 96.2344 7.59766 95.6953 7.59766C95.1562 7.59766 94.7266 7.44531 94.4062 7.14062C94.0938 6.83594 93.9375 6.45703 93.9375 6.00391ZM106.207 9.32031V11.5469H98.9414V9.32031H106.207ZM100.887 6.20312H103.992V18.3438C103.992 18.7188 104.043 19.0078 104.145 19.2109C104.246 19.4141 104.398 19.5508 104.602 19.6211C104.805 19.6914 105.047 19.7266 105.328 19.7266C105.531 19.7266 105.719 19.7148 105.891 19.6914C106.062 19.668 106.207 19.6445 106.324 19.6211L106.336 21.9414C106.078 22.0273 105.785 22.0977 105.457 22.1523C105.137 22.207 104.773 22.2344 104.367 22.2344C103.672 22.2344 103.062 22.1172 102.539 21.8828C102.016 21.6406 101.609 21.2539 101.32 20.7227C101.031 20.1836 100.887 19.4727 100.887 18.5898V6.20312ZM107.414 15.7891V15.543C107.414 14.6133 107.547 13.7578 107.812 12.9766C108.078 12.1875 108.465 11.5039 108.973 10.9258C109.48 10.3477 110.102 9.89844 110.836 9.57812C111.57 9.25 112.406 9.08594 113.344 9.08594C114.297 9.08594 115.141 9.25 115.875 9.57812C116.617 9.89844 117.242 10.3477 117.75 10.9258C118.258 11.5039 118.645 12.1875 118.91 12.9766C119.176 13.7578 119.309 14.6133 119.309 15.543V15.7891C119.309 16.7109 119.176 17.5664 118.91 18.3555C118.645 19.1367 118.258 19.8203 117.75 20.4062C117.242 20.9844 116.621 21.4336 115.887 21.7539C115.152 22.0742 114.312 22.2344 113.367 22.2344C112.43 22.2344 111.59 22.0742 110.848 21.7539C110.105 21.4336 109.48 20.9844 108.973 20.4062C108.465 19.8203 108.078 19.1367 107.812 18.3555C107.547 17.5664 107.414 16.7109 107.414 15.7891ZM110.508 15.543V15.7891C110.508 16.3438 110.562 16.8633 110.672 17.3477C110.781 17.832 110.949 18.2578 111.176 18.625C111.402 18.9922 111.695 19.2812 112.055 19.4922C112.422 19.6953 112.859 19.7969 113.367 19.7969C113.867 19.7969 114.297 19.6953 114.656 19.4922C115.016 19.2812 115.309 18.9922 115.535 18.625C115.77 18.2578 115.941 17.832 116.051 17.3477C116.16 16.8633 116.215 16.3438 116.215 15.7891V15.543C116.215 14.9961 116.16 14.4844 116.051 14.0078C115.941 13.5234 115.77 13.0977 115.535 12.7305C115.309 12.3555 115.012 12.0625 114.645 11.8516C114.285 11.6328 113.852 11.5234 113.344 11.5234C112.844 11.5234 112.414 11.6328 112.055 11.8516C111.695 12.0625 111.402 12.3555 111.176 12.7305C110.949 13.0977 110.781 13.5234 110.672 14.0078C110.562 14.4844 110.508 14.9961 110.508 15.543ZM128.531 18.5312C128.531 18.2656 128.461 18.0273 128.32 17.8164C128.18 17.6055 127.914 17.4141 127.523 17.2422C127.141 17.0625 126.578 16.8945 125.836 16.7383C125.18 16.5977 124.574 16.4219 124.02 16.2109C123.465 16 122.988 15.7461 122.59 15.4492C122.191 15.1445 121.879 14.7891 121.652 14.3828C121.434 13.9688 121.324 13.4922 121.324 12.9531C121.324 12.4297 121.438 11.9375 121.664 11.4766C121.891 11.0078 122.219 10.5977 122.648 10.2461C123.078 9.88672 123.602 9.60547 124.219 9.40234C124.836 9.19141 125.531 9.08594 126.305 9.08594C127.383 9.08594 128.309 9.26172 129.082 9.61328C129.863 9.96484 130.461 10.4492 130.875 11.0664C131.289 11.6758 131.496 12.3633 131.496 13.1289H128.402C128.402 12.793 128.324 12.4883 128.168 12.2148C128.02 11.9414 127.789 11.7227 127.477 11.5586C127.164 11.3867 126.77 11.3008 126.293 11.3008C125.863 11.3008 125.5 11.3711 125.203 11.5117C124.914 11.6523 124.695 11.8359 124.547 12.0625C124.398 12.2891 124.324 12.5391 124.324 12.8125C124.324 13.0156 124.363 13.1992 124.441 13.3633C124.527 13.5195 124.664 13.6641 124.852 13.7969C125.039 13.9297 125.293 14.0508 125.613 14.1602C125.941 14.2695 126.344 14.375 126.82 14.4766C127.766 14.6641 128.59 14.9141 129.293 15.2266C130.004 15.5312 130.559 15.9375 130.957 16.4453C131.355 16.9531 131.555 17.6016 131.555 18.3906C131.555 18.9531 131.434 19.4688 131.191 19.9375C130.949 20.3984 130.598 20.8008 130.137 21.1445C129.676 21.4883 129.125 21.7578 128.484 21.9531C127.844 22.1406 127.121 22.2344 126.316 22.2344C125.152 22.2344 124.168 22.0273 123.363 21.6133C122.559 21.1914 121.949 20.6602 121.535 20.0195C121.121 19.3711 120.914 18.6992 120.914 18.0039H123.879C123.902 18.4961 124.035 18.8906 124.277 19.1875C124.52 19.4844 124.824 19.6992 125.191 19.832C125.566 19.957 125.961 20.0195 126.375 20.0195C126.844 20.0195 127.238 19.957 127.559 19.832C127.879 19.6992 128.121 19.5234 128.285 19.3047C128.449 19.0781 128.531 18.8203 128.531 18.5312Z" fill="#555252"/>
<mask id="path-2-outside-1_135_9453" maskUnits="userSpaceOnUse" x="0" y="1.5" width="25" height="25" fill="black">
<rect fill="white" y="1.5" width="25" height="25"/>
<path fill-rule="evenodd" clip-rule="evenodd" d="M24 14C24 20.3513 18.8513 25.5 12.5 25.5C6.14873 25.5 1 20.3513 1 14C1 7.64873 6.14873 2.5 12.5 2.5C18.8513 2.5 24 7.64873 24 14ZM23.1156 14C23.1156 19.8627 18.3629 24.6154 12.5002 24.6154C6.63747 24.6154 1.8848 19.8627 1.8848 14L1.88484 13.9725V14H8.96164V14C8.96164 15.9543 10.5459 17.5385 12.5001 17.5385C14.4543 17.5385 16.0386 15.9543 16.0386 14V14H23.1156V14ZM15.8953 13H23.0691C22.5651 7.60626 18.0257 3.38465 12.5002 3.38465C6.97472 3.38465 2.43526 7.60626 1.93129 13H9.10492C9.5364 11.5327 10.8932 10.4616 12.5001 10.4616C14.107 10.4616 15.4638 11.5327 15.8953 13ZM12.5002 16.6538C13.9659 16.6538 15.1541 15.4657 15.1541 14C15.1541 12.5343 13.9659 11.3462 12.5002 11.3462C11.0346 11.3462 9.8464 12.5343 9.8464 14C9.8464 15.4657 11.0346 16.6538 12.5002 16.6538Z"/>
</mask>
<path fill-rule="evenodd" clip-rule="evenodd" d="M24 14C24 20.3513 18.8513 25.5 12.5 25.5C6.14873 25.5 1 20.3513 1 14C1 7.64873 6.14873 2.5 12.5 2.5C18.8513 2.5 24 7.64873 24 14ZM23.1156 14C23.1156 19.8627 18.3629 24.6154 12.5002 24.6154C6.63747 24.6154 1.8848 19.8627 1.8848 14L1.88484 13.9725V14H8.96164V14C8.96164 15.9543 10.5459 17.5385 12.5001 17.5385C14.4543 17.5385 16.0386 15.9543 16.0386 14V14H23.1156V14ZM15.8953 13H23.0691C22.5651 7.60626 18.0257 3.38465 12.5002 3.38465C6.97472 3.38465 2.43526 7.60626 1.93129 13H9.10492C9.5364 11.5327 10.8932 10.4616 12.5001 10.4616C14.107 10.4616 15.4638 11.5327 15.8953 13ZM12.5002 16.6538C13.9659 16.6538 15.1541 15.4657 15.1541 14C15.1541 12.5343 13.9659 11.3462 12.5002 11.3462C11.0346 11.3462 9.8464 12.5343 9.8464 14C9.8464 15.4657 11.0346 16.6538 12.5002 16.6538Z" fill="#555252"/>
<path d="M1.8848 14L1.3848 13.9994V14H1.8848ZM1.88484 13.9725H2.38484L1.38484 13.9719L1.88484 13.9725ZM1.88484 14H1.38484V14.5H1.88484V14ZM8.96164 14H9.46164V13.5H8.96164V14ZM16.0386 14V13.5H15.5386V14H16.0386ZM23.1156 14H23.6156V13.5H23.1156V14ZM23.0691 13V13.5H23.618L23.5669 12.9535L23.0691 13ZM15.8953 13L15.4156 13.1411L15.5211 13.5H15.8953V13ZM1.93129 13L1.43346 12.9535L1.38239 13.5H1.93129V13ZM9.10492 13V13.5H9.47906L9.58461 13.1411L9.10492 13ZM12.5 26C19.1274 26 24.5 20.6274 24.5 14H23.5C23.5 20.0751 18.5751 25 12.5 25V26ZM0.5 14C0.5 20.6274 5.87258 26 12.5 26V25C6.42487 25 1.5 20.0751 1.5 14H0.5ZM12.5 2C5.87258 2 0.5 7.37258 0.5 14H1.5C1.5 7.92487 6.42487 3 12.5 3V2ZM24.5 14C24.5 7.37258 19.1274 2 12.5 2V3C18.5751 3 23.5 7.92487 23.5 14H24.5ZM12.5002 25.1154C18.639 25.1154 23.6156 20.1389 23.6156 14H22.6156C22.6156 19.5866 18.0868 24.1154 12.5002 24.1154V25.1154ZM1.3848 14C1.3848 20.1389 6.36133 25.1154 12.5002 25.1154V24.1154C6.91361 24.1154 2.3848 19.5866 2.3848 14H1.3848ZM1.38484 13.9719L1.3848 13.9994L2.3848 14.0007L2.38484 13.9732L1.38484 13.9719ZM2.38484 14V13.9725H1.38484V14H2.38484ZM8.96164 13.5H1.88484V14.5H8.96164V13.5ZM9.46164 14V14H8.46164V14H9.46164ZM12.5001 17.0385C10.822 17.0385 9.46164 15.6781 9.46164 14H8.46164C8.46164 16.2304 10.2697 18.0385 12.5001 18.0385V17.0385ZM15.5386 14C15.5386 15.6781 14.1782 17.0385 12.5001 17.0385V18.0385C14.7305 18.0385 16.5386 16.2304 16.5386 14H15.5386ZM15.5386 14V14H16.5386V14H15.5386ZM23.1156 13.5H16.0386V14.5H23.1156V13.5ZM23.6156 14V14H22.6156V14H23.6156ZM23.0691 12.5H15.8953V13.5H23.0691V12.5ZM12.5002 3.88465C17.7651 3.88465 22.0911 7.90736 22.5713 13.0465L23.5669 12.9535C23.0392 7.30516 18.2862 2.88465 12.5002 2.88465V3.88465ZM2.42912 13.0465C2.9093 7.90736 7.23526 3.88465 12.5002 3.88465V2.88465C6.71418 2.88465 1.96121 7.30516 1.43346 12.9535L2.42912 13.0465ZM9.10492 12.5H1.93129V13.5H9.10492V12.5ZM12.5001 9.96156C10.6653 9.96156 9.11758 11.1847 8.62523 12.8589L9.58461 13.1411C9.95521 11.8808 11.121 10.9616 12.5001 10.9616V9.96156ZM16.375 12.8589C15.8826 11.1847 14.3348 9.96156 12.5001 9.96156V10.9616C13.8792 10.9616 15.045 11.8808 15.4156 13.1411L16.375 12.8589ZM14.6541 14C14.6541 15.1895 13.6898 16.1538 12.5002 16.1538V17.1538C14.2421 17.1538 15.6541 15.7418 15.6541 14H14.6541ZM12.5002 11.8462C13.6898 11.8462 14.6541 12.8105 14.6541 14H15.6541C15.6541 12.2582 14.2421 10.8462 12.5002 10.8462V11.8462ZM10.3464 14C10.3464 12.8105 11.3107 11.8462 12.5002 11.8462V10.8462C10.7584 10.8462 9.3464 12.2582 9.3464 14H10.3464ZM12.5002 16.1538C11.3107 16.1538 10.3464 15.1895 10.3464 14H9.3464C9.3464 15.7418 10.7584 17.1538 12.5002 17.1538V16.1538Z" fill="#555252" mask="url(#path-2-outside-1_135_9453)"/>
</svg>
