<svg width="134" height="28" viewBox="0 0 134 28" fill="none" xmlns="http://www.w3.org/2000/svg">
<path d="M38.2266 4.9375V22H34.4062V4.9375H38.2266ZM44.9414 12.1328V15.0859H37.1602V12.1328H44.9414ZM45.6914 4.9375V7.90234H37.1602V4.9375H45.6914ZM53.6836 18.9766V13.5391C53.6836 13.1562 53.625 12.8281 53.5078 12.5547C53.3906 12.2812 53.207 12.0664 52.957 11.9102C52.707 11.7539 52.3828 11.6758 51.9844 11.6758C51.6484 11.6758 51.3555 11.7344 51.1055 11.8516C50.8633 11.9688 50.6758 12.1367 50.543 12.3555C50.418 12.5742 50.3555 12.8438 50.3555 13.1641H46.6992C46.6992 12.5938 46.8281 12.0625 47.0859 11.5703C47.3438 11.0781 47.7109 10.6445 48.1875 10.2695C48.6719 9.89453 49.25 9.60547 49.9219 9.40234C50.5938 9.19141 51.3477 9.08594 52.1836 9.08594C53.1758 9.08594 54.0586 9.25391 54.832 9.58984C55.6133 9.91797 56.2305 10.4141 56.6836 11.0781C57.1367 11.7344 57.3633 12.5625 57.3633 13.5625V18.8711C57.3633 19.6367 57.4062 20.2383 57.4922 20.6758C57.5859 21.1055 57.7188 21.4805 57.8906 21.8008V22H54.1992C54.0273 21.6328 53.8984 21.1797 53.8125 20.6406C53.7266 20.0938 53.6836 19.5391 53.6836 18.9766ZM54.1406 14.2656L54.1641 16.2812H52.3477C51.9414 16.2812 51.5898 16.332 51.293 16.4336C51.0039 16.5352 50.7695 16.6758 50.5898 16.8555C50.4102 17.0273 50.2773 17.2305 50.1914 17.4648C50.1133 17.6914 50.0742 17.9414 50.0742 18.2148C50.0742 18.4727 50.1367 18.707 50.2617 18.918C50.3867 19.1211 50.5586 19.2812 50.7773 19.3984C50.9961 19.5156 51.25 19.5742 51.5391 19.5742C52.0156 19.5742 52.4219 19.4805 52.7578 19.293C53.1016 19.1055 53.3672 18.8789 53.5547 18.6133C53.7422 18.3398 53.8359 18.0859 53.8359 17.8516L54.7148 19.375C54.5742 19.6875 54.4023 20.0117 54.1992 20.3477C53.9961 20.6758 53.7383 20.9844 53.4258 21.2734C53.1133 21.5547 52.7344 21.7852 52.2891 21.9648C51.8516 22.1445 51.3242 22.2344 50.707 22.2344C49.9102 22.2344 49.1875 22.0742 48.5391 21.7539C47.8906 21.4258 47.3711 20.9766 46.9805 20.4062C46.5977 19.8359 46.4062 19.1797 46.4062 18.4375C46.4062 17.7734 46.5273 17.1836 46.7695 16.668C47.0117 16.1523 47.375 15.7148 47.8594 15.3555C48.3516 14.9961 48.9688 14.7266 49.7109 14.5469C50.4531 14.3594 51.3203 14.2656 52.3125 14.2656H54.1406ZM64.0195 19.4102L66.668 9.32031H70.5117L66.3047 22H63.9961L64.0195 19.4102ZM62.3086 9.32031L64.9453 19.4219L64.9688 22H62.6602L58.4531 9.32031H62.3086ZM71.1445 15.7891V15.543C71.1445 14.6133 71.2773 13.7578 71.543 12.9766C71.8086 12.1875 72.1992 11.5039 72.7148 10.9258C73.2305 10.3477 73.8633 9.89844 74.6133 9.57812C75.3633 9.25 76.2227 9.08594 77.1914 9.08594C78.1758 9.08594 79.043 9.25 79.793 9.57812C80.5508 9.89844 81.1875 10.3477 81.7031 10.9258C82.2188 11.5039 82.6094 12.1875 82.875 12.9766C83.1406 13.7578 83.2734 14.6133 83.2734 15.543V15.7891C83.2734 16.7109 83.1406 17.5664 82.875 18.3555C82.6094 19.1367 82.2188 19.8203 81.7031 20.4062C81.1875 20.9844 80.5547 21.4336 79.8047 21.7539C79.0547 22.0742 78.1914 22.2344 77.2148 22.2344C76.2461 22.2344 75.3828 22.0742 74.625 21.7539C73.8672 21.4336 73.2305 20.9844 72.7148 20.4062C72.1992 19.8203 71.8086 19.1367 71.543 18.3555C71.2773 17.5664 71.1445 16.7109 71.1445 15.7891ZM74.8125 15.543V15.7891C74.8125 16.2891 74.8516 16.7578 74.9297 17.1953C75.0156 17.6328 75.1523 18.0156 75.3398 18.3438C75.5273 18.6719 75.7734 18.9297 76.0781 19.1172C76.3906 19.2969 76.7695 19.3867 77.2148 19.3867C77.6602 19.3867 78.0352 19.2969 78.3398 19.1172C78.6445 18.9297 78.8906 18.6719 79.0781 18.3438C79.2656 18.0156 79.3984 17.6328 79.4766 17.1953C79.5625 16.7578 79.6055 16.2891 79.6055 15.7891V15.543C79.6055 15.0508 79.5625 14.5898 79.4766 14.1602C79.3984 13.7227 79.2656 13.3359 79.0781 13C78.8906 12.6641 78.6406 12.4023 78.3281 12.2148C78.0234 12.0273 77.6445 11.9336 77.1914 11.9336C76.7539 11.9336 76.3828 12.0273 76.0781 12.2148C75.7734 12.4023 75.5273 12.6641 75.3398 13C75.1523 13.3359 75.0156 13.7227 74.9297 14.1602C74.8516 14.5898 74.8125 15.0508 74.8125 15.543ZM88.8633 12.2734V22H85.207V9.32031H88.6406L88.8633 12.2734ZM92.6484 9.22656L92.5898 12.6367C92.4336 12.6133 92.2305 12.5938 91.9805 12.5781C91.7305 12.5547 91.5156 12.543 91.3359 12.543C90.8672 12.543 90.4609 12.6016 90.1172 12.7188C89.7812 12.8281 89.5 12.9922 89.2734 13.2109C89.0547 13.4297 88.8906 13.7031 88.7812 14.0312C88.6719 14.3516 88.6172 14.7227 88.6172 15.1445L87.9258 14.8047C87.9258 13.9688 88.0078 13.2031 88.1719 12.5078C88.3359 11.8125 88.5742 11.2109 88.8867 10.7031C89.1992 10.1875 89.582 9.78906 90.0352 9.50781C90.4883 9.22656 91.0039 9.08594 91.582 9.08594C91.7695 9.08594 91.9609 9.09766 92.1562 9.12109C92.3516 9.14453 92.5156 9.17969 92.6484 9.22656ZM98.0039 9.32031V22H94.3359V9.32031H98.0039ZM94.1133 6.03906C94.1133 5.50781 94.3008 5.07422 94.6758 4.73828C95.0508 4.39453 95.543 4.22266 96.1523 4.22266C96.7617 4.22266 97.2539 4.39453 97.6289 4.73828C98.0117 5.07422 98.2031 5.50781 98.2031 6.03906C98.2031 6.5625 98.0117 6.99609 97.6289 7.33984C97.2539 7.67578 96.7617 7.84375 96.1523 7.84375C95.543 7.84375 95.0508 7.67578 94.6758 7.33984C94.3008 6.99609 94.1133 6.5625 94.1133 6.03906ZM107.086 9.32031V11.8867H99.5625V9.32031H107.086ZM101.285 6.17969H104.953V18.0273C104.953 18.3789 104.996 18.6484 105.082 18.8359C105.168 19.0234 105.309 19.1562 105.504 19.2344C105.699 19.3047 105.949 19.3398 106.254 19.3398C106.473 19.3398 106.66 19.332 106.816 19.3164C106.973 19.3008 107.117 19.2812 107.25 19.2578V21.9062C106.938 22.0078 106.605 22.0859 106.254 22.1406C105.902 22.2031 105.52 22.2344 105.105 22.2344C104.316 22.2344 103.633 22.1055 103.055 21.8477C102.484 21.5898 102.047 21.1836 101.742 20.6289C101.438 20.0664 101.285 19.3359 101.285 18.4375V6.17969ZM107.988 15.7891V15.543C107.988 14.6133 108.121 13.7578 108.387 12.9766C108.652 12.1875 109.043 11.5039 109.559 10.9258C110.074 10.3477 110.707 9.89844 111.457 9.57812C112.207 9.25 113.066 9.08594 114.035 9.08594C115.02 9.08594 115.887 9.25 116.637 9.57812C117.395 9.89844 118.031 10.3477 118.547 10.9258C119.062 11.5039 119.453 12.1875 119.719 12.9766C119.984 13.7578 120.117 14.6133 120.117 15.543V15.7891C120.117 16.7109 119.984 17.5664 119.719 18.3555C119.453 19.1367 119.062 19.8203 118.547 20.4062C118.031 20.9844 117.398 21.4336 116.648 21.7539C115.898 22.0742 115.035 22.2344 114.059 22.2344C113.09 22.2344 112.227 22.0742 111.469 21.7539C110.711 21.4336 110.074 20.9844 109.559 20.4062C109.043 19.8203 108.652 19.1367 108.387 18.3555C108.121 17.5664 107.988 16.7109 107.988 15.7891ZM111.656 15.543V15.7891C111.656 16.2891 111.695 16.7578 111.773 17.1953C111.859 17.6328 111.996 18.0156 112.184 18.3438C112.371 18.6719 112.617 18.9297 112.922 19.1172C113.234 19.2969 113.613 19.3867 114.059 19.3867C114.504 19.3867 114.879 19.2969 115.184 19.1172C115.488 18.9297 115.734 18.6719 115.922 18.3438C116.109 18.0156 116.242 17.6328 116.32 17.1953C116.406 16.7578 116.449 16.2891 116.449 15.7891V15.543C116.449 15.0508 116.406 14.5898 116.32 14.1602C116.242 13.7227 116.109 13.3359 115.922 13C115.734 12.6641 115.484 12.4023 115.172 12.2148C114.867 12.0273 114.488 11.9336 114.035 11.9336C113.598 11.9336 113.227 12.0273 112.922 12.2148C112.617 12.4023 112.371 12.6641 112.184 13C111.996 13.3359 111.859 13.7227 111.773 14.1602C111.695 14.5898 111.656 15.0508 111.656 15.543ZM128.789 18.4727C128.789 18.2383 128.715 18.0312 128.566 17.8516C128.426 17.6719 128.168 17.5078 127.793 17.3594C127.426 17.2109 126.906 17.0625 126.234 16.9141C125.602 16.7812 125.012 16.6094 124.465 16.3984C123.918 16.1797 123.441 15.918 123.035 15.6133C122.629 15.3008 122.312 14.9336 122.086 14.5117C121.859 14.082 121.746 13.5938 121.746 13.0469C121.746 12.5156 121.859 12.0117 122.086 11.5352C122.32 11.0586 122.656 10.6367 123.094 10.2695C123.539 9.90234 124.078 9.61328 124.711 9.40234C125.352 9.19141 126.078 9.08594 126.891 9.08594C128.008 9.08594 128.973 9.26172 129.785 9.61328C130.598 9.95703 131.223 10.4414 131.66 11.0664C132.098 11.6836 132.316 12.3906 132.316 13.1875H128.66C128.66 12.8594 128.598 12.5742 128.473 12.332C128.348 12.0898 128.156 11.9023 127.898 11.7695C127.641 11.6289 127.301 11.5586 126.879 11.5586C126.551 11.5586 126.262 11.6172 126.012 11.7344C125.77 11.8438 125.578 11.9961 125.438 12.1914C125.305 12.3867 125.238 12.6133 125.238 12.8711C125.238 13.0508 125.277 13.2148 125.355 13.3633C125.441 13.5039 125.57 13.6367 125.742 13.7617C125.922 13.8789 126.152 13.9844 126.434 14.0781C126.723 14.1719 127.074 14.2617 127.488 14.3477C128.371 14.5117 129.176 14.7422 129.902 15.0391C130.637 15.3359 131.223 15.7461 131.66 16.2695C132.105 16.793 132.328 17.4844 132.328 18.3438C132.328 18.9062 132.199 19.4219 131.941 19.8906C131.691 20.3594 131.328 20.7695 130.852 21.1211C130.375 21.4727 129.805 21.7461 129.141 21.9414C128.477 22.1367 127.727 22.2344 126.891 22.2344C125.695 22.2344 124.684 22.0195 123.855 21.5898C123.027 21.1602 122.402 20.6211 121.98 19.9727C121.566 19.3164 121.359 18.6445 121.359 17.957H124.793C124.809 18.3789 124.914 18.7227 125.109 18.9883C125.312 19.2539 125.574 19.4492 125.895 19.5742C126.215 19.6914 126.574 19.75 126.973 19.75C127.371 19.75 127.703 19.6953 127.969 19.5859C128.234 19.4766 128.438 19.3281 128.578 19.1406C128.719 18.9453 128.789 18.7227 128.789 18.4727Z" fill="#F10A34"/>
<mask id="path-2-outside-1_135_9400" maskUnits="userSpaceOnUse" x="0" y="1.5" width="25" height="25" fill="black">
<rect fill="white" y="1.5" width="25" height="25"/>
<path fill-rule="evenodd" clip-rule="evenodd" d="M24 14C24 20.3513 18.8513 25.5 12.5 25.5C6.14873 25.5 1 20.3513 1 14C1 7.64873 6.14873 2.5 12.5 2.5C18.8513 2.5 24 7.64873 24 14ZM23.1156 14C23.1156 19.8627 18.3629 24.6154 12.5002 24.6154C6.63747 24.6154 1.8848 19.8627 1.8848 14L1.88484 13.9725V14H8.96164V14C8.96164 15.9543 10.5459 17.5385 12.5001 17.5385C14.4543 17.5385 16.0386 15.9543 16.0386 14V14H23.1156V14ZM15.8953 13H23.0691C22.5651 7.60626 18.0257 3.38465 12.5002 3.38465C6.97472 3.38465 2.43526 7.60626 1.93129 13H9.10492C9.5364 11.5327 10.8932 10.4616 12.5001 10.4616C14.107 10.4616 15.4638 11.5327 15.8953 13ZM12.5002 16.6538C13.9659 16.6538 15.1541 15.4657 15.1541 14C15.1541 12.5343 13.9659 11.3462 12.5002 11.3462C11.0346 11.3462 9.8464 12.5343 9.8464 14C9.8464 15.4657 11.0346 16.6538 12.5002 16.6538Z"/>
</mask>
<path fill-rule="evenodd" clip-rule="evenodd" d="M24 14C24 20.3513 18.8513 25.5 12.5 25.5C6.14873 25.5 1 20.3513 1 14C1 7.64873 6.14873 2.5 12.5 2.5C18.8513 2.5 24 7.64873 24 14ZM23.1156 14C23.1156 19.8627 18.3629 24.6154 12.5002 24.6154C6.63747 24.6154 1.8848 19.8627 1.8848 14L1.88484 13.9725V14H8.96164V14C8.96164 15.9543 10.5459 17.5385 12.5001 17.5385C14.4543 17.5385 16.0386 15.9543 16.0386 14V14H23.1156V14ZM15.8953 13H23.0691C22.5651 7.60626 18.0257 3.38465 12.5002 3.38465C6.97472 3.38465 2.43526 7.60626 1.93129 13H9.10492C9.5364 11.5327 10.8932 10.4616 12.5001 10.4616C14.107 10.4616 15.4638 11.5327 15.8953 13ZM12.5002 16.6538C13.9659 16.6538 15.1541 15.4657 15.1541 14C15.1541 12.5343 13.9659 11.3462 12.5002 11.3462C11.0346 11.3462 9.8464 12.5343 9.8464 14C9.8464 15.4657 11.0346 16.6538 12.5002 16.6538Z" fill="#F10A34"/>
<path d="M1.8848 14L1.3848 13.9994V14H1.8848ZM1.88484 13.9725H2.38484L1.38484 13.9719L1.88484 13.9725ZM1.88484 14H1.38484V14.5H1.88484V14ZM8.96164 14H9.46164V13.5H8.96164V14ZM16.0386 14V13.5H15.5386V14H16.0386ZM23.1156 14H23.6156V13.5H23.1156V14ZM23.0691 13V13.5H23.618L23.5669 12.9535L23.0691 13ZM15.8953 13L15.4156 13.1411L15.5211 13.5H15.8953V13ZM1.93129 13L1.43346 12.9535L1.38239 13.5H1.93129V13ZM9.10492 13V13.5H9.47906L9.58461 13.1411L9.10492 13ZM12.5 26C19.1274 26 24.5 20.6274 24.5 14H23.5C23.5 20.0751 18.5751 25 12.5 25V26ZM0.5 14C0.5 20.6274 5.87258 26 12.5 26V25C6.42487 25 1.5 20.0751 1.5 14H0.5ZM12.5 2C5.87258 2 0.5 7.37258 0.5 14H1.5C1.5 7.92487 6.42487 3 12.5 3V2ZM24.5 14C24.5 7.37258 19.1274 2 12.5 2V3C18.5751 3 23.5 7.92487 23.5 14H24.5ZM12.5002 25.1154C18.639 25.1154 23.6156 20.1389 23.6156 14H22.6156C22.6156 19.5866 18.0868 24.1154 12.5002 24.1154V25.1154ZM1.3848 14C1.3848 20.1389 6.36133 25.1154 12.5002 25.1154V24.1154C6.91361 24.1154 2.3848 19.5866 2.3848 14H1.3848ZM1.38484 13.9719L1.3848 13.9994L2.3848 14.0007L2.38484 13.9732L1.38484 13.9719ZM2.38484 14V13.9725H1.38484V14H2.38484ZM8.96164 13.5H1.88484V14.5H8.96164V13.5ZM9.46164 14V14H8.46164V14H9.46164ZM12.5001 17.0385C10.822 17.0385 9.46164 15.6781 9.46164 14H8.46164C8.46164 16.2304 10.2697 18.0385 12.5001 18.0385V17.0385ZM15.5386 14C15.5386 15.6781 14.1782 17.0385 12.5001 17.0385V18.0385C14.7305 18.0385 16.5386 16.2304 16.5386 14H15.5386ZM15.5386 14V14H16.5386V14H15.5386ZM23.1156 13.5H16.0386V14.5H23.1156V13.5ZM23.6156 14V14H22.6156V14H23.6156ZM23.0691 12.5H15.8953V13.5H23.0691V12.5ZM12.5002 3.88465C17.7651 3.88465 22.0911 7.90736 22.5713 13.0465L23.5669 12.9535C23.0392 7.30516 18.2862 2.88465 12.5002 2.88465V3.88465ZM2.42912 13.0465C2.9093 7.90736 7.23526 3.88465 12.5002 3.88465V2.88465C6.71418 2.88465 1.96121 7.30516 1.43346 12.9535L2.42912 13.0465ZM9.10492 12.5H1.93129V13.5H9.10492V12.5ZM12.5001 9.96156C10.6653 9.96156 9.11758 11.1847 8.62523 12.8589L9.58461 13.1411C9.95521 11.8808 11.121 10.9616 12.5001 10.9616V9.96156ZM16.375 12.8589C15.8826 11.1847 14.3348 9.96156 12.5001 9.96156V10.9616C13.8792 10.9616 15.045 11.8808 15.4156 13.1411L16.375 12.8589ZM14.6541 14C14.6541 15.1895 13.6898 16.1538 12.5002 16.1538V17.1538C14.2421 17.1538 15.6541 15.7418 15.6541 14H14.6541ZM12.5002 11.8462C13.6898 11.8462 14.6541 12.8105 14.6541 14H15.6541C15.6541 12.2582 14.2421 10.8462 12.5002 10.8462V11.8462ZM10.3464 14C10.3464 12.8105 11.3107 11.8462 12.5002 11.8462V10.8462C10.7584 10.8462 9.3464 12.2582 9.3464 14H10.3464ZM12.5002 16.1538C11.3107 16.1538 10.3464 15.1895 10.3464 14H9.3464C9.3464 15.7418 10.7584 17.1538 12.5002 17.1538V16.1538Z" fill="#F10A34" mask="url(#path-2-outside-1_135_9400)"/>
</svg>
