<svg width="74" height="22" viewBox="0 0 74 22" fill="none" xmlns="http://www.w3.org/2000/svg">
<rect width="74" height="22" rx="11" fill="#0F0905"/>
<g clip-path="url(#clip0_25_323)">
<path fill-rule="evenodd" clip-rule="evenodd" d="M9.72331 6.83136C9.84433 6.35354 10.2772 6 10.7926 6C11.1793 6 11.5194 6.19892 11.7164 6.5H12.0389C12.2393 6.29437 12.5192 6.16667 12.829 6.16667C13.2832 6.16667 13.6733 6.44118 13.8424 6.83333H14.1124C14.2816 6.72771 14.4815 6.66667 14.6957 6.66667C15.1499 6.66667 15.5399 6.94118 15.709 7.33333H16.4433C16.4496 7.33333 16.4554 7.33502 16.4605 7.33797C16.494 7.3349 16.528 7.33333 16.5623 7.33333C17.1715 7.33333 17.6654 7.82718 17.6654 8.43637V11.7439L17.6654 11.75L17.6654 11.7561V11.8038C17.6654 11.8239 17.6648 11.844 17.6637 11.864C17.5973 14.1585 15.5342 16 12.9987 16C10.4214 16 8.33203 14.0972 8.33203 11.75C8.33203 10.617 8.81885 9.58756 9.61237 8.82568C9.61039 9.93023 9.62905 11.0721 9.71505 11.0526C9.94533 11.0001 9.76541 7.5789 9.72331 6.83136Z" fill="white"/>
</g>
<path d="M24.1211 6.46875V15H22.9902V6.46875H24.1211ZM27.6953 10.3066V11.2324H23.875V10.3066H27.6953ZM28.2754 6.46875V7.39453H23.875V6.46875H28.2754ZM30.6367 8.66016V15H29.5469V8.66016H30.6367ZM29.4648 6.97852C29.4648 6.80273 29.5176 6.6543 29.623 6.5332C29.7324 6.41211 29.8926 6.35156 30.1035 6.35156C30.3105 6.35156 30.4688 6.41211 30.5781 6.5332C30.6914 6.6543 30.748 6.80273 30.748 6.97852C30.748 7.14648 30.6914 7.29102 30.5781 7.41211C30.4688 7.5293 30.3105 7.58789 30.1035 7.58789C29.8926 7.58789 29.7324 7.5293 29.623 7.41211C29.5176 7.29102 29.4648 7.14648 29.4648 6.97852ZM36.4844 8.66016H37.4688V14.8652C37.4688 15.4238 37.3555 15.9004 37.1289 16.2949C36.9023 16.6895 36.5859 16.9883 36.1797 17.1914C35.7773 17.3984 35.3125 17.502 34.7852 17.502C34.5664 17.502 34.3086 17.4668 34.0117 17.3965C33.7188 17.3301 33.4297 17.2148 33.1445 17.0508C32.8633 16.8906 32.627 16.6738 32.4355 16.4004L33.0039 15.7559C33.2695 16.0762 33.5469 16.2988 33.8359 16.4238C34.1289 16.5488 34.418 16.6113 34.7031 16.6113C35.0469 16.6113 35.3438 16.5469 35.5938 16.418C35.8438 16.2891 36.0371 16.0977 36.1738 15.8438C36.3145 15.5938 36.3848 15.2852 36.3848 14.918V10.0547L36.4844 8.66016ZM32.1191 11.9004V11.7773C32.1191 11.293 32.1758 10.8535 32.2891 10.459C32.4062 10.0605 32.5723 9.71875 32.7871 9.43359C33.0059 9.14844 33.2695 8.92969 33.5781 8.77734C33.8867 8.62109 34.2344 8.54297 34.6211 8.54297C35.0195 8.54297 35.3672 8.61328 35.6641 8.75391C35.9648 8.89062 36.2188 9.0918 36.4258 9.35742C36.6367 9.61914 36.8027 9.93555 36.9238 10.3066C37.0449 10.6777 37.1289 11.0977 37.1758 11.5664V12.1055C37.1328 12.5703 37.0488 12.9883 36.9238 13.3594C36.8027 13.7305 36.6367 14.0469 36.4258 14.3086C36.2188 14.5703 35.9648 14.7715 35.6641 14.9121C35.3633 15.0488 35.0117 15.1172 34.6094 15.1172C34.2305 15.1172 33.8867 15.0371 33.5781 14.877C33.2734 14.7168 33.0117 14.4922 32.793 14.2031C32.5742 13.9141 32.4062 13.5742 32.2891 13.1836C32.1758 12.7891 32.1191 12.3613 32.1191 11.9004ZM33.2031 11.7773V11.9004C33.2031 12.2168 33.2344 12.5137 33.2969 12.791C33.3633 13.0684 33.4629 13.3125 33.5957 13.5234C33.7324 13.7344 33.9062 13.9004 34.1172 14.0215C34.3281 14.1387 34.5801 14.1973 34.873 14.1973C35.2324 14.1973 35.5293 14.1211 35.7637 13.9688C35.998 13.8164 36.1836 13.6152 36.3203 13.3652C36.4609 13.1152 36.5703 12.8438 36.6484 12.5508V11.1387C36.6055 10.9238 36.5391 10.7168 36.4492 10.5176C36.3633 10.3145 36.25 10.1348 36.1094 9.97852C35.9727 9.81836 35.8027 9.69141 35.5996 9.59766C35.3965 9.50391 35.1582 9.45703 34.8848 9.45703C34.5879 9.45703 34.332 9.51953 34.1172 9.64453C33.9062 9.76562 33.7324 9.93359 33.5957 10.1484C33.4629 10.3594 33.3633 10.6055 33.2969 10.8867C33.2344 11.1641 33.2031 11.4609 33.2031 11.7773ZM40.1992 6V15H39.1152V6H40.1992ZM39.9414 11.5898L39.4902 11.5723C39.4941 11.1387 39.5586 10.7383 39.6836 10.3711C39.8086 10 39.9844 9.67773 40.2109 9.4043C40.4375 9.13086 40.707 8.91992 41.0195 8.77148C41.3359 8.61914 41.6855 8.54297 42.0684 8.54297C42.3809 8.54297 42.6621 8.58594 42.9121 8.67188C43.1621 8.75391 43.375 8.88672 43.5508 9.07031C43.7305 9.25391 43.8672 9.49219 43.9609 9.78516C44.0547 10.0742 44.1016 10.4277 44.1016 10.8457V15H43.0117V10.834C43.0117 10.502 42.9629 10.2363 42.8652 10.0371C42.7676 9.83398 42.625 9.6875 42.4375 9.59766C42.25 9.50391 42.0195 9.45703 41.7461 9.45703C41.4766 9.45703 41.2305 9.51367 41.0078 9.62695C40.7891 9.74023 40.5996 9.89648 40.4395 10.0957C40.2832 10.2949 40.1602 10.5234 40.0703 10.7812C39.9844 11.0352 39.9414 11.3047 39.9414 11.5898ZM48.3789 8.66016V9.49219H44.9512V8.66016H48.3789ZM46.1113 7.11914H47.1953V13.4297C47.1953 13.6445 47.2285 13.8066 47.2949 13.916C47.3613 14.0254 47.4473 14.0977 47.5527 14.1328C47.6582 14.168 47.7715 14.1855 47.8926 14.1855C47.9824 14.1855 48.0762 14.1777 48.1738 14.1621C48.2754 14.1426 48.3516 14.127 48.4023 14.1152L48.4082 15C48.3223 15.0273 48.209 15.0527 48.0684 15.0762C47.9316 15.1035 47.7656 15.1172 47.5703 15.1172C47.3047 15.1172 47.0605 15.0645 46.8379 14.959C46.6152 14.8535 46.4375 14.6777 46.3047 14.4316C46.1758 14.1816 46.1113 13.8457 46.1113 13.4238V7.11914ZM50.8281 8.66016V15H49.7383V8.66016H50.8281ZM49.6562 6.97852C49.6562 6.80273 49.709 6.6543 49.8145 6.5332C49.9238 6.41211 50.084 6.35156 50.2949 6.35156C50.502 6.35156 50.6602 6.41211 50.7695 6.5332C50.8828 6.6543 50.9395 6.80273 50.9395 6.97852C50.9395 7.14648 50.8828 7.29102 50.7695 7.41211C50.6602 7.5293 50.502 7.58789 50.2949 7.58789C50.084 7.58789 49.9238 7.5293 49.8145 7.41211C49.709 7.29102 49.6562 7.14648 49.6562 6.97852ZM53.6523 10.0137V15H52.5684V8.66016H53.5938L53.6523 10.0137ZM53.3945 11.5898L52.9434 11.5723C52.9473 11.1387 53.0117 10.7383 53.1367 10.3711C53.2617 10 53.4375 9.67773 53.6641 9.4043C53.8906 9.13086 54.1602 8.91992 54.4727 8.77148C54.7891 8.61914 55.1387 8.54297 55.5215 8.54297C55.834 8.54297 56.1152 8.58594 56.3652 8.67188C56.6152 8.75391 56.8281 8.88672 57.0039 9.07031C57.1836 9.25391 57.3203 9.49219 57.4141 9.78516C57.5078 10.0742 57.5547 10.4277 57.5547 10.8457V15H56.4648V10.834C56.4648 10.502 56.416 10.2363 56.3184 10.0371C56.2207 9.83398 56.0781 9.6875 55.8906 9.59766C55.7031 9.50391 55.4727 9.45703 55.1992 9.45703C54.9297 9.45703 54.6836 9.51367 54.4609 9.62695C54.2422 9.74023 54.0527 9.89648 53.8926 10.0957C53.7363 10.2949 53.6133 10.5234 53.5234 10.7812C53.4375 11.0352 53.3945 11.3047 53.3945 11.5898ZM63.3086 8.66016H64.293V14.8652C64.293 15.4238 64.1797 15.9004 63.9531 16.2949C63.7266 16.6895 63.4102 16.9883 63.0039 17.1914C62.6016 17.3984 62.1367 17.502 61.6094 17.502C61.3906 17.502 61.1328 17.4668 60.8359 17.3965C60.543 17.3301 60.2539 17.2148 59.9688 17.0508C59.6875 16.8906 59.4512 16.6738 59.2598 16.4004L59.8281 15.7559C60.0938 16.0762 60.3711 16.2988 60.6602 16.4238C60.9531 16.5488 61.2422 16.6113 61.5273 16.6113C61.8711 16.6113 62.168 16.5469 62.418 16.418C62.668 16.2891 62.8613 16.0977 62.998 15.8438C63.1387 15.5938 63.209 15.2852 63.209 14.918V10.0547L63.3086 8.66016ZM58.9434 11.9004V11.7773C58.9434 11.293 59 10.8535 59.1133 10.459C59.2305 10.0605 59.3965 9.71875 59.6113 9.43359C59.8301 9.14844 60.0938 8.92969 60.4023 8.77734C60.7109 8.62109 61.0586 8.54297 61.4453 8.54297C61.8438 8.54297 62.1914 8.61328 62.4883 8.75391C62.7891 8.89062 63.043 9.0918 63.25 9.35742C63.4609 9.61914 63.627 9.93555 63.748 10.3066C63.8691 10.6777 63.9531 11.0977 64 11.5664V12.1055C63.957 12.5703 63.873 12.9883 63.748 13.3594C63.627 13.7305 63.4609 14.0469 63.25 14.3086C63.043 14.5703 62.7891 14.7715 62.4883 14.9121C62.1875 15.0488 61.8359 15.1172 61.4336 15.1172C61.0547 15.1172 60.7109 15.0371 60.4023 14.877C60.0977 14.7168 59.8359 14.4922 59.6172 14.2031C59.3984 13.9141 59.2305 13.5742 59.1133 13.1836C59 12.7891 58.9434 12.3613 58.9434 11.9004ZM60.0273 11.7773V11.9004C60.0273 12.2168 60.0586 12.5137 60.1211 12.791C60.1875 13.0684 60.2871 13.3125 60.4199 13.5234C60.5566 13.7344 60.7305 13.9004 60.9414 14.0215C61.1523 14.1387 61.4043 14.1973 61.6973 14.1973C62.0566 14.1973 62.3535 14.1211 62.5879 13.9688C62.8223 13.8164 63.0078 13.6152 63.1445 13.3652C63.2852 13.1152 63.3945 12.8438 63.4727 12.5508V11.1387C63.4297 10.9238 63.3633 10.7168 63.2734 10.5176C63.1875 10.3145 63.0742 10.1348 62.9336 9.97852C62.7969 9.81836 62.627 9.69141 62.4238 9.59766C62.2207 9.50391 61.9824 9.45703 61.709 9.45703C61.4121 9.45703 61.1562 9.51953 60.9414 9.64453C60.7305 9.76562 60.5566 9.93359 60.4199 10.1484C60.2871 10.3594 60.1875 10.6055 60.1211 10.8867C60.0586 11.1641 60.0273 11.4609 60.0273 11.7773Z" fill="white"/>
<defs>
<clipPath id="clip0_25_323">
<rect width="10" height="10" fill="white" transform="translate(8 6)"/>
</clipPath>
</defs>
</svg>
