<svg width="50" height="22" viewBox="0 0 50 22" fill="none" xmlns="http://www.w3.org/2000/svg">
<rect width="50" height="22" rx="11" fill="#F10A34"/>
<path fill-rule="evenodd" clip-rule="evenodd" d="M14.88 13.7225C15.0036 13.2708 14.7638 12.342 14.7638 12.342C14.7638 12.342 14.5898 13.0986 14.318 13.3783C14.0862 13.6168 13.8021 13.7822 13.3947 13.8257C13.7278 13.6639 13.9568 13.3266 13.9568 12.9366C13.9568 12.3892 13.5054 11.9455 12.9486 11.9455C12.3918 11.9455 11.9403 12.3892 11.9403 12.9366C11.9403 13.0861 11.974 13.2279 12.0343 13.355C11.686 13.0775 11.6313 12.6327 11.6313 12.6327C11.6313 12.6327 11.2424 14.2473 12.314 15.0069C13.3855 15.7664 15.4847 15.1136 15.4847 15.1136C15.4847 15.1136 12.4807 17.2273 10.2546 14.9268C8.33705 12.945 9.75413 10.336 9.75413 10.336C9.75413 10.336 9.69293 10.578 9.69293 10.859C9.69293 11.1399 9.84526 11.3537 9.84526 11.3537C9.84526 11.3537 10.2997 10.3959 10.6533 10.0064C10.988 9.63777 11.4075 9.33879 11.7699 9.08055C12.0489 8.88176 12.2939 8.70711 12.4403 8.54342C13.2465 7.64197 12.7522 6 12.7522 6C12.7522 6 13.661 6.80117 13.9147 7.83589C14.0114 8.23031 13.9492 8.67908 13.8935 9.08039C13.8032 9.73187 13.7302 10.2583 14.3827 10.2241C15.437 10.1689 14.5208 8.54342 14.5208 8.54342C14.5208 8.54342 16.9125 9.80045 16.7338 11.9989C16.5551 14.1974 14.1196 14.6972 14.1196 14.6972C14.1196 14.6972 14.7565 14.1743 14.88 13.7225Z" fill="white"/>
<path d="M24.1211 6.46875V15H22.9902V6.46875H24.1211ZM27.6953 10.3066V11.2324H23.875V10.3066H27.6953ZM28.2754 6.46875V7.39453H23.875V6.46875H28.2754ZM30.6367 8.66016V15H29.5469V8.66016H30.6367ZM29.4648 6.97852C29.4648 6.80273 29.5176 6.6543 29.623 6.5332C29.7324 6.41211 29.8926 6.35156 30.1035 6.35156C30.3105 6.35156 30.4688 6.41211 30.5781 6.5332C30.6914 6.6543 30.748 6.80273 30.748 6.97852C30.748 7.14648 30.6914 7.29102 30.5781 7.41211C30.4688 7.5293 30.3105 7.58789 30.1035 7.58789C29.8926 7.58789 29.7324 7.5293 29.623 7.41211C29.5176 7.29102 29.4648 7.14648 29.4648 6.97852ZM33.4609 9.65625V15H32.377V8.66016H33.4316L33.4609 9.65625ZM35.4414 8.625L35.4355 9.63281C35.3457 9.61328 35.2598 9.60156 35.1777 9.59766C35.0996 9.58984 35.0098 9.58594 34.9082 9.58594C34.6582 9.58594 34.4375 9.625 34.2461 9.70312C34.0547 9.78125 33.8926 9.89062 33.7598 10.0312C33.627 10.1719 33.5215 10.3398 33.4434 10.5352C33.3691 10.7266 33.3203 10.9375 33.2969 11.168L32.9922 11.3438C32.9922 10.9609 33.0293 10.6016 33.1035 10.2656C33.1816 9.92969 33.3008 9.63281 33.4609 9.375C33.6211 9.11328 33.8242 8.91016 34.0703 8.76562C34.3203 8.61719 34.6172 8.54297 34.9609 8.54297C35.0391 8.54297 35.1289 8.55273 35.2305 8.57227C35.332 8.58789 35.4023 8.60547 35.4414 8.625ZM38.957 15.1172C38.5156 15.1172 38.1152 15.043 37.7559 14.8945C37.4004 14.7422 37.0938 14.5293 36.8359 14.2559C36.582 13.9824 36.3867 13.6582 36.25 13.2832C36.1133 12.9082 36.0449 12.498 36.0449 12.0527V11.8066C36.0449 11.291 36.1211 10.832 36.2734 10.4297C36.4258 10.0234 36.6328 9.67969 36.8945 9.39844C37.1562 9.11719 37.4531 8.9043 37.7852 8.75977C38.1172 8.61523 38.4609 8.54297 38.8164 8.54297C39.2695 8.54297 39.6602 8.62109 39.9883 8.77734C40.3203 8.93359 40.5918 9.15234 40.8027 9.43359C41.0137 9.71094 41.1699 10.0391 41.2715 10.418C41.373 10.793 41.4238 11.2031 41.4238 11.6484V12.1348H36.6895V11.25H40.3398V11.168C40.3242 10.8867 40.2656 10.6133 40.1641 10.3477C40.0664 10.082 39.9102 9.86328 39.6953 9.69141C39.4805 9.51953 39.1875 9.43359 38.8164 9.43359C38.5703 9.43359 38.3438 9.48633 38.1367 9.5918C37.9297 9.69336 37.752 9.8457 37.6035 10.0488C37.4551 10.252 37.3398 10.5 37.2578 10.793C37.1758 11.0859 37.1348 11.4238 37.1348 11.8066V12.0527C37.1348 12.3535 37.1758 12.6367 37.2578 12.9023C37.3438 13.1641 37.4668 13.3945 37.627 13.5938C37.791 13.793 37.9883 13.9492 38.2188 14.0625C38.4531 14.1758 38.7188 14.2324 39.0156 14.2324C39.3984 14.2324 39.7227 14.1543 39.9883 13.998C40.2539 13.8418 40.4863 13.6328 40.6855 13.3711L41.3418 13.8926C41.2051 14.0996 41.0312 14.2969 40.8203 14.4844C40.6094 14.6719 40.3496 14.8242 40.041 14.9414C39.7363 15.0586 39.375 15.1172 38.957 15.1172Z" fill="white"/>
</svg>
