<svg width="62" height="22" viewBox="0 0 62 22" fill="none" xmlns="http://www.w3.org/2000/svg">
<rect width="62" height="22" rx="11" fill="#95C4E4"/>
<g clip-path="url(#clip0_8_2535)">
<path fill-rule="evenodd" clip-rule="evenodd" d="M11.4905 15.3307C12.9554 15.3307 14.2095 14.5166 14.7273 13.3624C14.7336 13.3483 12.6486 13.9043 12.7151 13.7078C12.7447 13.62 14.0229 13.1531 14.9541 12.6085C15.4893 12.2954 15.7357 11.6328 15.7357 11.6328C15.7357 11.6328 14.834 12.0706 14.3782 12.1817C13.4596 12.4055 12.651 12.3814 12.651 12.3581C12.651 12.3076 13.9937 12.0525 15.8598 10.9153C16.7376 10.3804 16.9761 9.45904 16.9761 9.45904C16.9761 9.45904 16.011 10.0339 15.4276 10.2237C14.0441 10.6737 12.7815 10.8094 12.7815 10.7485C12.7815 10.6181 13.8926 10.3125 15.0706 9.74174C15.6831 9.44496 16.2136 9.05723 16.8283 8.62604C17.8341 7.92055 18 6.66406 18 6.66406C18 6.66406 17.0079 7.30391 16.5238 7.51639C14.5262 8.39318 12.7623 8.85311 11.4905 8.95268C9.57063 9.10299 8 10.4425 8 12.1817C8 13.9208 9.56273 15.3307 11.4905 15.3307Z" fill="white"/>
</g>
<path d="M24.1211 6.46875V15H22.9902V6.46875H24.1211ZM27.6953 10.3066V11.2324H23.875V10.3066H27.6953ZM28.2754 6.46875V7.39453H23.875V6.46875H28.2754ZM30.6367 6V15H29.5469V6H30.6367ZM34.1582 14.3438L35.9219 8.66016H37.082L34.5391 15.9785C34.4805 16.1348 34.4023 16.3027 34.3047 16.4824C34.2109 16.666 34.0898 16.8398 33.9414 17.0039C33.793 17.168 33.6133 17.3008 33.4023 17.4023C33.1953 17.5078 32.9473 17.5605 32.6582 17.5605C32.5723 17.5605 32.4629 17.5488 32.3301 17.5254C32.1973 17.502 32.1035 17.4824 32.0488 17.4668L32.043 16.5879C32.0742 16.5918 32.123 16.5957 32.1895 16.5996C32.2598 16.6074 32.3086 16.6113 32.3359 16.6113C32.582 16.6113 32.791 16.5781 32.9629 16.5117C33.1348 16.4492 33.2793 16.3418 33.3965 16.1895C33.5176 16.041 33.6211 15.8359 33.707 15.5742L34.1582 14.3438ZM32.8633 8.66016L34.5098 13.582L34.791 14.7246L34.0117 15.123L31.6797 8.66016H32.8633ZM39.2383 8.66016V15H38.1484V8.66016H39.2383ZM38.0664 6.97852C38.0664 6.80273 38.1191 6.6543 38.2246 6.5332C38.334 6.41211 38.4941 6.35156 38.7051 6.35156C38.9121 6.35156 39.0703 6.41211 39.1797 6.5332C39.293 6.6543 39.3496 6.80273 39.3496 6.97852C39.3496 7.14648 39.293 7.29102 39.1797 7.41211C39.0703 7.5293 38.9121 7.58789 38.7051 7.58789C38.4941 7.58789 38.334 7.5293 38.2246 7.41211C38.1191 7.29102 38.0664 7.14648 38.0664 6.97852ZM42.0625 10.0137V15H40.9785V8.66016H42.0039L42.0625 10.0137ZM41.8047 11.5898L41.3535 11.5723C41.3574 11.1387 41.4219 10.7383 41.5469 10.3711C41.6719 10 41.8477 9.67773 42.0742 9.4043C42.3008 9.13086 42.5703 8.91992 42.8828 8.77148C43.1992 8.61914 43.5488 8.54297 43.9316 8.54297C44.2441 8.54297 44.5254 8.58594 44.7754 8.67188C45.0254 8.75391 45.2383 8.88672 45.4141 9.07031C45.5938 9.25391 45.7305 9.49219 45.8242 9.78516C45.918 10.0742 45.9648 10.4277 45.9648 10.8457V15H44.875V10.834C44.875 10.502 44.8262 10.2363 44.7285 10.0371C44.6309 9.83398 44.4883 9.6875 44.3008 9.59766C44.1133 9.50391 43.8828 9.45703 43.6094 9.45703C43.3398 9.45703 43.0938 9.51367 42.8711 9.62695C42.6523 9.74023 42.4629 9.89648 42.3027 10.0957C42.1465 10.2949 42.0234 10.5234 41.9336 10.7812C41.8477 11.0352 41.8047 11.3047 41.8047 11.5898ZM51.7188 8.66016H52.7031V14.8652C52.7031 15.4238 52.5898 15.9004 52.3633 16.2949C52.1367 16.6895 51.8203 16.9883 51.4141 17.1914C51.0117 17.3984 50.5469 17.502 50.0195 17.502C49.8008 17.502 49.543 17.4668 49.2461 17.3965C48.9531 17.3301 48.6641 17.2148 48.3789 17.0508C48.0977 16.8906 47.8613 16.6738 47.6699 16.4004L48.2383 15.7559C48.5039 16.0762 48.7812 16.2988 49.0703 16.4238C49.3633 16.5488 49.6523 16.6113 49.9375 16.6113C50.2812 16.6113 50.5781 16.5469 50.8281 16.418C51.0781 16.2891 51.2715 16.0977 51.4082 15.8438C51.5488 15.5938 51.6191 15.2852 51.6191 14.918V10.0547L51.7188 8.66016ZM47.3535 11.9004V11.7773C47.3535 11.293 47.4102 10.8535 47.5234 10.459C47.6406 10.0605 47.8066 9.71875 48.0215 9.43359C48.2402 9.14844 48.5039 8.92969 48.8125 8.77734C49.1211 8.62109 49.4688 8.54297 49.8555 8.54297C50.2539 8.54297 50.6016 8.61328 50.8984 8.75391C51.1992 8.89062 51.4531 9.0918 51.6602 9.35742C51.8711 9.61914 52.0371 9.93555 52.1582 10.3066C52.2793 10.6777 52.3633 11.0977 52.4102 11.5664V12.1055C52.3672 12.5703 52.2832 12.9883 52.1582 13.3594C52.0371 13.7305 51.8711 14.0469 51.6602 14.3086C51.4531 14.5703 51.1992 14.7715 50.8984 14.9121C50.5977 15.0488 50.2461 15.1172 49.8438 15.1172C49.4648 15.1172 49.1211 15.0371 48.8125 14.877C48.5078 14.7168 48.2461 14.4922 48.0273 14.2031C47.8086 13.9141 47.6406 13.5742 47.5234 13.1836C47.4102 12.7891 47.3535 12.3613 47.3535 11.9004ZM48.4375 11.7773V11.9004C48.4375 12.2168 48.4688 12.5137 48.5312 12.791C48.5977 13.0684 48.6973 13.3125 48.8301 13.5234C48.9668 13.7344 49.1406 13.9004 49.3516 14.0215C49.5625 14.1387 49.8145 14.1973 50.1074 14.1973C50.4668 14.1973 50.7637 14.1211 50.998 13.9688C51.2324 13.8164 51.418 13.6152 51.5547 13.3652C51.6953 13.1152 51.8047 12.8438 51.8828 12.5508V11.1387C51.8398 10.9238 51.7734 10.7168 51.6836 10.5176C51.5977 10.3145 51.4844 10.1348 51.3438 9.97852C51.207 9.81836 51.0371 9.69141 50.834 9.59766C50.6309 9.50391 50.3926 9.45703 50.1191 9.45703C49.8223 9.45703 49.5664 9.51953 49.3516 9.64453C49.1406 9.76562 48.9668 9.93359 48.8301 10.1484C48.6973 10.3594 48.5977 10.6055 48.5312 10.8867C48.4688 11.1641 48.4375 11.4609 48.4375 11.7773Z" fill="white"/>
<defs>
<clipPath id="clip0_8_2535">
<rect width="10" height="10" fill="white" transform="translate(8 6)"/>
</clipPath>
</defs>
</svg>
