<svg width="62" height="22" viewBox="0 0 62 22" fill="none" xmlns="http://www.w3.org/2000/svg">
<rect width="62" height="22" rx="11" fill="#8A8886"/>
<g clip-path="url(#clip0_27_817)">
<path fill-rule="evenodd" clip-rule="evenodd" d="M15.2061 15.9654C14.3041 16.0115 13.2714 16.0115 12.9205 15.9654C10.183 15.6052 8 13.6038 8 10.8984C8 8.19311 10.2386 6 13 6C15.7614 6 18 8.19311 18 10.8984C18 12.1567 17.5158 13.3041 16.7199 14.1716C16.5038 14.4072 16.8003 14.5724 17.1016 14.7403C17.3971 14.905 17.6971 15.0722 17.5227 15.3108C17.3306 15.5737 16.2889 15.9099 15.2061 15.9654ZM12.2969 10.2861C12.2969 10.7088 11.9471 11.0515 11.5156 11.0515C11.0842 11.0515 10.7344 10.7088 10.7344 10.2861C10.7344 10.0026 10.8917 9.75516 11.1255 9.62287C11.1389 9.99145 11.442 10.2861 11.8138 10.2861H12.2969V10.2861ZM14.7183 9.62287C14.7048 9.99145 14.4018 10.2861 14.0299 10.2861H13.5469V10.2861C13.5469 10.7088 13.8967 11.0515 14.3281 11.0515C14.7596 11.0515 15.1094 10.7088 15.1094 10.2861C15.1094 10.0026 14.9521 9.75516 14.7183 9.62287Z" fill="white"/>
</g>
<path d="M29.2949 10.752V13.875C29.1895 14.0312 29.0215 14.207 28.791 14.4023C28.5605 14.5938 28.2422 14.7617 27.8359 14.9062C27.4336 15.0469 26.9141 15.1172 26.2773 15.1172C25.7578 15.1172 25.2793 15.0273 24.8418 14.8477C24.4082 14.6641 24.0312 14.3984 23.7109 14.0508C23.3945 13.6992 23.1484 13.2734 22.9727 12.7734C22.8008 12.2695 22.7148 11.6992 22.7148 11.0625V10.4004C22.7148 9.76367 22.7891 9.19531 22.9375 8.69531C23.0898 8.19531 23.3125 7.77148 23.6055 7.42383C23.8984 7.07227 24.2578 6.80664 24.6836 6.62695C25.1094 6.44336 25.5977 6.35156 26.1484 6.35156C26.8008 6.35156 27.3457 6.46484 27.7832 6.69141C28.2246 6.91406 28.5684 7.22266 28.8145 7.61719C29.0645 8.01172 29.2246 8.46094 29.2949 8.96484H28.1641C28.1133 8.65625 28.0117 8.375 27.8594 8.12109C27.7109 7.86719 27.498 7.66406 27.2207 7.51172C26.9434 7.35547 26.5859 7.27734 26.1484 7.27734C25.7539 7.27734 25.4121 7.34961 25.123 7.49414C24.834 7.63867 24.5957 7.8457 24.4082 8.11523C24.2207 8.38477 24.0801 8.71094 23.9863 9.09375C23.8965 9.47656 23.8516 9.9082 23.8516 10.3887V11.0625C23.8516 11.5547 23.9082 11.9941 24.0215 12.3809C24.1387 12.7676 24.3047 13.0977 24.5195 13.3711C24.7344 13.6406 24.9902 13.8457 25.2871 13.9863C25.5879 14.127 25.9199 14.1973 26.2832 14.1973C26.6855 14.1973 27.0117 14.1641 27.2617 14.0977C27.5117 14.0273 27.707 13.9453 27.8477 13.8516C27.9883 13.7539 28.0957 13.6621 28.1699 13.5762V11.666H26.1953V10.752H29.2949ZM32.0898 6V15H31.0059V6H32.0898ZM31.832 11.5898L31.3809 11.5723C31.3848 11.1387 31.4492 10.7383 31.5742 10.3711C31.6992 10 31.875 9.67773 32.1016 9.4043C32.3281 9.13086 32.5977 8.91992 32.9102 8.77148C33.2266 8.61914 33.5762 8.54297 33.959 8.54297C34.2715 8.54297 34.5527 8.58594 34.8027 8.67188C35.0527 8.75391 35.2656 8.88672 35.4414 9.07031C35.6211 9.25391 35.7578 9.49219 35.8516 9.78516C35.9453 10.0742 35.9922 10.4277 35.9922 10.8457V15H34.9023V10.834C34.9023 10.502 34.8535 10.2363 34.7559 10.0371C34.6582 9.83398 34.5156 9.6875 34.3281 9.59766C34.1406 9.50391 33.9102 9.45703 33.6367 9.45703C33.3672 9.45703 33.1211 9.51367 32.8984 9.62695C32.6797 9.74023 32.4902 9.89648 32.3301 10.0957C32.1738 10.2949 32.0508 10.5234 31.9609 10.7812C31.875 11.0352 31.832 11.3047 31.832 11.5898ZM37.3281 11.9004V11.7656C37.3281 11.3086 37.3945 10.8848 37.5273 10.4941C37.6602 10.0996 37.8516 9.75781 38.1016 9.46875C38.3516 9.17578 38.6543 8.94922 39.0098 8.78906C39.3652 8.625 39.7637 8.54297 40.2051 8.54297C40.6504 8.54297 41.0508 8.625 41.4062 8.78906C41.7656 8.94922 42.0703 9.17578 42.3203 9.46875C42.5742 9.75781 42.7676 10.0996 42.9004 10.4941C43.0332 10.8848 43.0996 11.3086 43.0996 11.7656V11.9004C43.0996 12.3574 43.0332 12.7812 42.9004 13.1719C42.7676 13.5625 42.5742 13.9043 42.3203 14.1973C42.0703 14.4863 41.7676 14.7129 41.4121 14.877C41.0605 15.0371 40.6621 15.1172 40.2168 15.1172C39.7715 15.1172 39.3711 15.0371 39.0156 14.877C38.6602 14.7129 38.3555 14.4863 38.1016 14.1973C37.8516 13.9043 37.6602 13.5625 37.5273 13.1719C37.3945 12.7812 37.3281 12.3574 37.3281 11.9004ZM38.4121 11.7656V11.9004C38.4121 12.2168 38.4492 12.5156 38.5234 12.7969C38.5977 13.0742 38.709 13.3203 38.8574 13.5352C39.0098 13.75 39.1992 13.9199 39.4258 14.0449C39.6523 14.166 39.916 14.2266 40.2168 14.2266C40.5137 14.2266 40.7734 14.166 40.9961 14.0449C41.2227 13.9199 41.4102 13.75 41.5586 13.5352C41.707 13.3203 41.8184 13.0742 41.8926 12.7969C41.9707 12.5156 42.0098 12.2168 42.0098 11.9004V11.7656C42.0098 11.4531 41.9707 11.1582 41.8926 10.8809C41.8184 10.5996 41.7051 10.3516 41.5527 10.1367C41.4043 9.91797 41.2168 9.74609 40.9902 9.62109C40.7676 9.49609 40.5059 9.43359 40.2051 9.43359C39.9082 9.43359 39.6465 9.49609 39.4199 9.62109C39.1973 9.74609 39.0098 9.91797 38.8574 10.1367C38.709 10.3516 38.5977 10.5996 38.5234 10.8809C38.4492 11.1582 38.4121 11.4531 38.4121 11.7656ZM48.1504 13.3184C48.1504 13.1621 48.1152 13.0176 48.0449 12.8848C47.9785 12.748 47.8398 12.625 47.6289 12.5156C47.4219 12.4023 47.1094 12.3047 46.6914 12.2227C46.3398 12.1484 46.0215 12.0605 45.7363 11.959C45.4551 11.8574 45.2148 11.7344 45.0156 11.5898C44.8203 11.4453 44.6699 11.2754 44.5645 11.0801C44.459 10.8848 44.4062 10.6562 44.4062 10.3945C44.4062 10.1445 44.4609 9.9082 44.5703 9.68555C44.6836 9.46289 44.8418 9.26562 45.0449 9.09375C45.252 8.92188 45.5 8.78711 45.7891 8.68945C46.0781 8.5918 46.4004 8.54297 46.7559 8.54297C47.2637 8.54297 47.6973 8.63281 48.0566 8.8125C48.416 8.99219 48.6914 9.23242 48.8828 9.5332C49.0742 9.83008 49.1699 10.1602 49.1699 10.5234H48.0859C48.0859 10.3477 48.0332 10.1777 47.9277 10.0137C47.8262 9.8457 47.6758 9.70703 47.4766 9.59766C47.2812 9.48828 47.041 9.43359 46.7559 9.43359C46.4551 9.43359 46.2109 9.48047 46.0234 9.57422C45.8398 9.66406 45.7051 9.7793 45.6191 9.91992C45.5371 10.0605 45.4961 10.209 45.4961 10.3652C45.4961 10.4824 45.5156 10.5879 45.5547 10.6816C45.5977 10.7715 45.6719 10.8555 45.7773 10.9336C45.8828 11.0078 46.0312 11.0781 46.2227 11.1445C46.4141 11.2109 46.6582 11.2773 46.9551 11.3438C47.4746 11.4609 47.9023 11.6016 48.2383 11.7656C48.5742 11.9297 48.8242 12.1309 48.9883 12.3691C49.1523 12.6074 49.2344 12.8965 49.2344 13.2363C49.2344 13.5137 49.1758 13.7676 49.0586 13.998C48.9453 14.2285 48.7793 14.4277 48.5605 14.5957C48.3457 14.7598 48.0879 14.8887 47.7871 14.9824C47.4902 15.0723 47.1562 15.1172 46.7852 15.1172C46.2266 15.1172 45.7539 15.0176 45.3672 14.8184C44.9805 14.6191 44.6875 14.3613 44.4883 14.0449C44.2891 13.7285 44.1895 13.3945 44.1895 13.043H45.2793C45.2949 13.3398 45.3809 13.5762 45.5371 13.752C45.6934 13.9238 45.8848 14.0469 46.1113 14.1211C46.3379 14.1914 46.5625 14.2266 46.7852 14.2266C47.082 14.2266 47.3301 14.1875 47.5293 14.1094C47.7324 14.0312 47.8867 13.9238 47.9922 13.7871C48.0977 13.6504 48.1504 13.4941 48.1504 13.3184ZM53.3125 8.66016V9.49219H49.8848V8.66016H53.3125ZM51.0449 7.11914H52.1289V13.4297C52.1289 13.6445 52.1621 13.8066 52.2285 13.916C52.2949 14.0254 52.3809 14.0977 52.4863 14.1328C52.5918 14.168 52.7051 14.1855 52.8262 14.1855C52.916 14.1855 53.0098 14.1777 53.1074 14.1621C53.209 14.1426 53.2852 14.127 53.3359 14.1152L53.3418 15C53.2559 15.0273 53.1426 15.0527 53.002 15.0762C52.8652 15.1035 52.6992 15.1172 52.5039 15.1172C52.2383 15.1172 51.9941 15.0645 51.7715 14.959C51.5488 14.8535 51.3711 14.6777 51.2383 14.4316C51.1094 14.1816 51.0449 13.8457 51.0449 13.4238V7.11914Z" fill="white"/>
<defs>
<clipPath id="clip0_27_817">
<rect width="10" height="10" fill="white" transform="translate(8 6)"/>
</clipPath>
</defs>
</svg>
