<svg width="61" height="22" viewBox="0 0 61 22" fill="none" xmlns="http://www.w3.org/2000/svg">
<rect width="61" height="22" rx="11" fill="#1B932C"/>
<g clip-path="url(#clip0_7_80)">
<path fill-rule="evenodd" clip-rule="evenodd" d="M9.90262 14.6065C9.8683 14.5743 9.83435 14.5413 9.8008 14.5078C8.02962 12.7366 8.02962 9.86495 9.8008 8.09378C11.572 6.32259 17.2156 6.2041 17.2156 6.2041C17.2156 6.2041 17.986 12.7366 16.2148 14.5078C14.6418 16.0808 12.2007 16.2568 10.4335 15.0357L11.8575 13.2883L14.1338 12.7968L12.2756 12.611L13.4565 11.4086L14.8008 11.1142L13.7378 10.7994L14.8008 8.88189L13.2888 10.5777L12.705 9.75386L12.9105 11.1142L11.8575 12.3013L11.3693 10.7994V12.7968L9.90262 14.6065Z" fill="white"/>
</g>
<path d="M29.2949 10.752V13.875C29.1895 14.0312 29.0215 14.207 28.791 14.4023C28.5605 14.5938 28.2422 14.7617 27.8359 14.9062C27.4336 15.0469 26.9141 15.1172 26.2773 15.1172C25.7578 15.1172 25.2793 15.0273 24.8418 14.8477C24.4082 14.6641 24.0312 14.3984 23.7109 14.0508C23.3945 13.6992 23.1484 13.2734 22.9727 12.7734C22.8008 12.2695 22.7148 11.6992 22.7148 11.0625V10.4004C22.7148 9.76367 22.7891 9.19531 22.9375 8.69531C23.0898 8.19531 23.3125 7.77148 23.6055 7.42383C23.8984 7.07227 24.2578 6.80664 24.6836 6.62695C25.1094 6.44336 25.5977 6.35156 26.1484 6.35156C26.8008 6.35156 27.3457 6.46484 27.7832 6.69141C28.2246 6.91406 28.5684 7.22266 28.8145 7.61719C29.0645 8.01172 29.2246 8.46094 29.2949 8.96484H28.1641C28.1133 8.65625 28.0117 8.375 27.8594 8.12109C27.7109 7.86719 27.498 7.66406 27.2207 7.51172C26.9434 7.35547 26.5859 7.27734 26.1484 7.27734C25.7539 7.27734 25.4121 7.34961 25.123 7.49414C24.834 7.63867 24.5957 7.8457 24.4082 8.11523C24.2207 8.38477 24.0801 8.71094 23.9863 9.09375C23.8965 9.47656 23.8516 9.9082 23.8516 10.3887V11.0625C23.8516 11.5547 23.9082 11.9941 24.0215 12.3809C24.1387 12.7676 24.3047 13.0977 24.5195 13.3711C24.7344 13.6406 24.9902 13.8457 25.2871 13.9863C25.5879 14.127 25.9199 14.1973 26.2832 14.1973C26.6855 14.1973 27.0117 14.1641 27.2617 14.0977C27.5117 14.0273 27.707 13.9453 27.8477 13.8516C27.9883 13.7539 28.0957 13.6621 28.1699 13.5762V11.666H26.1953V10.752H29.2949ZM32.0898 9.65625V15H31.0059V8.66016H32.0605L32.0898 9.65625ZM34.0703 8.625L34.0645 9.63281C33.9746 9.61328 33.8887 9.60156 33.8066 9.59766C33.7285 9.58984 33.6387 9.58594 33.5371 9.58594C33.2871 9.58594 33.0664 9.625 32.875 9.70312C32.6836 9.78125 32.5215 9.89062 32.3887 10.0312C32.2559 10.1719 32.1504 10.3398 32.0723 10.5352C31.998 10.7266 31.9492 10.9375 31.9258 11.168L31.6211 11.3438C31.6211 10.9609 31.6582 10.6016 31.7324 10.2656C31.8105 9.92969 31.9297 9.63281 32.0898 9.375C32.25 9.11328 32.4531 8.91016 32.6992 8.76562C32.9492 8.61719 33.2461 8.54297 33.5898 8.54297C33.668 8.54297 33.7578 8.55273 33.8594 8.57227C33.9609 8.58789 34.0312 8.60547 34.0703 8.625ZM38.5762 13.916V10.6523C38.5762 10.4023 38.5254 10.1855 38.4238 10.002C38.3262 9.81445 38.1777 9.66992 37.9785 9.56836C37.7793 9.4668 37.5332 9.41602 37.2402 9.41602C36.9668 9.41602 36.7266 9.46289 36.5195 9.55664C36.3164 9.65039 36.1562 9.77344 36.0391 9.92578C35.9258 10.0781 35.8691 10.2422 35.8691 10.418H34.7852C34.7852 10.1914 34.8438 9.9668 34.9609 9.74414C35.0781 9.52148 35.2461 9.32031 35.4648 9.14062C35.6875 8.95703 35.9531 8.8125 36.2617 8.70703C36.5742 8.59766 36.9219 8.54297 37.3047 8.54297C37.7656 8.54297 38.1719 8.62109 38.5234 8.77734C38.8789 8.93359 39.1562 9.16992 39.3555 9.48633C39.5586 9.79883 39.6602 10.1914 39.6602 10.6641V13.6172C39.6602 13.8281 39.6777 14.0527 39.7129 14.291C39.752 14.5293 39.8086 14.7344 39.8828 14.9062V15H38.752C38.6973 14.875 38.6543 14.709 38.623 14.502C38.5918 14.291 38.5762 14.0957 38.5762 13.916ZM38.7637 11.1562L38.7754 11.918H37.6797C37.3711 11.918 37.0957 11.9434 36.8535 11.9941C36.6113 12.041 36.4082 12.1133 36.2441 12.2109C36.0801 12.3086 35.9551 12.4316 35.8691 12.5801C35.7832 12.7246 35.7402 12.8945 35.7402 13.0898C35.7402 13.2891 35.7852 13.4707 35.875 13.6348C35.9648 13.7988 36.0996 13.9297 36.2793 14.0273C36.4629 14.1211 36.6875 14.168 36.9531 14.168C37.2852 14.168 37.5781 14.0977 37.832 13.957C38.0859 13.8164 38.2871 13.6445 38.4355 13.4414C38.5879 13.2383 38.6699 13.041 38.6816 12.8496L39.1445 13.3711C39.1172 13.5352 39.043 13.7168 38.9219 13.916C38.8008 14.1152 38.6387 14.3066 38.4355 14.4902C38.2363 14.6699 37.998 14.8203 37.7207 14.9414C37.4473 15.0586 37.1387 15.1172 36.7949 15.1172C36.3652 15.1172 35.9883 15.0332 35.6641 14.8652C35.3438 14.6973 35.0938 14.4727 34.9141 14.1914C34.7383 13.9062 34.6504 13.5879 34.6504 13.2363C34.6504 12.8965 34.7168 12.5977 34.8496 12.3398C34.9824 12.0781 35.1738 11.8613 35.4238 11.6895C35.6738 11.5137 35.9746 11.3809 36.3262 11.291C36.6777 11.2012 37.0703 11.1562 37.5039 11.1562H38.7637ZM45.0566 13.3184C45.0566 13.1621 45.0215 13.0176 44.9512 12.8848C44.8848 12.748 44.7461 12.625 44.5352 12.5156C44.3281 12.4023 44.0156 12.3047 43.5977 12.2227C43.2461 12.1484 42.9277 12.0605 42.6426 11.959C42.3613 11.8574 42.1211 11.7344 41.9219 11.5898C41.7266 11.4453 41.5762 11.2754 41.4707 11.0801C41.3652 10.8848 41.3125 10.6562 41.3125 10.3945C41.3125 10.1445 41.3672 9.9082 41.4766 9.68555C41.5898 9.46289 41.748 9.26562 41.9512 9.09375C42.1582 8.92188 42.4062 8.78711 42.6953 8.68945C42.9844 8.5918 43.3066 8.54297 43.6621 8.54297C44.1699 8.54297 44.6035 8.63281 44.9629 8.8125C45.3223 8.99219 45.5977 9.23242 45.7891 9.5332C45.9805 9.83008 46.0762 10.1602 46.0762 10.5234H44.9922C44.9922 10.3477 44.9395 10.1777 44.834 10.0137C44.7324 9.8457 44.582 9.70703 44.3828 9.59766C44.1875 9.48828 43.9473 9.43359 43.6621 9.43359C43.3613 9.43359 43.1172 9.48047 42.9297 9.57422C42.7461 9.66406 42.6113 9.7793 42.5254 9.91992C42.4434 10.0605 42.4023 10.209 42.4023 10.3652C42.4023 10.4824 42.4219 10.5879 42.4609 10.6816C42.5039 10.7715 42.5781 10.8555 42.6836 10.9336C42.7891 11.0078 42.9375 11.0781 43.1289 11.1445C43.3203 11.2109 43.5645 11.2773 43.8613 11.3438C44.3809 11.4609 44.8086 11.6016 45.1445 11.7656C45.4805 11.9297 45.7305 12.1309 45.8945 12.3691C46.0586 12.6074 46.1406 12.8965 46.1406 13.2363C46.1406 13.5137 46.082 13.7676 45.9648 13.998C45.8516 14.2285 45.6855 14.4277 45.4668 14.5957C45.252 14.7598 44.9941 14.8887 44.6934 14.9824C44.3965 15.0723 44.0625 15.1172 43.6914 15.1172C43.1328 15.1172 42.6602 15.0176 42.2734 14.8184C41.8867 14.6191 41.5938 14.3613 41.3945 14.0449C41.1953 13.7285 41.0957 13.3945 41.0957 13.043H42.1855C42.2012 13.3398 42.2871 13.5762 42.4434 13.752C42.5996 13.9238 42.791 14.0469 43.0176 14.1211C43.2441 14.1914 43.4688 14.2266 43.6914 14.2266C43.9883 14.2266 44.2363 14.1875 44.4355 14.1094C44.6387 14.0312 44.793 13.9238 44.8984 13.7871C45.0039 13.6504 45.0566 13.4941 45.0566 13.3184ZM51.2559 13.3184C51.2559 13.1621 51.2207 13.0176 51.1504 12.8848C51.084 12.748 50.9453 12.625 50.7344 12.5156C50.5273 12.4023 50.2148 12.3047 49.7969 12.2227C49.4453 12.1484 49.127 12.0605 48.8418 11.959C48.5605 11.8574 48.3203 11.7344 48.1211 11.5898C47.9258 11.4453 47.7754 11.2754 47.6699 11.0801C47.5645 10.8848 47.5117 10.6562 47.5117 10.3945C47.5117 10.1445 47.5664 9.9082 47.6758 9.68555C47.7891 9.46289 47.9473 9.26562 48.1504 9.09375C48.3574 8.92188 48.6055 8.78711 48.8945 8.68945C49.1836 8.5918 49.5059 8.54297 49.8613 8.54297C50.3691 8.54297 50.8027 8.63281 51.1621 8.8125C51.5215 8.99219 51.7969 9.23242 51.9883 9.5332C52.1797 9.83008 52.2754 10.1602 52.2754 10.5234H51.1914C51.1914 10.3477 51.1387 10.1777 51.0332 10.0137C50.9316 9.8457 50.7812 9.70703 50.582 9.59766C50.3867 9.48828 50.1465 9.43359 49.8613 9.43359C49.5605 9.43359 49.3164 9.48047 49.1289 9.57422C48.9453 9.66406 48.8105 9.7793 48.7246 9.91992C48.6426 10.0605 48.6016 10.209 48.6016 10.3652C48.6016 10.4824 48.6211 10.5879 48.6602 10.6816C48.7031 10.7715 48.7773 10.8555 48.8828 10.9336C48.9883 11.0078 49.1367 11.0781 49.3281 11.1445C49.5195 11.2109 49.7637 11.2773 50.0605 11.3438C50.5801 11.4609 51.0078 11.6016 51.3438 11.7656C51.6797 11.9297 51.9297 12.1309 52.0938 12.3691C52.2578 12.6074 52.3398 12.8965 52.3398 13.2363C52.3398 13.5137 52.2812 13.7676 52.1641 13.998C52.0508 14.2285 51.8848 14.4277 51.666 14.5957C51.4512 14.7598 51.1934 14.8887 50.8926 14.9824C50.5957 15.0723 50.2617 15.1172 49.8906 15.1172C49.332 15.1172 48.8594 15.0176 48.4727 14.8184C48.0859 14.6191 47.793 14.3613 47.5938 14.0449C47.3945 13.7285 47.2949 13.3945 47.2949 13.043H48.3848C48.4004 13.3398 48.4863 13.5762 48.6426 13.752C48.7988 13.9238 48.9902 14.0469 49.2168 14.1211C49.4434 14.1914 49.668 14.2266 49.8906 14.2266C50.1875 14.2266 50.4355 14.1875 50.6348 14.1094C50.8379 14.0312 50.9922 13.9238 51.0977 13.7871C51.2031 13.6504 51.2559 13.4941 51.2559 13.3184Z" fill="white"/>
<defs>
<clipPath id="clip0_7_80">
<rect width="10" height="10" fill="white" transform="translate(8 6)"/>
</clipPath>
</defs>
</svg>
