<svg width="69" height="22" viewBox="0 0 69 22" fill="none" xmlns="http://www.w3.org/2000/svg">
<rect width="69" height="22" rx="11" fill="#673E2C"/>
<g clip-path="url(#clip0_21_393)">
<path fill-rule="evenodd" clip-rule="evenodd" d="M10.2024 14.5889C10.1997 14.5889 10.1978 14.5863 10.1987 14.5837L12.7517 7.3698C12.7523 7.36824 12.7538 7.36719 12.7554 7.36719H15.4809C15.4825 7.36719 15.484 7.36824 15.4846 7.36982L17.9997 14.5837C18.0006 14.5863 17.9987 14.5889 17.996 14.5889H10.2791H10.2024ZM8.00393 14.6172C8.00119 14.6172 7.99929 14.6144 8.00025 14.6119L9.90142 9.53625C9.90199 9.53471 9.90346 9.53369 9.9051 9.53369H11.557C11.5597 9.53369 11.5616 9.53641 11.5607 9.53896L9.72231 14.6146C9.72175 14.6161 9.72027 14.6172 9.71862 14.6172H8.00393Z" fill="white"/>
</g>
<path d="M29.2949 10.752V13.875C29.1895 14.0312 29.0215 14.207 28.791 14.4023C28.5605 14.5938 28.2422 14.7617 27.8359 14.9062C27.4336 15.0469 26.9141 15.1172 26.2773 15.1172C25.7578 15.1172 25.2793 15.0273 24.8418 14.8477C24.4082 14.6641 24.0312 14.3984 23.7109 14.0508C23.3945 13.6992 23.1484 13.2734 22.9727 12.7734C22.8008 12.2695 22.7148 11.6992 22.7148 11.0625V10.4004C22.7148 9.76367 22.7891 9.19531 22.9375 8.69531C23.0898 8.19531 23.3125 7.77148 23.6055 7.42383C23.8984 7.07227 24.2578 6.80664 24.6836 6.62695C25.1094 6.44336 25.5977 6.35156 26.1484 6.35156C26.8008 6.35156 27.3457 6.46484 27.7832 6.69141C28.2246 6.91406 28.5684 7.22266 28.8145 7.61719C29.0645 8.01172 29.2246 8.46094 29.2949 8.96484H28.1641C28.1133 8.65625 28.0117 8.375 27.8594 8.12109C27.7109 7.86719 27.498 7.66406 27.2207 7.51172C26.9434 7.35547 26.5859 7.27734 26.1484 7.27734C25.7539 7.27734 25.4121 7.34961 25.123 7.49414C24.834 7.63867 24.5957 7.8457 24.4082 8.11523C24.2207 8.38477 24.0801 8.71094 23.9863 9.09375C23.8965 9.47656 23.8516 9.9082 23.8516 10.3887V11.0625C23.8516 11.5547 23.9082 11.9941 24.0215 12.3809C24.1387 12.7676 24.3047 13.0977 24.5195 13.3711C24.7344 13.6406 24.9902 13.8457 25.2871 13.9863C25.5879 14.127 25.9199 14.1973 26.2832 14.1973C26.6855 14.1973 27.0117 14.1641 27.2617 14.0977C27.5117 14.0273 27.707 13.9453 27.8477 13.8516C27.9883 13.7539 28.0957 13.6621 28.1699 13.5762V11.666H26.1953V10.752H29.2949ZM32.0898 9.65625V15H31.0059V8.66016H32.0605L32.0898 9.65625ZM34.0703 8.625L34.0645 9.63281C33.9746 9.61328 33.8887 9.60156 33.8066 9.59766C33.7285 9.58984 33.6387 9.58594 33.5371 9.58594C33.2871 9.58594 33.0664 9.625 32.875 9.70312C32.6836 9.78125 32.5215 9.89062 32.3887 10.0312C32.2559 10.1719 32.1504 10.3398 32.0723 10.5352C31.998 10.7266 31.9492 10.9375 31.9258 11.168L31.6211 11.3438C31.6211 10.9609 31.6582 10.6016 31.7324 10.2656C31.8105 9.92969 31.9297 9.63281 32.0898 9.375C32.25 9.11328 32.4531 8.91016 32.6992 8.76562C32.9492 8.61719 33.2461 8.54297 33.5898 8.54297C33.668 8.54297 33.7578 8.55273 33.8594 8.57227C33.9609 8.58789 34.0312 8.60547 34.0703 8.625ZM34.668 11.9004V11.7656C34.668 11.3086 34.7344 10.8848 34.8672 10.4941C35 10.0996 35.1914 9.75781 35.4414 9.46875C35.6914 9.17578 35.9941 8.94922 36.3496 8.78906C36.7051 8.625 37.1035 8.54297 37.5449 8.54297C37.9902 8.54297 38.3906 8.625 38.7461 8.78906C39.1055 8.94922 39.4102 9.17578 39.6602 9.46875C39.9141 9.75781 40.1074 10.0996 40.2402 10.4941C40.373 10.8848 40.4395 11.3086 40.4395 11.7656V11.9004C40.4395 12.3574 40.373 12.7812 40.2402 13.1719C40.1074 13.5625 39.9141 13.9043 39.6602 14.1973C39.4102 14.4863 39.1074 14.7129 38.752 14.877C38.4004 15.0371 38.002 15.1172 37.5566 15.1172C37.1113 15.1172 36.7109 15.0371 36.3555 14.877C36 14.7129 35.6953 14.4863 35.4414 14.1973C35.1914 13.9043 35 13.5625 34.8672 13.1719C34.7344 12.7812 34.668 12.3574 34.668 11.9004ZM35.752 11.7656V11.9004C35.752 12.2168 35.7891 12.5156 35.8633 12.7969C35.9375 13.0742 36.0488 13.3203 36.1973 13.5352C36.3496 13.75 36.5391 13.9199 36.7656 14.0449C36.9922 14.166 37.2559 14.2266 37.5566 14.2266C37.8535 14.2266 38.1133 14.166 38.3359 14.0449C38.5625 13.9199 38.75 13.75 38.8984 13.5352C39.0469 13.3203 39.1582 13.0742 39.2324 12.7969C39.3105 12.5156 39.3496 12.2168 39.3496 11.9004V11.7656C39.3496 11.4531 39.3105 11.1582 39.2324 10.8809C39.1582 10.5996 39.0449 10.3516 38.8926 10.1367C38.7441 9.91797 38.5566 9.74609 38.3301 9.62109C38.1074 9.49609 37.8457 9.43359 37.5449 9.43359C37.248 9.43359 36.9863 9.49609 36.7598 9.62109C36.5371 9.74609 36.3496 9.91797 36.1973 10.1367C36.0488 10.3516 35.9375 10.5996 35.8633 10.8809C35.7891 11.1582 35.752 11.4531 35.752 11.7656ZM45.6777 13.5352V8.66016H46.7676V15H45.7305L45.6777 13.5352ZM45.8828 12.1992L46.334 12.1875C46.334 12.6094 46.2891 13 46.1992 13.3594C46.1133 13.7148 45.9727 14.0234 45.7773 14.2852C45.582 14.5469 45.3262 14.752 45.0098 14.9004C44.6934 15.0449 44.3086 15.1172 43.8555 15.1172C43.5469 15.1172 43.2637 15.0723 43.0059 14.9824C42.752 14.8926 42.5332 14.7539 42.3496 14.5664C42.166 14.3789 42.0234 14.1348 41.9219 13.834C41.8242 13.5332 41.7754 13.1719 41.7754 12.75V8.66016H42.8594V12.7617C42.8594 13.0469 42.8906 13.2832 42.9531 13.4707C43.0195 13.6543 43.1074 13.8008 43.2168 13.9102C43.3301 14.0156 43.4551 14.0898 43.5918 14.1328C43.7324 14.1758 43.877 14.1973 44.0254 14.1973C44.4863 14.1973 44.8516 14.1094 45.1211 13.9336C45.3906 13.7539 45.584 13.5137 45.7012 13.2129C45.8223 12.9082 45.8828 12.5703 45.8828 12.1992ZM49.5039 10.0137V15H48.4199V8.66016H49.4453L49.5039 10.0137ZM49.2461 11.5898L48.7949 11.5723C48.7988 11.1387 48.8633 10.7383 48.9883 10.3711C49.1133 10 49.2891 9.67773 49.5156 9.4043C49.7422 9.13086 50.0117 8.91992 50.3242 8.77148C50.6406 8.61914 50.9902 8.54297 51.373 8.54297C51.6855 8.54297 51.9668 8.58594 52.2168 8.67188C52.4668 8.75391 52.6797 8.88672 52.8555 9.07031C53.0352 9.25391 53.1719 9.49219 53.2656 9.78516C53.3594 10.0742 53.4062 10.4277 53.4062 10.8457V15H52.3164V10.834C52.3164 10.502 52.2676 10.2363 52.1699 10.0371C52.0723 9.83398 51.9297 9.6875 51.7422 9.59766C51.5547 9.50391 51.3242 9.45703 51.0508 9.45703C50.7812 9.45703 50.5352 9.51367 50.3125 9.62695C50.0938 9.74023 49.9043 9.89648 49.7441 10.0957C49.5879 10.2949 49.4648 10.5234 49.375 10.7812C49.2891 11.0352 49.2461 11.3047 49.2461 11.5898ZM59.0488 13.7695V6H60.1387V15H59.1426L59.0488 13.7695ZM54.7832 11.9004V11.7773C54.7832 11.293 54.8418 10.8535 54.959 10.459C55.0801 10.0605 55.25 9.71875 55.4688 9.43359C55.6914 9.14844 55.9551 8.92969 56.2598 8.77734C56.5684 8.62109 56.9121 8.54297 57.291 8.54297C57.6895 8.54297 58.0371 8.61328 58.334 8.75391C58.6348 8.89062 58.8887 9.0918 59.0957 9.35742C59.3066 9.61914 59.4727 9.93555 59.5938 10.3066C59.7148 10.6777 59.7988 11.0977 59.8457 11.5664V12.1055C59.8027 12.5703 59.7188 12.9883 59.5938 13.3594C59.4727 13.7305 59.3066 14.0469 59.0957 14.3086C58.8887 14.5703 58.6348 14.7715 58.334 14.9121C58.0332 15.0488 57.6816 15.1172 57.2793 15.1172C56.9082 15.1172 56.5684 15.0371 56.2598 14.877C55.9551 14.7168 55.6914 14.4922 55.4688 14.2031C55.25 13.9141 55.0801 13.5742 54.959 13.1836C54.8418 12.7891 54.7832 12.3613 54.7832 11.9004ZM55.873 11.7773V11.9004C55.873 12.2168 55.9043 12.5137 55.9668 12.791C56.0332 13.0684 56.1348 13.3125 56.2715 13.5234C56.4082 13.7344 56.582 13.9004 56.793 14.0215C57.0039 14.1387 57.2559 14.1973 57.5488 14.1973C57.9082 14.1973 58.2031 14.1211 58.4336 13.9688C58.668 13.8164 58.8555 13.6152 58.9961 13.3652C59.1367 13.1152 59.2461 12.8438 59.3242 12.5508V11.1387C59.2773 10.9238 59.209 10.7168 59.1191 10.5176C59.0332 10.3145 58.9199 10.1348 58.7793 9.97852C58.6426 9.81836 58.4727 9.69141 58.2695 9.59766C58.0703 9.50391 57.834 9.45703 57.5605 9.45703C57.2637 9.45703 57.0078 9.51953 56.793 9.64453C56.582 9.76562 56.4082 9.93359 56.2715 10.1484C56.1348 10.3594 56.0332 10.6055 55.9668 10.8867C55.9043 11.1641 55.873 11.4609 55.873 11.7773Z" fill="white"/>
<defs>
<clipPath id="clip0_21_393">
<rect width="10" height="10" fill="white" transform="translate(8 6)"/>
</clipPath>
</defs>
</svg>
