<svg width="56" height="74" viewBox="0 0 56 74" fill="none" xmlns="http://www.w3.org/2000/svg">
<path d="M17 24.4L28 16L39 24.4V37.6C39 38.2365 38.7425 38.847 38.284 39.2971C37.8256 39.7471 37.2039 40 36.5556 40H19.4444C18.7961 40 18.1744 39.7471 17.716 39.2971C17.2575 38.847 17 38.2365 17 37.6V24.4Z" stroke="#F10A34" stroke-width="2" stroke-linecap="round" stroke-linejoin="round"/>
<path d="M27 39V33H29V39" stroke="#F10A34" stroke-width="2" stroke-linecap="round" stroke-linejoin="round"/>
<path d="M18.4277 65.9023V67.3789H14.0098V65.9023H18.4277ZM14.6133 62.4688V71H12.7031V62.4688H14.6133ZM19.7461 62.4688V71H17.8418V62.4688H19.7461ZM20.8066 67.8945V67.7715C20.8066 67.3066 20.873 66.8789 21.0059 66.4883C21.1387 66.0938 21.334 65.752 21.5918 65.4629C21.8496 65.1738 22.166 64.9492 22.541 64.7891C22.916 64.625 23.3457 64.543 23.8301 64.543C24.3223 64.543 24.7559 64.625 25.1309 64.7891C25.5098 64.9492 25.8281 65.1738 26.0859 65.4629C26.3438 65.752 26.5391 66.0938 26.6719 66.4883C26.8047 66.8789 26.8711 67.3066 26.8711 67.7715V67.8945C26.8711 68.3555 26.8047 68.7832 26.6719 69.1777C26.5391 69.5684 26.3438 69.9102 26.0859 70.2031C25.8281 70.4922 25.5117 70.7168 25.1367 70.877C24.7617 71.0371 24.3301 71.1172 23.8418 71.1172C23.3574 71.1172 22.9258 71.0371 22.5469 70.877C22.168 70.7168 21.8496 70.4922 21.5918 70.2031C21.334 69.9102 21.1387 69.5684 21.0059 69.1777C20.873 68.7832 20.8066 68.3555 20.8066 67.8945ZM22.6406 67.7715V67.8945C22.6406 68.1445 22.6602 68.3789 22.6992 68.5977C22.7422 68.8164 22.8105 69.0078 22.9043 69.1719C22.998 69.3359 23.1211 69.4648 23.2734 69.5586C23.4297 69.6484 23.6191 69.6934 23.8418 69.6934C24.0645 69.6934 24.252 69.6484 24.4043 69.5586C24.5566 69.4648 24.6797 69.3359 24.7734 69.1719C24.8672 69.0078 24.9336 68.8164 24.9727 68.5977C25.0156 68.3789 25.0371 68.1445 25.0371 67.8945V67.7715C25.0371 67.5254 25.0156 67.2949 24.9727 67.0801C24.9336 66.8613 24.8672 66.668 24.7734 66.5C24.6797 66.332 24.5547 66.2012 24.3984 66.1074C24.2461 66.0137 24.0566 65.9668 23.8301 65.9668C23.6113 65.9668 23.4258 66.0137 23.2734 66.1074C23.1211 66.2012 22.998 66.332 22.9043 66.5C22.8105 66.668 22.7422 66.8613 22.6992 67.0801C22.6602 67.2949 22.6406 67.5254 22.6406 67.7715ZM29.666 65.9902V71H27.8379V64.6602H29.5547L29.666 65.9902ZM29.4316 67.6074L28.9688 67.6191C28.9688 67.1738 29.0215 66.7656 29.127 66.3945C29.2363 66.0195 29.3945 65.6934 29.6016 65.416C29.8086 65.1387 30.0645 64.9238 30.3691 64.7715C30.6777 64.6191 31.0332 64.543 31.4355 64.543C31.7168 64.543 31.9727 64.5859 32.2031 64.6719C32.4336 64.7539 32.6309 64.8848 32.7949 65.0645C32.9629 65.2402 33.0918 65.4707 33.1816 65.7559C33.2715 66.0371 33.3164 66.375 33.3164 66.7695V71H31.4883V66.9922C31.4883 66.7109 31.4531 66.498 31.3828 66.3535C31.3164 66.2051 31.2188 66.1035 31.0898 66.0488C30.9609 65.9941 30.8066 65.9668 30.627 65.9668C30.4316 65.9668 30.2578 66.0098 30.1055 66.0957C29.957 66.1777 29.832 66.293 29.7305 66.4414C29.6289 66.5898 29.5527 66.7637 29.502 66.9629C29.4551 67.1621 29.4316 67.377 29.4316 67.6074ZM33.1289 67.5137L32.5488 67.5605C32.5488 67.1309 32.5996 66.7324 32.7012 66.3652C32.8027 65.998 32.9551 65.6797 33.1582 65.4102C33.3613 65.1367 33.6133 64.9238 33.9141 64.7715C34.2188 64.6191 34.5723 64.543 34.9746 64.543C35.2715 64.543 35.541 64.5859 35.7832 64.6719C36.0293 64.7578 36.2402 64.8965 36.416 65.0879C36.5957 65.2793 36.7344 65.5312 36.832 65.8438C36.9297 66.1523 36.9785 66.5312 36.9785 66.9805V71H35.1387V66.9805C35.1387 66.7031 35.1035 66.4922 35.0332 66.3477C34.9668 66.2031 34.8691 66.1035 34.7402 66.0488C34.6152 65.9941 34.4648 65.9668 34.2891 65.9668C34.0938 65.9668 33.9238 66.0078 33.7793 66.0898C33.6348 66.168 33.5137 66.2773 33.416 66.418C33.3184 66.5547 33.2461 66.7168 33.1992 66.9043C33.1523 67.0918 33.1289 67.2949 33.1289 67.5137ZM41.1914 71.1172C40.6875 71.1172 40.2363 71.0371 39.8379 70.877C39.4395 70.7168 39.1016 70.4961 38.8242 70.2148C38.5508 69.9297 38.3418 69.6016 38.1973 69.2305C38.0527 68.8594 37.9805 68.4629 37.9805 68.041V67.8184C37.9805 67.3457 38.0469 66.9102 38.1797 66.5117C38.3125 66.1133 38.5059 65.7676 38.7598 65.4746C39.0176 65.1777 39.334 64.9492 39.709 64.7891C40.084 64.625 40.5117 64.543 40.9922 64.543C41.4414 64.543 41.8418 64.6172 42.1934 64.7656C42.5449 64.9102 42.8418 65.1191 43.084 65.3926C43.3262 65.6621 43.5098 65.9883 43.6348 66.3711C43.7637 66.75 43.8281 67.1758 43.8281 67.6484V68.3984H38.7188V67.2207H42.0352V67.0801C42.0352 66.8574 41.9941 66.6621 41.9121 66.4941C41.834 66.3262 41.7168 66.1973 41.5605 66.1074C41.4082 66.0137 41.2148 65.9668 40.9805 65.9668C40.7578 65.9668 40.5723 66.0137 40.4238 66.1074C40.2754 66.2012 40.1562 66.334 40.0664 66.5059C39.9805 66.6738 39.918 66.8711 39.8789 67.0977C39.8398 67.3203 39.8203 67.5605 39.8203 67.8184V68.041C39.8203 68.2871 39.8535 68.5117 39.9199 68.7148C39.9863 68.918 40.084 69.0918 40.2129 69.2363C40.3418 69.3809 40.498 69.4941 40.6816 69.5762C40.8652 69.6582 41.0742 69.6992 41.3086 69.6992C41.5977 69.6992 41.873 69.6445 42.1348 69.5352C42.3965 69.4219 42.623 69.2461 42.8145 69.0078L43.6699 69.9863C43.541 70.1738 43.3594 70.3555 43.125 70.5312C42.8945 70.7031 42.6172 70.8438 42.293 70.9531C41.9688 71.0625 41.6016 71.1172 41.1914 71.1172Z" fill="#F10A34"/>
</svg>
