<svg width="56" height="74" viewBox="0 0 56 74" fill="none" xmlns="http://www.w3.org/2000/svg">
<path d="M17 24.4L28 16L39 24.4V37.6C39 38.2365 38.7425 38.847 38.284 39.2971C37.8256 39.7471 37.2039 40 36.5556 40H19.4444C18.7961 40 18.1744 39.7471 17.716 39.2971C17.2575 38.847 17 38.2365 17 37.6V24.4Z" stroke="#555252" stroke-width="2" stroke-linecap="round" stroke-linejoin="round"/>
<path d="M27 39V33H29V39" stroke="#555252" stroke-width="2" stroke-linecap="round" stroke-linejoin="round"/>
<path d="M18.5039 66.0312V67.1973H13.9746V66.0312H18.5039ZM14.3379 62.4688V71H12.8672V62.4688H14.3379ZM19.6348 62.4688V71H18.1699V62.4688H19.6348ZM20.9766 67.9004V67.7656C20.9766 67.3086 21.043 66.8848 21.1758 66.4941C21.3086 66.0996 21.5 65.7578 21.75 65.4688C22.0039 65.1758 22.3125 64.9492 22.6758 64.7891C23.043 64.625 23.457 64.543 23.918 64.543C24.3828 64.543 24.7969 64.625 25.1602 64.7891C25.5273 64.9492 25.8379 65.1758 26.0918 65.4688C26.3457 65.7578 26.5391 66.0996 26.6719 66.4941C26.8047 66.8848 26.8711 67.3086 26.8711 67.7656V67.9004C26.8711 68.3574 26.8047 68.7812 26.6719 69.1719C26.5391 69.5625 26.3457 69.9043 26.0918 70.1973C25.8379 70.4863 25.5293 70.7129 25.166 70.877C24.8027 71.0371 24.3906 71.1172 23.9297 71.1172C23.4648 71.1172 23.0488 71.0371 22.6816 70.877C22.3184 70.7129 22.0098 70.4863 21.7559 70.1973C21.502 69.9043 21.3086 69.5625 21.1758 69.1719C21.043 68.7812 20.9766 68.3574 20.9766 67.9004ZM22.3887 67.7656V67.9004C22.3887 68.1855 22.418 68.4551 22.4766 68.709C22.5352 68.9629 22.627 69.1855 22.752 69.377C22.877 69.5684 23.0371 69.7188 23.2324 69.8281C23.4277 69.9375 23.6602 69.9922 23.9297 69.9922C24.1914 69.9922 24.418 69.9375 24.6094 69.8281C24.8047 69.7188 24.9648 69.5684 25.0898 69.377C25.2148 69.1855 25.3066 68.9629 25.3652 68.709C25.4277 68.4551 25.459 68.1855 25.459 67.9004V67.7656C25.459 67.4844 25.4277 67.2188 25.3652 66.9688C25.3066 66.7148 25.2129 66.4902 25.084 66.2949C24.959 66.0996 24.7988 65.9473 24.6035 65.8379C24.4121 65.7246 24.1836 65.668 23.918 65.668C23.6523 65.668 23.4219 65.7246 23.2266 65.8379C23.0352 65.9473 22.877 66.0996 22.752 66.2949C22.627 66.4902 22.5352 66.7148 22.4766 66.9688C22.418 67.2188 22.3887 67.4844 22.3887 67.7656ZM29.4668 65.9492V71H28.0547V64.6602H29.3848L29.4668 65.9492ZM29.2383 67.5957L28.7578 67.5898C28.7578 67.1523 28.8125 66.748 28.9219 66.377C29.0312 66.0059 29.1914 65.6836 29.4023 65.4102C29.6133 65.1328 29.875 64.9199 30.1875 64.7715C30.5039 64.6191 30.8691 64.543 31.2832 64.543C31.5723 64.543 31.8359 64.5859 32.0742 64.6719C32.3164 64.7539 32.5254 64.8848 32.7012 65.0645C32.8809 65.2441 33.0176 65.4746 33.1113 65.7559C33.209 66.0371 33.2578 66.377 33.2578 66.7754V71H31.8457V66.8984C31.8457 66.5898 31.7988 66.3477 31.7051 66.1719C31.6152 65.9961 31.4844 65.8711 31.3125 65.7969C31.1445 65.7188 30.9434 65.6797 30.709 65.6797C30.4434 65.6797 30.2168 65.7305 30.0293 65.832C29.8457 65.9336 29.6953 66.0723 29.5781 66.248C29.4609 66.4238 29.375 66.627 29.3203 66.8574C29.2656 67.0879 29.2383 67.334 29.2383 67.5957ZM33.1699 67.2207L32.5078 67.3672C32.5078 66.9844 32.5605 66.623 32.666 66.2832C32.7754 65.9395 32.9336 65.6387 33.1406 65.3809C33.3516 65.1191 33.6113 64.9141 33.9199 64.7656C34.2285 64.6172 34.582 64.543 34.9805 64.543C35.3047 64.543 35.5938 64.5879 35.8477 64.6777C36.1055 64.7637 36.3242 64.9004 36.5039 65.0879C36.6836 65.2754 36.8203 65.5195 36.9141 65.8203C37.0078 66.1172 37.0547 66.4766 37.0547 66.8984V71H35.6367V66.8926C35.6367 66.5723 35.5898 66.3242 35.4961 66.1484C35.4062 65.9727 35.2773 65.8516 35.1094 65.7852C34.9414 65.7148 34.7402 65.6797 34.5059 65.6797C34.2871 65.6797 34.0938 65.7207 33.9258 65.8027C33.7617 65.8809 33.623 65.9922 33.5098 66.1367C33.3965 66.2773 33.3105 66.4395 33.252 66.623C33.1973 66.8066 33.1699 67.0059 33.1699 67.2207ZM41.3027 71.1172C40.834 71.1172 40.4102 71.041 40.0312 70.8887C39.6562 70.7324 39.3359 70.5156 39.0703 70.2383C38.8086 69.9609 38.6074 69.6348 38.4668 69.2598C38.3262 68.8848 38.2559 68.4805 38.2559 68.0469V67.8125C38.2559 67.3164 38.3281 66.8672 38.4727 66.4648C38.6172 66.0625 38.8184 65.7188 39.0762 65.4336C39.334 65.1445 39.6387 64.9238 39.9902 64.7715C40.3418 64.6191 40.7227 64.543 41.1328 64.543C41.5859 64.543 41.9824 64.6191 42.3223 64.7715C42.6621 64.9238 42.9434 65.1387 43.166 65.416C43.3926 65.6895 43.5605 66.0156 43.6699 66.3945C43.7832 66.7734 43.8398 67.1914 43.8398 67.6484V68.252H38.9414V67.2383H42.4453V67.127C42.4375 66.873 42.3867 66.6348 42.293 66.4121C42.2031 66.1895 42.0645 66.0098 41.877 65.873C41.6895 65.7363 41.4395 65.668 41.127 65.668C40.8926 65.668 40.6836 65.7188 40.5 65.8203C40.3203 65.918 40.1699 66.0605 40.0488 66.248C39.9277 66.4355 39.834 66.6621 39.7676 66.9277C39.7051 67.1895 39.6738 67.4844 39.6738 67.8125V68.0469C39.6738 68.3242 39.7109 68.582 39.7852 68.8203C39.8633 69.0547 39.9766 69.2598 40.125 69.4355C40.2734 69.6113 40.4531 69.75 40.6641 69.8516C40.875 69.9492 41.1152 69.998 41.3848 69.998C41.7246 69.998 42.0273 69.9297 42.293 69.793C42.5586 69.6562 42.7891 69.4629 42.9844 69.2129L43.7285 69.9336C43.5918 70.1328 43.4141 70.3242 43.1953 70.5078C42.9766 70.6875 42.709 70.834 42.3926 70.9473C42.0801 71.0605 41.7168 71.1172 41.3027 71.1172Z" fill="#555252"/>
</svg>
