<svg width="98" height="28" viewBox="0 0 98 28" fill="none" xmlns="http://www.w3.org/2000/svg">
<path d="M45.9492 11.9805V14.5117H36.9727V11.9805H45.9492ZM37.8516 4.9375V22H34.6289V4.9375H37.8516ZM48.3398 4.9375V22H45.1172V4.9375H48.3398ZM50.8359 15.7891V15.543C50.8359 14.6133 50.9688 13.7578 51.2344 12.9766C51.5 12.1875 51.8867 11.5039 52.3945 10.9258C52.9023 10.3477 53.5234 9.89844 54.2578 9.57812C54.9922 9.25 55.8281 9.08594 56.7656 9.08594C57.7188 9.08594 58.5625 9.25 59.2969 9.57812C60.0391 9.89844 60.6641 10.3477 61.1719 10.9258C61.6797 11.5039 62.0664 12.1875 62.332 12.9766C62.5977 13.7578 62.7305 14.6133 62.7305 15.543V15.7891C62.7305 16.7109 62.5977 17.5664 62.332 18.3555C62.0664 19.1367 61.6797 19.8203 61.1719 20.4062C60.6641 20.9844 60.043 21.4336 59.3086 21.7539C58.5742 22.0742 57.7344 22.2344 56.7891 22.2344C55.8516 22.2344 55.0117 22.0742 54.2695 21.7539C53.5273 21.4336 52.9023 20.9844 52.3945 20.4062C51.8867 19.8203 51.5 19.1367 51.2344 18.3555C50.9688 17.5664 50.8359 16.7109 50.8359 15.7891ZM53.9297 15.543V15.7891C53.9297 16.3438 53.9844 16.8633 54.0938 17.3477C54.2031 17.832 54.3711 18.2578 54.5977 18.625C54.8242 18.9922 55.1172 19.2812 55.4766 19.4922C55.8438 19.6953 56.2812 19.7969 56.7891 19.7969C57.2891 19.7969 57.7188 19.6953 58.0781 19.4922C58.4375 19.2812 58.7305 18.9922 58.957 18.625C59.1914 18.2578 59.3633 17.832 59.4727 17.3477C59.582 16.8633 59.6367 16.3438 59.6367 15.7891V15.543C59.6367 14.9961 59.582 14.4844 59.4727 14.0078C59.3633 13.5234 59.1914 13.0977 58.957 12.7305C58.7305 12.3555 58.4336 12.0625 58.0664 11.8516C57.707 11.6328 57.2734 11.5234 56.7656 11.5234C56.2656 11.5234 55.8359 11.6328 55.4766 11.8516C55.1172 12.0625 54.8242 12.3555 54.5977 12.7305C54.3711 13.0977 54.2031 13.5234 54.0938 14.0078C53.9844 14.4844 53.9297 14.9961 53.9297 15.543ZM68.0625 11.9219V22H64.9688V9.32031H67.8867L68.0625 11.9219ZM67.6055 15.2031H66.6562C66.6562 14.3203 66.7617 13.5078 66.9727 12.7656C67.1914 12.0234 67.5117 11.3789 67.9336 10.832C68.3555 10.2773 68.875 9.84766 69.4922 9.54297C70.1172 9.23828 70.8398 9.08594 71.6602 9.08594C72.2305 9.08594 72.7539 9.17188 73.2305 9.34375C73.707 9.50781 74.1172 9.76953 74.4609 10.1289C74.8125 10.4805 75.082 10.9414 75.2695 11.5117C75.457 12.0742 75.5508 12.75 75.5508 13.5391V22H72.457V13.8555C72.457 13.2617 72.3711 12.7969 72.1992 12.4609C72.0352 12.125 71.7969 11.8906 71.4844 11.7578C71.1719 11.6172 70.7969 11.5469 70.3594 11.5469C69.875 11.5469 69.457 11.6445 69.1055 11.8398C68.7617 12.0273 68.4766 12.2891 68.25 12.625C68.0312 12.9609 67.8672 13.3477 67.7578 13.7852C67.6562 14.2227 67.6055 14.6953 67.6055 15.2031ZM75.3164 14.6289L74.0391 14.8633C74.0469 14.0664 74.1562 13.3203 74.3672 12.625C74.5781 11.9219 74.8867 11.3086 75.293 10.7852C75.707 10.2539 76.2188 9.83984 76.8281 9.54297C77.4453 9.23828 78.1562 9.08594 78.9609 9.08594C79.5859 9.08594 80.1484 9.17578 80.6484 9.35547C81.1562 9.52734 81.5898 9.80469 81.9492 10.1875C82.3086 10.5625 82.582 11.0508 82.7695 11.6523C82.9648 12.2539 83.0625 12.9883 83.0625 13.8555V22H79.9453V13.8438C79.9453 13.2266 79.8594 12.7539 79.6875 12.4258C79.5234 12.0977 79.2852 11.8711 78.9727 11.7461C78.6602 11.6133 78.293 11.5469 77.8711 11.5469C77.4414 11.5469 77.0664 11.6289 76.7461 11.793C76.4336 11.9492 76.168 12.168 75.9492 12.4492C75.7383 12.7305 75.5781 13.0586 75.4688 13.4336C75.3672 13.8008 75.3164 14.1992 75.3164 14.6289ZM91.5352 22.2344C90.5742 22.2344 89.7109 22.0781 88.9453 21.7656C88.1797 21.4531 87.5273 21.0195 86.9883 20.4648C86.457 19.9023 86.0469 19.25 85.7578 18.5078C85.4766 17.7578 85.3359 16.9531 85.3359 16.0938V15.625C85.3359 14.6484 85.4766 13.7617 85.7578 12.9648C86.0391 12.1602 86.4375 11.4688 86.9531 10.8906C87.4688 10.3125 88.0859 9.86719 88.8047 9.55469C89.5234 9.24219 90.3164 9.08594 91.1836 9.08594C92.082 9.08594 92.875 9.23828 93.5625 9.54297C94.25 9.83984 94.8242 10.2617 95.2852 10.8086C95.7461 11.3555 96.0938 12.0117 96.3281 12.7773C96.5625 13.5352 96.6797 14.375 96.6797 15.2969V16.5977H86.7422V14.4648H93.6328V14.2305C93.6172 13.7383 93.5234 13.2891 93.3516 12.8828C93.1797 12.4688 92.9141 12.1406 92.5547 11.8984C92.1953 11.6484 91.7305 11.5234 91.1602 11.5234C90.6992 11.5234 90.2969 11.625 89.9531 11.8281C89.6172 12.0234 89.3359 12.3047 89.1094 12.6719C88.8906 13.0312 88.7266 13.4609 88.6172 13.9609C88.5078 14.4609 88.4531 15.0156 88.4531 15.625V16.0938C88.4531 16.625 88.5234 17.1172 88.6641 17.5703C88.8125 18.0234 89.0273 18.418 89.3086 18.7539C89.5977 19.082 89.9414 19.3398 90.3398 19.5273C90.7461 19.707 91.207 19.7969 91.7227 19.7969C92.3711 19.7969 92.957 19.6719 93.4805 19.4219C94.0117 19.1641 94.4727 18.7852 94.8633 18.2852L96.4219 19.9023C96.1562 20.293 95.7969 20.668 95.3438 21.0273C94.8984 21.3867 94.3594 21.6797 93.7266 21.9062C93.0938 22.125 92.3633 22.2344 91.5352 22.2344Z" fill="#555252"/>
<path d="M3.5 11.15L12.5 4.5L21.5 11.15V21.6C21.5 22.1039 21.2893 22.5872 20.9142 22.9435C20.5391 23.2998 20.0304 23.5 19.5 23.5H5.5C4.96957 23.5 4.46086 23.2998 4.08579 22.9435C3.71071 22.5872 3.5 22.1039 3.5 21.6V11.15Z" stroke="#555252" stroke-width="2" stroke-linecap="round" stroke-linejoin="round"/>
<path d="M11.6882 22V18H12.6623V22" stroke="#555252" stroke-width="2" stroke-linecap="round" stroke-linejoin="round"/>
</svg>
