<svg width="98" height="28" viewBox="0 0 98 28" fill="none" xmlns="http://www.w3.org/2000/svg">
<path d="M45.8555 11.8047V14.7578H37.0195V11.8047H45.8555ZM38.2266 4.9375V22H34.4062V4.9375H38.2266ZM48.4922 4.9375V22H44.6836V4.9375H48.4922ZM50.6133 15.7891V15.543C50.6133 14.6133 50.7461 13.7578 51.0117 12.9766C51.2773 12.1875 51.668 11.5039 52.1836 10.9258C52.6992 10.3477 53.332 9.89844 54.082 9.57812C54.832 9.25 55.6914 9.08594 56.6602 9.08594C57.6445 9.08594 58.5117 9.25 59.2617 9.57812C60.0195 9.89844 60.6562 10.3477 61.1719 10.9258C61.6875 11.5039 62.0781 12.1875 62.3438 12.9766C62.6094 13.7578 62.7422 14.6133 62.7422 15.543V15.7891C62.7422 16.7109 62.6094 17.5664 62.3438 18.3555C62.0781 19.1367 61.6875 19.8203 61.1719 20.4062C60.6562 20.9844 60.0234 21.4336 59.2734 21.7539C58.5234 22.0742 57.6602 22.2344 56.6836 22.2344C55.7148 22.2344 54.8516 22.0742 54.0938 21.7539C53.3359 21.4336 52.6992 20.9844 52.1836 20.4062C51.668 19.8203 51.2773 19.1367 51.0117 18.3555C50.7461 17.5664 50.6133 16.7109 50.6133 15.7891ZM54.2812 15.543V15.7891C54.2812 16.2891 54.3203 16.7578 54.3984 17.1953C54.4844 17.6328 54.6211 18.0156 54.8086 18.3438C54.9961 18.6719 55.2422 18.9297 55.5469 19.1172C55.8594 19.2969 56.2383 19.3867 56.6836 19.3867C57.1289 19.3867 57.5039 19.2969 57.8086 19.1172C58.1133 18.9297 58.3594 18.6719 58.5469 18.3438C58.7344 18.0156 58.8672 17.6328 58.9453 17.1953C59.0312 16.7578 59.0742 16.2891 59.0742 15.7891V15.543C59.0742 15.0508 59.0312 14.5898 58.9453 14.1602C58.8672 13.7227 58.7344 13.3359 58.5469 13C58.3594 12.6641 58.1094 12.4023 57.7969 12.2148C57.4922 12.0273 57.1133 11.9336 56.6602 11.9336C56.2227 11.9336 55.8516 12.0273 55.5469 12.2148C55.2422 12.4023 54.9961 12.6641 54.8086 13C54.6211 13.3359 54.4844 13.7227 54.3984 14.1602C54.3203 14.5898 54.2812 15.0508 54.2812 15.543ZM68.332 11.9805V22H64.6758V9.32031H68.1094L68.332 11.9805ZM67.8633 15.2148L66.9375 15.2383C66.9375 14.3477 67.043 13.5312 67.2539 12.7891C67.4727 12.0391 67.7891 11.3867 68.2031 10.832C68.6172 10.2773 69.1289 9.84766 69.7383 9.54297C70.3555 9.23828 71.0664 9.08594 71.8711 9.08594C72.4336 9.08594 72.9453 9.17188 73.4062 9.34375C73.8672 9.50781 74.2617 9.76953 74.5898 10.1289C74.9258 10.4805 75.1836 10.9414 75.3633 11.5117C75.543 12.0742 75.6328 12.75 75.6328 13.5391V22H71.9766V13.9844C71.9766 13.4219 71.9062 12.9961 71.7656 12.707C71.6328 12.4102 71.4375 12.207 71.1797 12.0977C70.9219 11.9883 70.6133 11.9336 70.2539 11.9336C69.8633 11.9336 69.5156 12.0195 69.2109 12.1914C68.9141 12.3555 68.6641 12.5859 68.4609 12.8828C68.2578 13.1797 68.1055 13.5273 68.0039 13.9258C67.9102 14.3242 67.8633 14.7539 67.8633 15.2148ZM75.2578 15.0273L74.0977 15.1211C74.0977 14.2617 74.1992 13.4648 74.4023 12.7305C74.6055 11.9961 74.9102 11.3594 75.3164 10.8203C75.7227 10.2734 76.2266 9.84766 76.8281 9.54297C77.4375 9.23828 78.1445 9.08594 78.9492 9.08594C79.543 9.08594 80.082 9.17188 80.5664 9.34375C81.0586 9.51562 81.4805 9.79297 81.832 10.1758C82.1914 10.5586 82.4688 11.0625 82.6641 11.6875C82.8594 12.3047 82.957 13.0625 82.957 13.9609V22H79.2773V13.9609C79.2773 13.4062 79.207 12.9844 79.0664 12.6953C78.9336 12.4062 78.7383 12.207 78.4805 12.0977C78.2305 11.9883 77.9297 11.9336 77.5781 11.9336C77.1875 11.9336 76.8477 12.0156 76.5586 12.1797C76.2695 12.3359 76.0273 12.5547 75.832 12.8359C75.6367 13.1094 75.4922 13.4336 75.3984 13.8086C75.3047 14.1836 75.2578 14.5898 75.2578 15.0273ZM91.3828 22.2344C90.375 22.2344 89.4727 22.0742 88.6758 21.7539C87.8789 21.4336 87.2031 20.9922 86.6484 20.4297C86.1016 19.8594 85.6836 19.2031 85.3945 18.4609C85.1055 17.7188 84.9609 16.9258 84.9609 16.082V15.6367C84.9609 14.6914 85.0938 13.8203 85.3594 13.0234C85.625 12.2266 86.0117 11.5352 86.5195 10.9492C87.0352 10.3555 87.668 9.89844 88.418 9.57812C89.168 9.25 90.0234 9.08594 90.9844 9.08594C91.8828 9.08594 92.6836 9.23438 93.3867 9.53125C94.0898 9.82031 94.6836 10.2383 95.168 10.7852C95.6523 11.3242 96.0195 11.9766 96.2695 12.7422C96.5273 13.5 96.6562 14.3516 96.6562 15.2969V16.7969H86.4375V14.4414H93.0703V14.1602C93.0703 13.7148 92.9883 13.3242 92.8242 12.9883C92.668 12.6523 92.4336 12.3945 92.1211 12.2148C91.8164 12.0273 91.4297 11.9336 90.9609 11.9336C90.5156 11.9336 90.1445 12.0273 89.8477 12.2148C89.5508 12.4023 89.3125 12.668 89.1328 13.0117C88.9609 13.3477 88.8359 13.7422 88.7578 14.1953C88.6797 14.6406 88.6406 15.1211 88.6406 15.6367V16.082C88.6406 16.5742 88.707 17.0234 88.8398 17.4297C88.9727 17.8359 89.168 18.1836 89.4258 18.4727C89.6836 18.7617 89.9961 18.9883 90.3633 19.1523C90.7305 19.3164 91.1484 19.3984 91.6172 19.3984C92.1953 19.3984 92.7461 19.2891 93.2695 19.0703C93.793 18.8438 94.2461 18.4922 94.6289 18.0156L96.3398 19.9727C96.082 20.3477 95.7188 20.7109 95.25 21.0625C94.7891 21.4062 94.2344 21.6875 93.5859 21.9062C92.9375 22.125 92.2031 22.2344 91.3828 22.2344Z" fill="#F10A34"/>
<path d="M3.5 11.15L12.5 4.5L21.5 11.15V21.6C21.5 22.1039 21.2893 22.5872 20.9142 22.9435C20.5391 23.2998 20.0304 23.5 19.5 23.5H5.5C4.96957 23.5 4.46086 23.2998 4.08579 22.9435C3.71071 22.5872 3.5 22.1039 3.5 21.6V11.15Z" stroke="#F10A34" stroke-width="2" stroke-linecap="round" stroke-linejoin="round"/>
<path d="M11.6882 22V18H12.6623V22" stroke="#F10A34" stroke-width="2" stroke-linecap="round" stroke-linejoin="round"/>
</svg>
