<svg width="46" height="22" viewBox="0 0 46 22" fill="none" xmlns="http://www.w3.org/2000/svg">
<rect width="46" height="22" rx="11" fill="#8FC3E9"/>
<g clip-path="url(#clip0_27_806)">
<path fill-rule="evenodd" clip-rule="evenodd" d="M15.506 6.7627L15.5368 9.46485L13.1799 10.5962L13.1509 8.04489L15.506 6.7627Z" fill="white"/>
<path fill-rule="evenodd" clip-rule="evenodd" d="M17.8685 11.0202L15.5354 12.3547L13.2009 11.0181L15.5342 9.79248L17.8685 11.0202Z" fill="white"/>
<path fill-rule="evenodd" clip-rule="evenodd" d="M12.786 11.0202L10.4529 12.3547L8.11841 11.0181L10.4517 9.79248L12.786 11.0202Z" fill="white"/>
<path fill-rule="evenodd" clip-rule="evenodd" d="M10.4265 6.75146L12.8481 7.95079L12.7862 10.5644L10.4998 9.43201L10.4265 6.75146Z" fill="white"/>
<path fill-rule="evenodd" clip-rule="evenodd" d="M15.5717 15.2485L13.1501 14.0492L13.2121 11.4355L15.4985 12.5679L15.5717 15.2485Z" fill="white"/>
<path fill-rule="evenodd" clip-rule="evenodd" d="M10.5103 15.273L10.4795 12.5708L12.8363 11.4395L12.8654 13.9908L10.5103 15.273Z" fill="white"/>
</g>
<path d="M24.2031 6.46875V15H23.0723V6.46875H24.2031ZM28.6328 14.2266C28.8906 14.2266 29.1289 14.1738 29.3477 14.0684C29.5664 13.9629 29.7461 13.8184 29.8867 13.6348C30.0273 13.4473 30.1074 13.2344 30.127 12.9961H31.1582C31.1387 13.3711 31.0117 13.7207 30.7773 14.0449C30.5469 14.3652 30.2441 14.625 29.8691 14.8242C29.4941 15.0195 29.082 15.1172 28.6328 15.1172C28.1562 15.1172 27.7402 15.0332 27.3848 14.8652C27.0332 14.6973 26.7402 14.4668 26.5059 14.1738C26.2754 13.8809 26.1016 13.5449 25.9844 13.166C25.8711 12.7832 25.8145 12.3789 25.8145 11.9531V11.707C25.8145 11.2812 25.8711 10.8789 25.9844 10.5C26.1016 10.1172 26.2754 9.7793 26.5059 9.48633C26.7402 9.19336 27.0332 8.96289 27.3848 8.79492C27.7402 8.62695 28.1562 8.54297 28.6328 8.54297C29.1289 8.54297 29.5625 8.64453 29.9336 8.84766C30.3047 9.04688 30.5957 9.32031 30.8066 9.66797C31.0215 10.0117 31.1387 10.4023 31.1582 10.8398H30.127C30.1074 10.5781 30.0332 10.3418 29.9043 10.1309C29.7793 9.91992 29.6074 9.75195 29.3887 9.62695C29.1738 9.49805 28.9219 9.43359 28.6328 9.43359C28.3008 9.43359 28.0215 9.5 27.7949 9.63281C27.5723 9.76172 27.3945 9.9375 27.2617 10.1602C27.1328 10.3789 27.0391 10.623 26.9805 10.8926C26.9258 11.1582 26.8984 11.4297 26.8984 11.707V11.9531C26.8984 12.2305 26.9258 12.5039 26.9805 12.7734C27.0352 13.043 27.127 13.2871 27.2559 13.5059C27.3887 13.7246 27.5664 13.9004 27.7891 14.0332C28.0156 14.1621 28.2969 14.2266 28.6328 14.2266ZM35.0078 15.1172C34.5664 15.1172 34.166 15.043 33.8066 14.8945C33.4512 14.7422 33.1445 14.5293 32.8867 14.2559C32.6328 13.9824 32.4375 13.6582 32.3008 13.2832C32.1641 12.9082 32.0957 12.498 32.0957 12.0527V11.8066C32.0957 11.291 32.1719 10.832 32.3242 10.4297C32.4766 10.0234 32.6836 9.67969 32.9453 9.39844C33.207 9.11719 33.5039 8.9043 33.8359 8.75977C34.168 8.61523 34.5117 8.54297 34.8672 8.54297C35.3203 8.54297 35.7109 8.62109 36.0391 8.77734C36.3711 8.93359 36.6426 9.15234 36.8535 9.43359C37.0645 9.71094 37.2207 10.0391 37.3223 10.418C37.4238 10.793 37.4746 11.2031 37.4746 11.6484V12.1348H32.7402V11.25H36.3906V11.168C36.375 10.8867 36.3164 10.6133 36.2148 10.3477C36.1172 10.082 35.9609 9.86328 35.7461 9.69141C35.5312 9.51953 35.2383 9.43359 34.8672 9.43359C34.6211 9.43359 34.3945 9.48633 34.1875 9.5918C33.9805 9.69336 33.8027 9.8457 33.6543 10.0488C33.5059 10.252 33.3906 10.5 33.3086 10.793C33.2266 11.0859 33.1855 11.4238 33.1855 11.8066V12.0527C33.1855 12.3535 33.2266 12.6367 33.3086 12.9023C33.3945 13.1641 33.5176 13.3945 33.6777 13.5938C33.8418 13.793 34.0391 13.9492 34.2695 14.0625C34.5039 14.1758 34.7695 14.2324 35.0664 14.2324C35.4492 14.2324 35.7734 14.1543 36.0391 13.998C36.3047 13.8418 36.5371 13.6328 36.7363 13.3711L37.3926 13.8926C37.2559 14.0996 37.082 14.2969 36.8711 14.4844C36.6602 14.6719 36.4004 14.8242 36.0918 14.9414C35.7871 15.0586 35.4258 15.1172 35.0078 15.1172Z" fill="white"/>
<defs>
<clipPath id="clip0_27_806">
<rect width="10" height="10" fill="white" transform="translate(8 6)"/>
</clipPath>
</defs>
</svg>
