<svg width="70" height="22" viewBox="0 0 70 22" fill="none" xmlns="http://www.w3.org/2000/svg">
<rect width="70" height="22" rx="11" fill="#7D3600"/>
<g clip-path="url(#clip0_15_257)">
<path fill-rule="evenodd" clip-rule="evenodd" d="M17.3945 11C17.3945 13.427 15.427 15.3945 13 15.3945C10.573 15.3945 8.60547 13.427 8.60547 11C8.60547 8.57297 10.573 6.60547 13 6.60547C15.427 6.60547 17.3945 8.57297 17.3945 11ZM15.5112 11C15.5112 12.3869 14.3869 13.5112 13 13.5112C11.6131 13.5112 10.4888 12.3869 10.4888 11C10.4888 9.61312 11.6131 8.48885 13 8.48885C14.3869 8.48885 15.5112 9.61312 15.5112 11Z" fill="white"/>
</g>
<path d="M29.5527 6.46875V15H28.416L24.1211 8.41992V15H22.9902V6.46875H24.1211L28.4336 13.0664V6.46875H29.5527ZM31.1055 11.9004V11.7656C31.1055 11.3086 31.1719 10.8848 31.3047 10.4941C31.4375 10.0996 31.6289 9.75781 31.8789 9.46875C32.1289 9.17578 32.4316 8.94922 32.7871 8.78906C33.1426 8.625 33.541 8.54297 33.9824 8.54297C34.4277 8.54297 34.8281 8.625 35.1836 8.78906C35.543 8.94922 35.8477 9.17578 36.0977 9.46875C36.3516 9.75781 36.5449 10.0996 36.6777 10.4941C36.8105 10.8848 36.877 11.3086 36.877 11.7656V11.9004C36.877 12.3574 36.8105 12.7812 36.6777 13.1719C36.5449 13.5625 36.3516 13.9043 36.0977 14.1973C35.8477 14.4863 35.5449 14.7129 35.1895 14.877C34.8379 15.0371 34.4395 15.1172 33.9941 15.1172C33.5488 15.1172 33.1484 15.0371 32.793 14.877C32.4375 14.7129 32.1328 14.4863 31.8789 14.1973C31.6289 13.9043 31.4375 13.5625 31.3047 13.1719C31.1719 12.7812 31.1055 12.3574 31.1055 11.9004ZM32.1895 11.7656V11.9004C32.1895 12.2168 32.2266 12.5156 32.3008 12.7969C32.375 13.0742 32.4863 13.3203 32.6348 13.5352C32.7871 13.75 32.9766 13.9199 33.2031 14.0449C33.4297 14.166 33.6934 14.2266 33.9941 14.2266C34.291 14.2266 34.5508 14.166 34.7734 14.0449C35 13.9199 35.1875 13.75 35.3359 13.5352C35.4844 13.3203 35.5957 13.0742 35.6699 12.7969C35.748 12.5156 35.7871 12.2168 35.7871 11.9004V11.7656C35.7871 11.4531 35.748 11.1582 35.6699 10.8809C35.5957 10.5996 35.4824 10.3516 35.3301 10.1367C35.1816 9.91797 34.9941 9.74609 34.7676 9.62109C34.5449 9.49609 34.2832 9.43359 33.9824 9.43359C33.6855 9.43359 33.4238 9.49609 33.1973 9.62109C32.9746 9.74609 32.7871 9.91797 32.6348 10.1367C32.4863 10.3516 32.375 10.5996 32.3008 10.8809C32.2266 11.1582 32.1895 11.4531 32.1895 11.7656ZM39.3203 9.65625V15H38.2363V8.66016H39.291L39.3203 9.65625ZM41.3008 8.625L41.2949 9.63281C41.2051 9.61328 41.1191 9.60156 41.0371 9.59766C40.959 9.58984 40.8691 9.58594 40.7676 9.58594C40.5176 9.58594 40.2969 9.625 40.1055 9.70312C39.9141 9.78125 39.752 9.89062 39.6191 10.0312C39.4863 10.1719 39.3809 10.3398 39.3027 10.5352C39.2285 10.7266 39.1797 10.9375 39.1562 11.168L38.8516 11.3438C38.8516 10.9609 38.8887 10.6016 38.9629 10.2656C39.041 9.92969 39.1602 9.63281 39.3203 9.375C39.4805 9.11328 39.6836 8.91016 39.9297 8.76562C40.1797 8.61719 40.4766 8.54297 40.8203 8.54297C40.8984 8.54297 40.9883 8.55273 41.0898 8.57227C41.1914 8.58789 41.2617 8.60547 41.3008 8.625ZM43.3809 9.91992V15H42.291V8.66016H43.3223L43.3809 9.91992ZM43.1582 11.5898L42.6543 11.5723C42.6582 11.1387 42.7148 10.7383 42.8242 10.3711C42.9336 10 43.0957 9.67773 43.3105 9.4043C43.5254 9.13086 43.793 8.91992 44.1133 8.77148C44.4336 8.61914 44.8047 8.54297 45.2266 8.54297C45.5234 8.54297 45.7969 8.58594 46.0469 8.67188C46.2969 8.75391 46.5137 8.88477 46.6973 9.06445C46.8809 9.24414 47.0234 9.47461 47.125 9.75586C47.2266 10.0371 47.2773 10.377 47.2773 10.7754V15H46.1934V10.8281C46.1934 10.4961 46.1367 10.2305 46.0234 10.0312C45.9141 9.83203 45.7578 9.6875 45.5547 9.59766C45.3516 9.50391 45.1133 9.45703 44.8398 9.45703C44.5195 9.45703 44.252 9.51367 44.0371 9.62695C43.8223 9.74023 43.6504 9.89648 43.5215 10.0957C43.3926 10.2949 43.2988 10.5234 43.2402 10.7812C43.1855 11.0352 43.1582 11.3047 43.1582 11.5898ZM47.2656 10.9922L46.5391 11.2148C46.543 10.8672 46.5996 10.5332 46.709 10.2129C46.8223 9.89258 46.9844 9.60742 47.1953 9.35742C47.4102 9.10742 47.6738 8.91016 47.9863 8.76562C48.2988 8.61719 48.6562 8.54297 49.0586 8.54297C49.3984 8.54297 49.6992 8.58789 49.9609 8.67773C50.2266 8.76758 50.4492 8.90625 50.6289 9.09375C50.8125 9.27734 50.9512 9.51367 51.0449 9.80273C51.1387 10.0918 51.1855 10.4355 51.1855 10.834V15H50.0957V10.8223C50.0957 10.4668 50.0391 10.1914 49.9258 9.99609C49.8164 9.79688 49.6602 9.6582 49.457 9.58008C49.2578 9.49805 49.0195 9.45703 48.7422 9.45703C48.5039 9.45703 48.293 9.49805 48.1094 9.58008C47.9258 9.66211 47.7715 9.77539 47.6465 9.91992C47.5215 10.0605 47.4258 10.2227 47.3594 10.4062C47.2969 10.5898 47.2656 10.7852 47.2656 10.9922ZM56.5645 13.916V10.6523C56.5645 10.4023 56.5137 10.1855 56.4121 10.002C56.3145 9.81445 56.166 9.66992 55.9668 9.56836C55.7676 9.4668 55.5215 9.41602 55.2285 9.41602C54.9551 9.41602 54.7148 9.46289 54.5078 9.55664C54.3047 9.65039 54.1445 9.77344 54.0273 9.92578C53.9141 10.0781 53.8574 10.2422 53.8574 10.418H52.7734C52.7734 10.1914 52.832 9.9668 52.9492 9.74414C53.0664 9.52148 53.2344 9.32031 53.4531 9.14062C53.6758 8.95703 53.9414 8.8125 54.25 8.70703C54.5625 8.59766 54.9102 8.54297 55.293 8.54297C55.7539 8.54297 56.1602 8.62109 56.5117 8.77734C56.8672 8.93359 57.1445 9.16992 57.3438 9.48633C57.5469 9.79883 57.6484 10.1914 57.6484 10.6641V13.6172C57.6484 13.8281 57.666 14.0527 57.7012 14.291C57.7402 14.5293 57.7969 14.7344 57.8711 14.9062V15H56.7402C56.6855 14.875 56.6426 14.709 56.6113 14.502C56.5801 14.291 56.5645 14.0957 56.5645 13.916ZM56.752 11.1562L56.7637 11.918H55.668C55.3594 11.918 55.084 11.9434 54.8418 11.9941C54.5996 12.041 54.3965 12.1133 54.2324 12.2109C54.0684 12.3086 53.9434 12.4316 53.8574 12.5801C53.7715 12.7246 53.7285 12.8945 53.7285 13.0898C53.7285 13.2891 53.7734 13.4707 53.8633 13.6348C53.9531 13.7988 54.0879 13.9297 54.2676 14.0273C54.4512 14.1211 54.6758 14.168 54.9414 14.168C55.2734 14.168 55.5664 14.0977 55.8203 13.957C56.0742 13.8164 56.2754 13.6445 56.4238 13.4414C56.5762 13.2383 56.6582 13.041 56.6699 12.8496L57.1328 13.3711C57.1055 13.5352 57.0312 13.7168 56.9102 13.916C56.7891 14.1152 56.627 14.3066 56.4238 14.4902C56.2246 14.6699 55.9863 14.8203 55.709 14.9414C55.4355 15.0586 55.127 15.1172 54.7832 15.1172C54.3535 15.1172 53.9766 15.0332 53.6523 14.8652C53.332 14.6973 53.082 14.4727 52.9023 14.1914C52.7266 13.9062 52.6387 13.5879 52.6387 13.2363C52.6387 12.8965 52.7051 12.5977 52.8379 12.3398C52.9707 12.0781 53.1621 11.8613 53.4121 11.6895C53.6621 11.5137 53.9629 11.3809 54.3145 11.291C54.666 11.2012 55.0586 11.1562 55.4922 11.1562H56.752ZM60.5312 6V15H59.4414V6H60.5312Z" fill="white"/>
<defs>
<clipPath id="clip0_15_257">
<rect width="10" height="10" fill="white" transform="translate(8 6)"/>
</clipPath>
</defs>
</svg>
