<svg width="56" height="74" viewBox="0 0 56 74" fill="none" xmlns="http://www.w3.org/2000/svg">
<path d="M37.0999 42.4667C37.0999 40.0532 36.1412 37.7386 34.4346 36.032C32.728 34.3254 30.4134 33.3667 27.9999 33.3667C25.5864 33.3667 23.2718 34.3254 21.5652 36.032C19.8586 37.7386 18.8999 40.0532 18.8999 42.4667" stroke="#F10A34" stroke-width="2" stroke-linecap="round" stroke-linejoin="round"/>
<path d="M28 33.3667C31.3505 33.3667 34.0667 30.6506 34.0667 27.3001C34.0667 23.9495 31.3505 21.2334 28 21.2334C24.6495 21.2334 21.9333 23.9495 21.9333 27.3001C21.9333 30.6506 24.6495 33.3667 28 33.3667Z" stroke="#F10A34" stroke-width="2" stroke-linecap="round" stroke-linejoin="round"/>
<path d="M27.9999 45.4998C36.3762 45.4998 43.1666 38.7095 43.1666 30.3332C43.1666 21.9569 36.3762 15.1665 27.9999 15.1665C19.6236 15.1665 12.8333 21.9569 12.8333 30.3332C12.8333 38.7095 19.6236 45.4998 27.9999 45.4998Z" stroke="#F10A34" stroke-width="2" stroke-linecap="round" stroke-linejoin="round"/>
<path d="M18.0664 68.0352H15.9219V66.5527H18.0664C18.3828 66.5527 18.6367 66.5 18.8281 66.3945C19.0234 66.2891 19.166 66.1445 19.2559 65.9609C19.3496 65.7734 19.3965 65.5625 19.3965 65.3281C19.3965 65.0859 19.3496 64.8613 19.2559 64.6543C19.166 64.4434 19.0234 64.2734 18.8281 64.1445C18.6367 64.0156 18.3828 63.9512 18.0664 63.9512H16.6133V71H14.7031V62.4688H18.0664C18.7461 62.4688 19.3281 62.5918 19.8125 62.8379C20.3008 63.084 20.6738 63.4219 20.9316 63.8516C21.1934 64.2773 21.3242 64.7656 21.3242 65.3164C21.3242 65.8672 21.1934 66.3457 20.9316 66.752C20.6738 67.1582 20.3008 67.4746 19.8125 67.7012C19.3281 67.9238 18.7461 68.0352 18.0664 68.0352ZM25.2969 71.1172C24.793 71.1172 24.3418 71.0371 23.9434 70.877C23.5449 70.7168 23.207 70.4961 22.9297 70.2148C22.6562 69.9297 22.4473 69.6016 22.3027 69.2305C22.1582 68.8594 22.0859 68.4629 22.0859 68.041V67.8184C22.0859 67.3457 22.1523 66.9102 22.2852 66.5117C22.418 66.1133 22.6113 65.7676 22.8652 65.4746C23.123 65.1777 23.4395 64.9492 23.8145 64.7891C24.1895 64.625 24.6172 64.543 25.0977 64.543C25.5469 64.543 25.9473 64.6172 26.2988 64.7656C26.6504 64.9102 26.9473 65.1191 27.1895 65.3926C27.4316 65.6621 27.6152 65.9883 27.7402 66.3711C27.8691 66.75 27.9336 67.1758 27.9336 67.6484V68.3984H22.8242V67.2207H26.1406V67.0801C26.1406 66.8574 26.0996 66.6621 26.0176 66.4941C25.9395 66.3262 25.8223 66.1973 25.666 66.1074C25.5137 66.0137 25.3203 65.9668 25.0859 65.9668C24.8633 65.9668 24.6777 66.0137 24.5293 66.1074C24.3809 66.2012 24.2617 66.334 24.1719 66.5059C24.0859 66.6738 24.0234 66.8711 23.9844 67.0977C23.9453 67.3203 23.9258 67.5605 23.9258 67.8184V68.041C23.9258 68.2871 23.959 68.5117 24.0254 68.7148C24.0918 68.918 24.1895 69.0918 24.3184 69.2363C24.4473 69.3809 24.6035 69.4941 24.7871 69.5762C24.9707 69.6582 25.1797 69.6992 25.4141 69.6992C25.7031 69.6992 25.9785 69.6445 26.2402 69.5352C26.502 69.4219 26.7285 69.2461 26.9199 69.0078L27.7754 69.9863C27.6465 70.1738 27.4648 70.3555 27.2305 70.5312C27 70.7031 26.7227 70.8438 26.3984 70.9531C26.0742 71.0625 25.707 71.1172 25.2969 71.1172ZM30.6582 66.1367V71H28.8301V64.6602H30.5469L30.6582 66.1367ZM32.5508 64.6133L32.5215 66.3184C32.4434 66.3066 32.3418 66.2969 32.2168 66.2891C32.0918 66.2773 31.9844 66.2715 31.8945 66.2715C31.6602 66.2715 31.457 66.3008 31.2852 66.3594C31.1172 66.4141 30.9766 66.4961 30.8633 66.6055C30.7539 66.7148 30.6719 66.8516 30.6172 67.0156C30.5625 67.1758 30.5352 67.3613 30.5352 67.5723L30.1895 67.4023C30.1895 66.9844 30.2305 66.6016 30.3125 66.2539C30.3945 65.9062 30.5137 65.6055 30.6699 65.3516C30.8262 65.0938 31.0176 64.8945 31.2441 64.7539C31.4707 64.6133 31.7285 64.543 32.0176 64.543C32.1113 64.543 32.207 64.5488 32.3047 64.5605C32.4023 64.5723 32.4844 64.5898 32.5508 64.6133ZM35.5742 71H33.7344V64.4316C33.7344 63.8809 33.8477 63.416 34.0742 63.0371C34.3047 62.6582 34.6348 62.3711 35.0645 62.1758C35.4941 61.9766 36.0117 61.877 36.6172 61.877C36.9648 61.877 37.2988 61.9082 37.6191 61.9707C37.9434 62.0332 38.2773 62.1152 38.6211 62.2168L38.3633 63.6758C38.1406 63.6094 37.9043 63.5488 37.6543 63.4941C37.4043 63.4395 37.0977 63.4121 36.7344 63.4121C36.3594 63.4121 36.0723 63.5 35.873 63.6758C35.6738 63.8477 35.5742 64.0996 35.5742 64.4316V71ZM36.8223 64.6602V65.9434H32.8027V64.6602H36.8223ZM39.4648 64.6602V71H37.6309V64.6602H39.4648ZM42.7051 62V71H40.8711V62H42.7051Z" fill="#F10A34"/>
</svg>
