<svg width="108" height="30" viewBox="0 0 108 30" fill="none" xmlns="http://www.w3.org/2000/svg">
<path d="M43.1328 17.0703H38.8438V14.1055H43.1328C43.7656 14.1055 44.2734 14 44.6562 13.7891C45.0469 13.5781 45.332 13.2891 45.5117 12.9219C45.6992 12.5469 45.793 12.125 45.793 11.6562C45.793 11.1719 45.6992 10.7227 45.5117 10.3086C45.332 9.88672 45.0469 9.54688 44.6562 9.28906C44.2734 9.03125 43.7656 8.90234 43.1328 8.90234H40.2266V23H36.4062V5.9375H43.1328C44.4922 5.9375 45.6562 6.18359 46.625 6.67578C47.6016 7.16797 48.3477 7.84375 48.8633 8.70312C49.3867 9.55469 49.6484 10.5312 49.6484 11.6328C49.6484 12.7344 49.3867 13.6914 48.8633 14.5039C48.3477 15.3164 47.6016 15.9492 46.625 16.4023C45.6562 16.8477 44.4922 17.0703 43.1328 17.0703ZM57.5938 23.2344C56.5859 23.2344 55.6836 23.0742 54.8867 22.7539C54.0898 22.4336 53.4141 21.9922 52.8594 21.4297C52.3125 20.8594 51.8945 20.2031 51.6055 19.4609C51.3164 18.7188 51.1719 17.9258 51.1719 17.082V16.6367C51.1719 15.6914 51.3047 14.8203 51.5703 14.0234C51.8359 13.2266 52.2227 12.5352 52.7305 11.9492C53.2461 11.3555 53.8789 10.8984 54.6289 10.5781C55.3789 10.25 56.2344 10.0859 57.1953 10.0859C58.0938 10.0859 58.8945 10.2344 59.5977 10.5312C60.3008 10.8203 60.8945 11.2383 61.3789 11.7852C61.8633 12.3242 62.2305 12.9766 62.4805 13.7422C62.7383 14.5 62.8672 15.3516 62.8672 16.2969V17.7969H52.6484V15.4414H59.2812V15.1602C59.2812 14.7148 59.1992 14.3242 59.0352 13.9883C58.8789 13.6523 58.6445 13.3945 58.332 13.2148C58.0273 13.0273 57.6406 12.9336 57.1719 12.9336C56.7266 12.9336 56.3555 13.0273 56.0586 13.2148C55.7617 13.4023 55.5234 13.668 55.3438 14.0117C55.1719 14.3477 55.0469 14.7422 54.9688 15.1953C54.8906 15.6406 54.8516 16.1211 54.8516 16.6367V17.082C54.8516 17.5742 54.918 18.0234 55.0508 18.4297C55.1836 18.8359 55.3789 19.1836 55.6367 19.4727C55.8945 19.7617 56.207 19.9883 56.5742 20.1523C56.9414 20.3164 57.3594 20.3984 57.8281 20.3984C58.4062 20.3984 58.957 20.2891 59.4805 20.0703C60.0039 19.8438 60.457 19.4922 60.8398 19.0156L62.5508 20.9727C62.293 21.3477 61.9297 21.7109 61.4609 22.0625C61 22.4062 60.4453 22.6875 59.7969 22.9062C59.1484 23.125 58.4141 23.2344 57.5938 23.2344ZM68.3164 13.2734V23H64.6602V10.3203H68.0938L68.3164 13.2734ZM72.1016 10.2266L72.043 13.6367C71.8867 13.6133 71.6836 13.5938 71.4336 13.5781C71.1836 13.5547 70.9688 13.543 70.7891 13.543C70.3203 13.543 69.9141 13.6016 69.5703 13.7188C69.2344 13.8281 68.9531 13.9922 68.7266 14.2109C68.5078 14.4297 68.3438 14.7031 68.2344 15.0312C68.125 15.3516 68.0703 15.7227 68.0703 16.1445L67.3789 15.8047C67.3789 14.9688 67.4609 14.2031 67.625 13.5078C67.7891 12.8125 68.0273 12.2109 68.3398 11.7031C68.6523 11.1875 69.0352 10.7891 69.4883 10.5078C69.9414 10.2266 70.457 10.0859 71.0352 10.0859C71.2227 10.0859 71.4141 10.0977 71.6094 10.1211C71.8047 10.1445 71.9688 10.1797 72.1016 10.2266ZM78.1484 23H74.4688V9.86328C74.4688 8.76172 74.6953 7.83203 75.1484 7.07422C75.6094 6.31641 76.2695 5.74219 77.1289 5.35156C77.9883 4.95312 79.0234 4.75391 80.2344 4.75391C80.9297 4.75391 81.5977 4.81641 82.2383 4.94141C82.8867 5.06641 83.5547 5.23047 84.2422 5.43359L83.7266 8.35156C83.2812 8.21875 82.8086 8.09766 82.3086 7.98828C81.8086 7.87891 81.1953 7.82422 80.4688 7.82422C79.7188 7.82422 79.1445 8 78.7461 8.35156C78.3477 8.69531 78.1484 9.19922 78.1484 9.86328V23ZM80.6445 10.3203V12.8867H72.6055V10.3203H80.6445ZM85.9297 10.3203V23H82.2617V10.3203H85.9297ZM92.4102 5V23H88.7422V5H92.4102Z" fill="#F10A34"/>
<path d="M23.3595 26.2165C23.3595 24.0019 22.4761 21.8779 20.9036 20.312C19.3312 18.746 17.1985 17.8662 14.9747 17.8662C12.7509 17.8662 10.6182 18.746 9.0457 20.312C7.47324 21.8779 6.58984 24.0019 6.58984 26.2165" stroke="#F10A34" stroke-width="2" stroke-linecap="round" stroke-linejoin="round"/>
<path d="M14.9746 17.8661C18.0619 17.8661 20.5645 15.3738 20.5645 12.2993C20.5645 9.22479 18.0619 6.73242 14.9746 6.73242C11.8874 6.73242 9.38477 9.22479 9.38477 12.2993C9.38477 15.3738 11.8874 17.8661 14.9746 17.8661Z" stroke="#F10A34" stroke-width="2" stroke-linecap="round" stroke-linejoin="round"/>
<path d="M14.9747 28.9998C22.6927 28.9998 28.9494 22.7689 28.9494 15.0827C28.9494 7.39645 22.6927 1.16553 14.9747 1.16553C7.25669 1.16553 1 7.39645 1 15.0827C1 22.7689 7.25669 28.9998 14.9747 28.9998Z" stroke="#F10A34" stroke-width="2" stroke-linecap="round" stroke-linejoin="round"/>
</svg>
