<svg width="93" height="30" viewBox="0 0 93 30" fill="none" xmlns="http://www.w3.org/2000/svg">
<path d="M43.2961 16.7773H38.9016V14.2461H43.2961C44.0149 14.2461 44.5969 14.1289 45.0422 13.8945C45.4954 13.6523 45.8274 13.3242 46.0383 12.9102C46.2493 12.4883 46.3547 12.0078 46.3547 11.4688C46.3547 10.9453 46.2493 10.457 46.0383 10.0039C45.8274 9.55078 45.4954 9.18359 45.0422 8.90234C44.5969 8.62109 44.0149 8.48047 43.2961 8.48047H39.9563V23H36.7336V5.9375H43.2961C44.6243 5.9375 45.7571 6.17578 46.6946 6.65234C47.6399 7.12109 48.3586 7.77344 48.8508 8.60938C49.3508 9.4375 49.6008 10.3828 49.6008 11.4453C49.6008 12.5469 49.3508 13.4961 48.8508 14.293C48.3586 15.0898 47.6399 15.7031 46.6946 16.1328C45.7571 16.5625 44.6243 16.7773 43.2961 16.7773ZM57.429 23.2344C56.468 23.2344 55.6047 23.0781 54.8391 22.7656C54.0735 22.4531 53.4211 22.0195 52.8821 21.4648C52.3508 20.9023 51.9407 20.25 51.6516 19.5078C51.3704 18.7578 51.2297 17.9531 51.2297 17.0938V16.625C51.2297 15.6484 51.3704 14.7617 51.6516 13.9648C51.9329 13.1602 52.3313 12.4688 52.8469 11.8906C53.3625 11.3125 53.9797 10.8672 54.6985 10.5547C55.4172 10.2422 56.2102 10.0859 57.0774 10.0859C57.9758 10.0859 58.7688 10.2383 59.4563 10.543C60.1438 10.8398 60.718 11.2617 61.179 11.8086C61.6399 12.3555 61.9875 13.0117 62.2219 13.7773C62.4563 14.5352 62.5735 15.375 62.5735 16.2969V17.5977H52.636V15.4648H59.5266V15.2305C59.511 14.7383 59.4172 14.2891 59.2454 13.8828C59.0735 13.4688 58.8079 13.1406 58.4485 12.8984C58.0891 12.6484 57.6243 12.5234 57.054 12.5234C56.593 12.5234 56.1907 12.625 55.8469 12.8281C55.511 13.0234 55.2297 13.3047 55.0032 13.6719C54.7844 14.0312 54.6204 14.4609 54.511 14.9609C54.4016 15.4609 54.3469 16.0156 54.3469 16.625V17.0938C54.3469 17.625 54.4172 18.1172 54.5579 18.5703C54.7063 19.0234 54.9211 19.418 55.2024 19.7539C55.4915 20.082 55.8352 20.3398 56.2336 20.5273C56.6399 20.707 57.1008 20.7969 57.6165 20.7969C58.2649 20.7969 58.8508 20.6719 59.3743 20.4219C59.9055 20.1641 60.3665 19.7852 60.7571 19.2852L62.3157 20.9023C62.05 21.293 61.6907 21.668 61.2375 22.0273C60.7922 22.3867 60.2532 22.6797 59.6204 22.9062C58.9875 23.125 58.2571 23.2344 57.429 23.2344ZM67.7415 12.9102V23H64.6477V10.3203H67.5774L67.7415 12.9102ZM71.5969 10.2383L71.55 13.1211C71.3782 13.0898 71.1829 13.0664 70.9641 13.0508C70.7532 13.0352 70.554 13.0273 70.3665 13.0273C69.8899 13.0273 69.4719 13.0938 69.1125 13.2266C68.7532 13.3516 68.4524 13.5352 68.2102 13.7773C67.9758 14.0195 67.7961 14.3164 67.6711 14.668C67.5461 15.0117 67.4758 15.4023 67.4602 15.8398L66.7922 15.7578C66.7922 14.9531 66.8743 14.207 67.0383 13.5195C67.2024 12.832 67.4407 12.2305 67.7532 11.7148C68.0657 11.1992 68.4563 10.8008 68.925 10.5195C69.4016 10.2305 69.9485 10.0859 70.5657 10.0859C70.7375 10.0859 70.9211 10.1016 71.1165 10.1328C71.3196 10.1562 71.4797 10.1914 71.5969 10.2383ZM77.2102 23H74.093V9.61719C74.093 8.57031 74.304 7.6875 74.7258 6.96875C75.1555 6.24219 75.7688 5.69141 76.5657 5.31641C77.3704 4.94141 78.3274 4.75391 79.4368 4.75391C80.0852 4.75391 80.7102 4.82031 81.3118 4.95312C81.9211 5.07813 82.5461 5.24219 83.1868 5.44531L82.7297 7.95312C82.3157 7.82031 81.8625 7.69531 81.3704 7.57812C80.886 7.46094 80.3118 7.40234 79.6477 7.40234C78.8274 7.40234 78.2141 7.58984 77.8079 7.96484C77.4094 8.33984 77.2102 8.89062 77.2102 9.61719V23ZM79.7415 10.3203V12.5469H72.1829V10.3203H79.7415ZM84.6399 10.3203V23H81.5344V10.3203H84.6399ZM90.9211 5V23H87.8157V5H90.9211Z" fill="#555252"/>
<path d="M23.3595 26.2165C23.3595 24.0019 22.4761 21.8779 20.9036 20.312C19.3312 18.746 17.1985 17.8662 14.9747 17.8662C12.7509 17.8662 10.6182 18.746 9.0457 20.312C7.47324 21.8779 6.58984 24.0019 6.58984 26.2165" stroke="#555252" stroke-width="2" stroke-linecap="round" stroke-linejoin="round"/>
<path d="M14.9746 17.8661C18.0619 17.8661 20.5645 15.3738 20.5645 12.2993C20.5645 9.22479 18.0619 6.73242 14.9746 6.73242C11.8874 6.73242 9.38477 9.22479 9.38477 12.2993C9.38477 15.3738 11.8874 17.8661 14.9746 17.8661Z" stroke="#555252" stroke-width="2" stroke-linecap="round" stroke-linejoin="round"/>
<path d="M14.9747 28.9998C22.6927 28.9998 28.9494 22.7689 28.9494 15.0827C28.9494 7.39645 22.6927 1.16553 14.9747 1.16553C7.25669 1.16553 1 7.39645 1 15.0827C1 22.7689 7.25669 28.9998 14.9747 28.9998Z" stroke="#555252" stroke-width="2" stroke-linecap="round" stroke-linejoin="round"/>
</svg>
