<svg width="56" height="74" viewBox="0 0 56 74" fill="none" xmlns="http://www.w3.org/2000/svg">
<path d="M37.0999 42.4667C37.0999 40.0532 36.1412 37.7386 34.4346 36.032C32.728 34.3254 30.4134 33.3667 27.9999 33.3667C25.5864 33.3667 23.2718 34.3254 21.5652 36.032C19.8586 37.7386 18.8999 40.0532 18.8999 42.4667" stroke="#555252" stroke-width="2" stroke-linecap="round" stroke-linejoin="round"/>
<path d="M28 33.3667C31.3505 33.3667 34.0667 30.6506 34.0667 27.3001C34.0667 23.9495 31.3505 21.2334 28 21.2334C24.6495 21.2334 21.9333 23.9495 21.9333 27.3001C21.9333 30.6506 24.6495 33.3667 28 33.3667Z" stroke="#555252" stroke-width="2" stroke-linecap="round" stroke-linejoin="round"/>
<path d="M27.9999 45.4998C36.3762 45.4998 43.1666 38.7095 43.1666 30.3332C43.1666 21.9569 36.3762 15.1665 27.9999 15.1665C19.6236 15.1665 12.8333 21.9569 12.8333 30.3332C12.8333 38.7095 19.6236 45.4998 27.9999 45.4998Z" stroke="#555252" stroke-width="2" stroke-linecap="round" stroke-linejoin="round"/>
<path d="M18.0957 67.8887H15.8984V66.623H18.0957C18.4551 66.623 18.7461 66.5645 18.9688 66.4473C19.1953 66.3262 19.3613 66.1621 19.4668 65.9551C19.5723 65.7441 19.625 65.5039 19.625 65.2344C19.625 64.9727 19.5723 64.7285 19.4668 64.502C19.3613 64.2754 19.1953 64.0918 18.9688 63.9512C18.7461 63.8105 18.4551 63.7402 18.0957 63.7402H16.4258V71H14.8145V62.4688H18.0957C18.7598 62.4688 19.3262 62.5879 19.7949 62.8262C20.2676 63.0605 20.627 63.3867 20.873 63.8047C21.123 64.2188 21.248 64.6914 21.248 65.2227C21.248 65.7734 21.123 66.248 20.873 66.6465C20.627 67.0449 20.2676 67.3516 19.7949 67.5664C19.3262 67.7812 18.7598 67.8887 18.0957 67.8887ZM25.1621 71.1172C24.6816 71.1172 24.25 71.0391 23.8672 70.8828C23.4844 70.7266 23.1582 70.5098 22.8887 70.2324C22.623 69.9512 22.418 69.625 22.2734 69.2539C22.1328 68.8789 22.0625 68.4766 22.0625 68.0469V67.8125C22.0625 67.3242 22.1328 66.8809 22.2734 66.4824C22.4141 66.0801 22.6133 65.7344 22.8711 65.4453C23.1289 65.1562 23.4375 64.9336 23.7969 64.7773C24.1562 64.6211 24.5527 64.543 24.9863 64.543C25.4355 64.543 25.832 64.6191 26.1758 64.7715C26.5195 64.9199 26.8066 65.1309 27.0371 65.4043C27.2676 65.6777 27.4414 66.0059 27.5586 66.3887C27.6758 66.7676 27.7344 67.1875 27.7344 67.6484V68.2988H22.7656V67.2324H26.2109V67.1152C26.2031 66.8691 26.1562 66.6445 26.0703 66.4414C25.9844 66.2344 25.8516 66.0703 25.6719 65.9492C25.4922 65.8242 25.2598 65.7617 24.9746 65.7617C24.7441 65.7617 24.543 65.8125 24.3711 65.9141C24.2031 66.0117 24.0625 66.1523 23.9492 66.3359C23.8398 66.5156 23.7578 66.7305 23.7031 66.9805C23.6484 67.2305 23.6211 67.5078 23.6211 67.8125V68.0469C23.6211 68.3125 23.6562 68.5586 23.7266 68.7852C23.8008 69.0117 23.9082 69.209 24.0488 69.377C24.1934 69.541 24.3652 69.6699 24.5645 69.7637C24.7676 69.8535 24.998 69.8984 25.2559 69.8984C25.5801 69.8984 25.873 69.8359 26.1348 69.7109C26.4004 69.582 26.6309 69.3926 26.8262 69.1426L27.6055 69.9512C27.4727 70.1465 27.293 70.334 27.0664 70.5137C26.8438 70.6934 26.5742 70.8398 26.2578 70.9531C25.9414 71.0625 25.5762 71.1172 25.1621 71.1172ZM30.3184 65.9551V71H28.7715V64.6602H30.2363L30.3184 65.9551ZM32.2461 64.6191L32.2227 66.0605C32.1367 66.0449 32.0391 66.0332 31.9297 66.0254C31.8242 66.0176 31.7246 66.0137 31.6309 66.0137C31.3926 66.0137 31.1836 66.0469 31.0039 66.1133C30.8242 66.1758 30.6738 66.2676 30.5527 66.3887C30.4355 66.5098 30.3457 66.6582 30.2832 66.834C30.2207 67.0059 30.1855 67.2012 30.1777 67.4199L29.8438 67.3789C29.8438 66.9766 29.8848 66.6035 29.9668 66.2598C30.0488 65.916 30.168 65.6152 30.3242 65.3574C30.4805 65.0996 30.6758 64.9004 30.9102 64.7598C31.1484 64.6152 31.4219 64.543 31.7305 64.543C31.8164 64.543 31.9082 64.5508 32.0059 64.5664C32.1074 64.5781 32.1875 64.5957 32.2461 64.6191ZM35.0527 71H33.4941V64.3086C33.4941 63.7852 33.5996 63.3438 33.8105 62.9844C34.0254 62.6211 34.332 62.3457 34.7305 62.1582C35.1328 61.9707 35.6113 61.877 36.166 61.877C36.4902 61.877 36.8027 61.9102 37.1035 61.9766C37.4082 62.0391 37.7207 62.1211 38.041 62.2227L37.8125 63.4766C37.6055 63.4102 37.3789 63.3477 37.1328 63.2891C36.8906 63.2305 36.6035 63.2012 36.2715 63.2012C35.8613 63.2012 35.5547 63.2949 35.3516 63.4824C35.1523 63.6699 35.0527 63.9453 35.0527 64.3086V71ZM36.3184 64.6602V65.7734H32.5391V64.6602H36.3184ZM38.7676 64.6602V71H37.2148V64.6602H38.7676ZM41.9082 62V71H40.3555V62H41.9082Z" fill="#555252"/>
</svg>
