<svg width="67" height="22" viewBox="0 0 67 22" fill="none" xmlns="http://www.w3.org/2000/svg">
<rect width="67" height="22" rx="11" fill="#8849B0"/>
<g clip-path="url(#clip0_7_122)">
<path fill-rule="evenodd" clip-rule="evenodd" d="M16.3559 13.6846C17.3657 12.8771 18 11.7105 18 10.4131C18 7.9758 15.7614 6 13 6C10.2386 6 8 7.9758 8 10.4131C8 11.6636 8.58933 12.7927 9.53624 13.5957C9.47885 13.7939 9.44737 14.0094 9.44737 14.2348C9.44737 15.2097 10.0365 16 10.7632 16C11.2354 16 11.6495 15.6663 11.8816 15.1651C12.1137 15.6663 12.5278 16 13 16C13.4304 16 13.8126 15.7227 14.0526 15.2941C14.2927 15.7227 14.6748 16 15.1053 16C15.832 16 16.4211 15.2097 16.4211 14.2348C16.4211 14.0427 16.3982 13.8577 16.3559 13.6846ZM15.8947 10.5006C15.8947 11.738 14.5693 12.7411 12.9342 12.7411C11.2992 12.7411 9.97369 11.738 9.97369 10.5006C9.97369 9.26322 11.2992 8.26012 12.9342 8.26012C14.5693 8.26012 15.8947 9.26322 15.8947 10.5006Z" fill="white"/>
</g>
<path d="M26.1367 11.6543H23.8574V10.7344H26.1367C26.5781 10.7344 26.9355 10.6641 27.209 10.5234C27.4824 10.3828 27.6816 10.1875 27.8066 9.9375C27.9355 9.6875 28 9.40234 28 9.08203C28 8.78906 27.9355 8.51367 27.8066 8.25586C27.6816 7.99805 27.4824 7.79102 27.209 7.63477C26.9355 7.47461 26.5781 7.39453 26.1367 7.39453H24.1211V15H22.9902V6.46875H26.1367C26.7812 6.46875 27.3262 6.58008 27.7715 6.80273C28.2168 7.02539 28.5547 7.33398 28.7852 7.72852C29.0156 8.11914 29.1309 8.56641 29.1309 9.07031C29.1309 9.61719 29.0156 10.084 28.7852 10.4707C28.5547 10.8574 28.2168 11.1523 27.7715 11.3555C27.3262 11.5547 26.7812 11.6543 26.1367 11.6543ZM30.0273 11.9004V11.7656C30.0273 11.3086 30.0938 10.8848 30.2266 10.4941C30.3594 10.0996 30.5508 9.75781 30.8008 9.46875C31.0508 9.17578 31.3535 8.94922 31.709 8.78906C32.0645 8.625 32.4629 8.54297 32.9043 8.54297C33.3496 8.54297 33.75 8.625 34.1055 8.78906C34.4648 8.94922 34.7695 9.17578 35.0195 9.46875C35.2734 9.75781 35.4668 10.0996 35.5996 10.4941C35.7324 10.8848 35.7988 11.3086 35.7988 11.7656V11.9004C35.7988 12.3574 35.7324 12.7812 35.5996 13.1719C35.4668 13.5625 35.2734 13.9043 35.0195 14.1973C34.7695 14.4863 34.4668 14.7129 34.1113 14.877C33.7598 15.0371 33.3613 15.1172 32.916 15.1172C32.4707 15.1172 32.0703 15.0371 31.7148 14.877C31.3594 14.7129 31.0547 14.4863 30.8008 14.1973C30.5508 13.9043 30.3594 13.5625 30.2266 13.1719C30.0938 12.7812 30.0273 12.3574 30.0273 11.9004ZM31.1113 11.7656V11.9004C31.1113 12.2168 31.1484 12.5156 31.2227 12.7969C31.2969 13.0742 31.4082 13.3203 31.5566 13.5352C31.709 13.75 31.8984 13.9199 32.125 14.0449C32.3516 14.166 32.6152 14.2266 32.916 14.2266C33.2129 14.2266 33.4727 14.166 33.6953 14.0449C33.9219 13.9199 34.1094 13.75 34.2578 13.5352C34.4062 13.3203 34.5176 13.0742 34.5918 12.7969C34.6699 12.5156 34.709 12.2168 34.709 11.9004V11.7656C34.709 11.4531 34.6699 11.1582 34.5918 10.8809C34.5176 10.5996 34.4043 10.3516 34.252 10.1367C34.1035 9.91797 33.916 9.74609 33.6895 9.62109C33.4668 9.49609 33.2051 9.43359 32.9043 9.43359C32.6074 9.43359 32.3457 9.49609 32.1191 9.62109C31.8965 9.74609 31.709 9.91797 31.5566 10.1367C31.4082 10.3516 31.2969 10.5996 31.2227 10.8809C31.1484 11.1582 31.1113 11.4531 31.1113 11.7656ZM38.3359 8.66016V15H37.2461V8.66016H38.3359ZM37.1641 6.97852C37.1641 6.80273 37.2168 6.6543 37.3223 6.5332C37.4316 6.41211 37.5918 6.35156 37.8027 6.35156C38.0098 6.35156 38.168 6.41211 38.2773 6.5332C38.3906 6.6543 38.4473 6.80273 38.4473 6.97852C38.4473 7.14648 38.3906 7.29102 38.2773 7.41211C38.168 7.5293 38.0098 7.58789 37.8027 7.58789C37.5918 7.58789 37.4316 7.5293 37.3223 7.41211C37.2168 7.29102 37.1641 7.14648 37.1641 6.97852ZM43.7676 13.3184C43.7676 13.1621 43.7324 13.0176 43.6621 12.8848C43.5957 12.748 43.457 12.625 43.2461 12.5156C43.0391 12.4023 42.7266 12.3047 42.3086 12.2227C41.957 12.1484 41.6387 12.0605 41.3535 11.959C41.0723 11.8574 40.832 11.7344 40.6328 11.5898C40.4375 11.4453 40.2871 11.2754 40.1816 11.0801C40.0762 10.8848 40.0234 10.6562 40.0234 10.3945C40.0234 10.1445 40.0781 9.9082 40.1875 9.68555C40.3008 9.46289 40.459 9.26562 40.6621 9.09375C40.8691 8.92188 41.1172 8.78711 41.4062 8.68945C41.6953 8.5918 42.0176 8.54297 42.373 8.54297C42.8809 8.54297 43.3145 8.63281 43.6738 8.8125C44.0332 8.99219 44.3086 9.23242 44.5 9.5332C44.6914 9.83008 44.7871 10.1602 44.7871 10.5234H43.7031C43.7031 10.3477 43.6504 10.1777 43.5449 10.0137C43.4434 9.8457 43.293 9.70703 43.0938 9.59766C42.8984 9.48828 42.6582 9.43359 42.373 9.43359C42.0723 9.43359 41.8281 9.48047 41.6406 9.57422C41.457 9.66406 41.3223 9.7793 41.2363 9.91992C41.1543 10.0605 41.1133 10.209 41.1133 10.3652C41.1133 10.4824 41.1328 10.5879 41.1719 10.6816C41.2148 10.7715 41.2891 10.8555 41.3945 10.9336C41.5 11.0078 41.6484 11.0781 41.8398 11.1445C42.0312 11.2109 42.2754 11.2773 42.5723 11.3438C43.0918 11.4609 43.5195 11.6016 43.8555 11.7656C44.1914 11.9297 44.4414 12.1309 44.6055 12.3691C44.7695 12.6074 44.8516 12.8965 44.8516 13.2363C44.8516 13.5137 44.793 13.7676 44.6758 13.998C44.5625 14.2285 44.3965 14.4277 44.1777 14.5957C43.9629 14.7598 43.7051 14.8887 43.4043 14.9824C43.1074 15.0723 42.7734 15.1172 42.4023 15.1172C41.8438 15.1172 41.3711 15.0176 40.9844 14.8184C40.5977 14.6191 40.3047 14.3613 40.1055 14.0449C39.9062 13.7285 39.8066 13.3945 39.8066 13.043H40.8965C40.9121 13.3398 40.998 13.5762 41.1543 13.752C41.3105 13.9238 41.502 14.0469 41.7285 14.1211C41.9551 14.1914 42.1797 14.2266 42.4023 14.2266C42.6992 14.2266 42.9473 14.1875 43.1465 14.1094C43.3496 14.0312 43.5039 13.9238 43.6094 13.7871C43.7148 13.6504 43.7676 13.4941 43.7676 13.3184ZM45.9883 11.9004V11.7656C45.9883 11.3086 46.0547 10.8848 46.1875 10.4941C46.3203 10.0996 46.5117 9.75781 46.7617 9.46875C47.0117 9.17578 47.3145 8.94922 47.6699 8.78906C48.0254 8.625 48.4238 8.54297 48.8652 8.54297C49.3105 8.54297 49.7109 8.625 50.0664 8.78906C50.4258 8.94922 50.7305 9.17578 50.9805 9.46875C51.2344 9.75781 51.4277 10.0996 51.5605 10.4941C51.6934 10.8848 51.7598 11.3086 51.7598 11.7656V11.9004C51.7598 12.3574 51.6934 12.7812 51.5605 13.1719C51.4277 13.5625 51.2344 13.9043 50.9805 14.1973C50.7305 14.4863 50.4277 14.7129 50.0723 14.877C49.7207 15.0371 49.3223 15.1172 48.877 15.1172C48.4316 15.1172 48.0312 15.0371 47.6758 14.877C47.3203 14.7129 47.0156 14.4863 46.7617 14.1973C46.5117 13.9043 46.3203 13.5625 46.1875 13.1719C46.0547 12.7812 45.9883 12.3574 45.9883 11.9004ZM47.0723 11.7656V11.9004C47.0723 12.2168 47.1094 12.5156 47.1836 12.7969C47.2578 13.0742 47.3691 13.3203 47.5176 13.5352C47.6699 13.75 47.8594 13.9199 48.0859 14.0449C48.3125 14.166 48.5762 14.2266 48.877 14.2266C49.1738 14.2266 49.4336 14.166 49.6562 14.0449C49.8828 13.9199 50.0703 13.75 50.2188 13.5352C50.3672 13.3203 50.4785 13.0742 50.5527 12.7969C50.6309 12.5156 50.6699 12.2168 50.6699 11.9004V11.7656C50.6699 11.4531 50.6309 11.1582 50.5527 10.8809C50.4785 10.5996 50.3652 10.3516 50.2129 10.1367C50.0645 9.91797 49.877 9.74609 49.6504 9.62109C49.4277 9.49609 49.166 9.43359 48.8652 9.43359C48.5684 9.43359 48.3066 9.49609 48.0801 9.62109C47.8574 9.74609 47.6699 9.91797 47.5176 10.1367C47.3691 10.3516 47.2578 10.5996 47.1836 10.8809C47.1094 11.1582 47.0723 11.4531 47.0723 11.7656ZM54.2031 10.0137V15H53.1191V8.66016H54.1445L54.2031 10.0137ZM53.9453 11.5898L53.4941 11.5723C53.498 11.1387 53.5625 10.7383 53.6875 10.3711C53.8125 10 53.9883 9.67773 54.2148 9.4043C54.4414 9.13086 54.7109 8.91992 55.0234 8.77148C55.3398 8.61914 55.6895 8.54297 56.0723 8.54297C56.3848 8.54297 56.666 8.58594 56.916 8.67188C57.166 8.75391 57.3789 8.88672 57.5547 9.07031C57.7344 9.25391 57.8711 9.49219 57.9648 9.78516C58.0586 10.0742 58.1055 10.4277 58.1055 10.8457V15H57.0156V10.834C57.0156 10.502 56.9668 10.2363 56.8691 10.0371C56.7715 9.83398 56.6289 9.6875 56.4414 9.59766C56.2539 9.50391 56.0234 9.45703 55.75 9.45703C55.4805 9.45703 55.2344 9.51367 55.0117 9.62695C54.793 9.74023 54.6035 9.89648 54.4434 10.0957C54.2871 10.2949 54.1641 10.5234 54.0742 10.7812C53.9883 11.0352 53.9453 11.3047 53.9453 11.5898Z" fill="white"/>
<defs>
<clipPath id="clip0_7_122">
<rect width="10" height="10" fill="white" transform="translate(8 6)"/>
</clipPath>
</defs>
</svg>
