<svg width="72" height="22" viewBox="0 0 72 22" fill="none" xmlns="http://www.w3.org/2000/svg">
<rect width="72" height="22" rx="11" fill="#6114BC"/>
<g clip-path="url(#clip0_25_365)">
<path fill-rule="evenodd" clip-rule="evenodd" d="M16.9048 14.3044C16.9048 14.3044 15.6438 15.3157 13.1346 14.8972C11.2309 14.5797 10.2156 12.4811 10.2156 11.3531C10.2156 8.67869 12.195 8.07008 13.5332 8.07008C14.8714 8.07008 15.7444 9.37477 15.7444 10.3849C15.7444 11.3951 15.0299 12.2786 13.9181 12.2786C12.8062 12.2786 12.477 11.4981 12.477 10.7804C12.477 10.0628 13.0576 9.80998 13.5871 9.80998C14.1166 9.80998 14.2979 10.2621 14.2979 10.6506C14.2979 11.0391 13.9964 11.1783 13.745 11.1783C13.4935 11.1783 13.4687 11.0514 13.3724 10.9181C13.2762 10.7848 13.4952 10.2802 13.1346 10.2802C12.7741 10.2802 12.7069 10.8603 12.7069 10.8603C12.7069 10.8603 12.8383 11.9801 13.9181 11.9608C14.9979 11.9414 15.5101 11.1067 15.3612 10.2802C15.2124 9.45371 14.4103 8.57549 13.0026 8.75295C11.5949 8.93041 11.0202 10.3528 11.2735 11.8728C11.5268 13.3928 13.3478 14.2735 14.7795 13.9566C16.2113 13.6398 17.6373 12.6032 17.6373 9.97525C17.6373 7.34724 15.3612 5.76757 12.6473 6.02791C9.93332 6.28825 8.24861 8.66098 8.35645 11.5119C8.46428 14.3627 11.1694 15.9154 13.4569 15.9954C15.7444 16.0755 17.1467 14.7513 17.1467 14.7513C17.1467 14.7513 17.4621 14.4701 17.3384 14.2505C17.2148 14.0309 16.9048 14.3044 16.9048 14.3044Z" fill="white"/>
</g>
<path d="M26.1367 11.6543H23.8574V10.7344H26.1367C26.5781 10.7344 26.9355 10.6641 27.209 10.5234C27.4824 10.3828 27.6816 10.1875 27.8066 9.9375C27.9355 9.6875 28 9.40234 28 9.08203C28 8.78906 27.9355 8.51367 27.8066 8.25586C27.6816 7.99805 27.4824 7.79102 27.209 7.63477C26.9355 7.47461 26.5781 7.39453 26.1367 7.39453H24.1211V15H22.9902V6.46875H26.1367C26.7812 6.46875 27.3262 6.58008 27.7715 6.80273C28.2168 7.02539 28.5547 7.33398 28.7852 7.72852C29.0156 8.11914 29.1309 8.56641 29.1309 9.07031C29.1309 9.61719 29.0156 10.084 28.7852 10.4707C28.5547 10.8574 28.2168 11.1523 27.7715 11.3555C27.3262 11.5547 26.7812 11.6543 26.1367 11.6543ZM34.0879 13.3184C34.0879 13.1621 34.0527 13.0176 33.9824 12.8848C33.916 12.748 33.7773 12.625 33.5664 12.5156C33.3594 12.4023 33.0469 12.3047 32.6289 12.2227C32.2773 12.1484 31.959 12.0605 31.6738 11.959C31.3926 11.8574 31.1523 11.7344 30.9531 11.5898C30.7578 11.4453 30.6074 11.2754 30.502 11.0801C30.3965 10.8848 30.3438 10.6562 30.3438 10.3945C30.3438 10.1445 30.3984 9.9082 30.5078 9.68555C30.6211 9.46289 30.7793 9.26562 30.9824 9.09375C31.1895 8.92188 31.4375 8.78711 31.7266 8.68945C32.0156 8.5918 32.3379 8.54297 32.6934 8.54297C33.2012 8.54297 33.6348 8.63281 33.9941 8.8125C34.3535 8.99219 34.6289 9.23242 34.8203 9.5332C35.0117 9.83008 35.1074 10.1602 35.1074 10.5234H34.0234C34.0234 10.3477 33.9707 10.1777 33.8652 10.0137C33.7637 9.8457 33.6133 9.70703 33.4141 9.59766C33.2188 9.48828 32.9785 9.43359 32.6934 9.43359C32.3926 9.43359 32.1484 9.48047 31.9609 9.57422C31.7773 9.66406 31.6426 9.7793 31.5566 9.91992C31.4746 10.0605 31.4336 10.209 31.4336 10.3652C31.4336 10.4824 31.4531 10.5879 31.4922 10.6816C31.5352 10.7715 31.6094 10.8555 31.7148 10.9336C31.8203 11.0078 31.9688 11.0781 32.1602 11.1445C32.3516 11.2109 32.5957 11.2773 32.8926 11.3438C33.4121 11.4609 33.8398 11.6016 34.1758 11.7656C34.5117 11.9297 34.7617 12.1309 34.9258 12.3691C35.0898 12.6074 35.1719 12.8965 35.1719 13.2363C35.1719 13.5137 35.1133 13.7676 34.9961 13.998C34.8828 14.2285 34.7168 14.4277 34.498 14.5957C34.2832 14.7598 34.0254 14.8887 33.7246 14.9824C33.4277 15.0723 33.0938 15.1172 32.7227 15.1172C32.1641 15.1172 31.6914 15.0176 31.3047 14.8184C30.918 14.6191 30.625 14.3613 30.4258 14.0449C30.2266 13.7285 30.127 13.3945 30.127 13.043H31.2168C31.2324 13.3398 31.3184 13.5762 31.4746 13.752C31.6309 13.9238 31.8223 14.0469 32.0488 14.1211C32.2754 14.1914 32.5 14.2266 32.7227 14.2266C33.0195 14.2266 33.2676 14.1875 33.4668 14.1094C33.6699 14.0312 33.8242 13.9238 33.9297 13.7871C34.0352 13.6504 34.0879 13.4941 34.0879 13.3184ZM38.377 14.3438L40.1406 8.66016H41.3008L38.7578 15.9785C38.6992 16.1348 38.6211 16.3027 38.5234 16.4824C38.4297 16.666 38.3086 16.8398 38.1602 17.0039C38.0117 17.168 37.832 17.3008 37.6211 17.4023C37.4141 17.5078 37.166 17.5605 36.877 17.5605C36.791 17.5605 36.6816 17.5488 36.5488 17.5254C36.416 17.502 36.3223 17.4824 36.2676 17.4668L36.2617 16.5879C36.293 16.5918 36.3418 16.5957 36.4082 16.5996C36.4785 16.6074 36.5273 16.6113 36.5547 16.6113C36.8008 16.6113 37.0098 16.5781 37.1816 16.5117C37.3535 16.4492 37.498 16.3418 37.6152 16.1895C37.7363 16.041 37.8398 15.8359 37.9258 15.5742L38.377 14.3438ZM37.082 8.66016L38.7285 13.582L39.0098 14.7246L38.2305 15.123L35.8984 8.66016H37.082ZM44.7344 14.2266C44.9922 14.2266 45.2305 14.1738 45.4492 14.0684C45.668 13.9629 45.8477 13.8184 45.9883 13.6348C46.1289 13.4473 46.209 13.2344 46.2285 12.9961H47.2598C47.2402 13.3711 47.1133 13.7207 46.8789 14.0449C46.6484 14.3652 46.3457 14.625 45.9707 14.8242C45.5957 15.0195 45.1836 15.1172 44.7344 15.1172C44.2578 15.1172 43.8418 15.0332 43.4863 14.8652C43.1348 14.6973 42.8418 14.4668 42.6074 14.1738C42.377 13.8809 42.2031 13.5449 42.0859 13.166C41.9727 12.7832 41.916 12.3789 41.916 11.9531V11.707C41.916 11.2812 41.9727 10.8789 42.0859 10.5C42.2031 10.1172 42.377 9.7793 42.6074 9.48633C42.8418 9.19336 43.1348 8.96289 43.4863 8.79492C43.8418 8.62695 44.2578 8.54297 44.7344 8.54297C45.2305 8.54297 45.6641 8.64453 46.0352 8.84766C46.4062 9.04688 46.6973 9.32031 46.9082 9.66797C47.123 10.0117 47.2402 10.4023 47.2598 10.8398H46.2285C46.209 10.5781 46.1348 10.3418 46.0059 10.1309C45.8809 9.91992 45.709 9.75195 45.4902 9.62695C45.2754 9.49805 45.0234 9.43359 44.7344 9.43359C44.4023 9.43359 44.123 9.5 43.8965 9.63281C43.6738 9.76172 43.4961 9.9375 43.3633 10.1602C43.2344 10.3789 43.1406 10.623 43.082 10.8926C43.0273 11.1582 43 11.4297 43 11.707V11.9531C43 12.2305 43.0273 12.5039 43.082 12.7734C43.1367 13.043 43.2285 13.2871 43.3574 13.5059C43.4902 13.7246 43.668 13.9004 43.8906 14.0332C44.1172 14.1621 44.3984 14.2266 44.7344 14.2266ZM49.5625 6V15H48.4785V6H49.5625ZM49.3047 11.5898L48.8535 11.5723C48.8574 11.1387 48.9219 10.7383 49.0469 10.3711C49.1719 10 49.3477 9.67773 49.5742 9.4043C49.8008 9.13086 50.0703 8.91992 50.3828 8.77148C50.6992 8.61914 51.0488 8.54297 51.4316 8.54297C51.7441 8.54297 52.0254 8.58594 52.2754 8.67188C52.5254 8.75391 52.7383 8.88672 52.9141 9.07031C53.0938 9.25391 53.2305 9.49219 53.3242 9.78516C53.418 10.0742 53.4648 10.4277 53.4648 10.8457V15H52.375V10.834C52.375 10.502 52.3262 10.2363 52.2285 10.0371C52.1309 9.83398 51.9883 9.6875 51.8008 9.59766C51.6133 9.50391 51.3828 9.45703 51.1094 9.45703C50.8398 9.45703 50.5938 9.51367 50.3711 9.62695C50.1523 9.74023 49.9629 9.89648 49.8027 10.0957C49.6465 10.2949 49.5234 10.5234 49.4336 10.7812C49.3477 11.0352 49.3047 11.3047 49.3047 11.5898ZM56.2656 8.66016V15H55.1758V8.66016H56.2656ZM55.0938 6.97852C55.0938 6.80273 55.1465 6.6543 55.252 6.5332C55.3613 6.41211 55.5215 6.35156 55.7324 6.35156C55.9395 6.35156 56.0977 6.41211 56.207 6.5332C56.3203 6.6543 56.377 6.80273 56.377 6.97852C56.377 7.14648 56.3203 7.29102 56.207 7.41211C56.0977 7.5293 55.9395 7.58789 55.7324 7.58789C55.5215 7.58789 55.3613 7.5293 55.252 7.41211C55.1465 7.29102 55.0938 7.14648 55.0938 6.97852ZM60.543 14.2266C60.8008 14.2266 61.0391 14.1738 61.2578 14.0684C61.4766 13.9629 61.6562 13.8184 61.7969 13.6348C61.9375 13.4473 62.0176 13.2344 62.0371 12.9961H63.0684C63.0488 13.3711 62.9219 13.7207 62.6875 14.0449C62.457 14.3652 62.1543 14.625 61.7793 14.8242C61.4043 15.0195 60.9922 15.1172 60.543 15.1172C60.0664 15.1172 59.6504 15.0332 59.2949 14.8652C58.9434 14.6973 58.6504 14.4668 58.416 14.1738C58.1855 13.8809 58.0117 13.5449 57.8945 13.166C57.7812 12.7832 57.7246 12.3789 57.7246 11.9531V11.707C57.7246 11.2812 57.7812 10.8789 57.8945 10.5C58.0117 10.1172 58.1855 9.7793 58.416 9.48633C58.6504 9.19336 58.9434 8.96289 59.2949 8.79492C59.6504 8.62695 60.0664 8.54297 60.543 8.54297C61.0391 8.54297 61.4727 8.64453 61.8438 8.84766C62.2148 9.04688 62.5059 9.32031 62.7168 9.66797C62.9316 10.0117 63.0488 10.4023 63.0684 10.8398H62.0371C62.0176 10.5781 61.9434 10.3418 61.8145 10.1309C61.6895 9.91992 61.5176 9.75195 61.2988 9.62695C61.084 9.49805 60.832 9.43359 60.543 9.43359C60.2109 9.43359 59.9316 9.5 59.7051 9.63281C59.4824 9.76172 59.3047 9.9375 59.1719 10.1602C59.043 10.3789 58.9492 10.623 58.8906 10.8926C58.8359 11.1582 58.8086 11.4297 58.8086 11.707V11.9531C58.8086 12.2305 58.8359 12.5039 58.8906 12.7734C58.9453 13.043 59.0371 13.2871 59.166 13.5059C59.2988 13.7246 59.4766 13.9004 59.6992 14.0332C59.9258 14.1621 60.207 14.2266 60.543 14.2266Z" fill="white"/>
<defs>
<clipPath id="clip0_25_365">
<rect width="10" height="10" fill="white" transform="translate(8 6)"/>
</clipPath>
</defs>
</svg>
