<svg width="57" height="22" viewBox="0 0 57 22" fill="none" xmlns="http://www.w3.org/2000/svg">
<rect width="57" height="22" rx="11" fill="#54473D"/>
<g clip-path="url(#clip0_25_458)">
<path fill-rule="evenodd" clip-rule="evenodd" d="M15.7175 10.7804C15.717 10.7796 15.7167 10.7787 15.7169 10.7777L16.3549 7.05765C16.3552 7.05594 16.3567 7.05469 16.3584 7.05469H16.5603C16.5619 7.05469 16.5632 7.0557 16.5637 7.05718L18.001 11.608C18.0014 11.6094 18.001 11.611 17.9998 11.6119L16.94 12.4393C16.9385 12.4405 16.9362 12.4402 16.935 12.4386L15.7175 10.7804ZM7.98047 13.2465C7.98047 13.2481 7.98146 13.2494 7.98293 13.2499L10.1675 13.9642C10.1685 13.9646 10.1697 13.9644 10.1706 13.9637L15.0536 10.5927C15.0544 10.5921 15.055 10.5912 15.0551 10.5902L15.5788 7.07673C15.5791 7.07457 15.5774 7.07263 15.5752 7.07263H11.2501C11.249 7.07263 11.248 7.07311 11.2474 7.07392L7.98129 11.0139C7.98076 11.0146 7.98047 11.0154 7.98047 11.0162V13.2465ZM11.0778 14.1462L13.4644 14.928C13.4654 14.9283 13.4666 14.9281 13.4676 14.9275L16.3089 12.8893C16.3105 12.8882 16.3109 12.8861 16.3098 12.8845L15.2447 11.2994C15.2436 11.2977 15.2413 11.2973 15.2397 11.2984L11.0778 14.1462Z" fill="white"/>
</g>
<path d="M22.9902 6.46875H25.8145C26.4551 6.46875 26.9961 6.56641 27.4375 6.76172C27.8828 6.95703 28.2207 7.24609 28.4512 7.62891C28.6855 8.00781 28.8027 8.47461 28.8027 9.0293C28.8027 9.41992 28.7227 9.77734 28.5625 10.1016C28.4062 10.4219 28.1797 10.6953 27.8828 10.9219C27.5898 11.1445 27.2383 11.3105 26.8281 11.4199L26.5117 11.543H23.8574L23.8457 10.623H25.8496C26.2559 10.623 26.5938 10.5527 26.8633 10.4121C27.1328 10.2676 27.3359 10.0742 27.4727 9.83203C27.6094 9.58984 27.6777 9.32227 27.6777 9.0293C27.6777 8.70117 27.6133 8.41406 27.4844 8.16797C27.3555 7.92188 27.1523 7.73242 26.875 7.59961C26.6016 7.46289 26.248 7.39453 25.8145 7.39453H24.1211V15H22.9902V6.46875ZM27.9766 15L25.9023 11.1328L27.0801 11.127L29.1836 14.9297V15H27.9766ZM29.9336 11.9004V11.7656C29.9336 11.3086 30 10.8848 30.1328 10.4941C30.2656 10.0996 30.457 9.75781 30.707 9.46875C30.957 9.17578 31.2598 8.94922 31.6152 8.78906C31.9707 8.625 32.3691 8.54297 32.8105 8.54297C33.2559 8.54297 33.6562 8.625 34.0117 8.78906C34.3711 8.94922 34.6758 9.17578 34.9258 9.46875C35.1797 9.75781 35.373 10.0996 35.5059 10.4941C35.6387 10.8848 35.7051 11.3086 35.7051 11.7656V11.9004C35.7051 12.3574 35.6387 12.7812 35.5059 13.1719C35.373 13.5625 35.1797 13.9043 34.9258 14.1973C34.6758 14.4863 34.373 14.7129 34.0176 14.877C33.666 15.0371 33.2676 15.1172 32.8223 15.1172C32.377 15.1172 31.9766 15.0371 31.6211 14.877C31.2656 14.7129 30.9609 14.4863 30.707 14.1973C30.457 13.9043 30.2656 13.5625 30.1328 13.1719C30 12.7812 29.9336 12.3574 29.9336 11.9004ZM31.0176 11.7656V11.9004C31.0176 12.2168 31.0547 12.5156 31.1289 12.7969C31.2031 13.0742 31.3145 13.3203 31.4629 13.5352C31.6152 13.75 31.8047 13.9199 32.0312 14.0449C32.2578 14.166 32.5215 14.2266 32.8223 14.2266C33.1191 14.2266 33.3789 14.166 33.6016 14.0449C33.8281 13.9199 34.0156 13.75 34.1641 13.5352C34.3125 13.3203 34.4238 13.0742 34.498 12.7969C34.5762 12.5156 34.6152 12.2168 34.6152 11.9004V11.7656C34.6152 11.4531 34.5762 11.1582 34.498 10.8809C34.4238 10.5996 34.3105 10.3516 34.1582 10.1367C34.0098 9.91797 33.8223 9.74609 33.5957 9.62109C33.373 9.49609 33.1113 9.43359 32.8105 9.43359C32.5137 9.43359 32.252 9.49609 32.0254 9.62109C31.8027 9.74609 31.6152 9.91797 31.4629 10.1367C31.3145 10.3516 31.2031 10.5996 31.1289 10.8809C31.0547 11.1582 31.0176 11.4531 31.0176 11.7656ZM39.6016 14.2266C39.8594 14.2266 40.0977 14.1738 40.3164 14.0684C40.5352 13.9629 40.7148 13.8184 40.8555 13.6348C40.9961 13.4473 41.0762 13.2344 41.0957 12.9961H42.127C42.1074 13.3711 41.9805 13.7207 41.7461 14.0449C41.5156 14.3652 41.2129 14.625 40.8379 14.8242C40.4629 15.0195 40.0508 15.1172 39.6016 15.1172C39.125 15.1172 38.709 15.0332 38.3535 14.8652C38.002 14.6973 37.709 14.4668 37.4746 14.1738C37.2441 13.8809 37.0703 13.5449 36.9531 13.166C36.8398 12.7832 36.7832 12.3789 36.7832 11.9531V11.707C36.7832 11.2812 36.8398 10.8789 36.9531 10.5C37.0703 10.1172 37.2441 9.7793 37.4746 9.48633C37.709 9.19336 38.002 8.96289 38.3535 8.79492C38.709 8.62695 39.125 8.54297 39.6016 8.54297C40.0977 8.54297 40.5312 8.64453 40.9023 8.84766C41.2734 9.04688 41.5645 9.32031 41.7754 9.66797C41.9902 10.0117 42.1074 10.4023 42.127 10.8398H41.0957C41.0762 10.5781 41.002 10.3418 40.873 10.1309C40.748 9.91992 40.5762 9.75195 40.3574 9.62695C40.1426 9.49805 39.8906 9.43359 39.6016 9.43359C39.2695 9.43359 38.9902 9.5 38.7637 9.63281C38.541 9.76172 38.3633 9.9375 38.2305 10.1602C38.1016 10.3789 38.0078 10.623 37.9492 10.8926C37.8945 11.1582 37.8672 11.4297 37.8672 11.707V11.9531C37.8672 12.2305 37.8945 12.5039 37.9492 12.7734C38.0039 13.043 38.0957 13.2871 38.2246 13.5059C38.3574 13.7246 38.5352 13.9004 38.7578 14.0332C38.9844 14.1621 39.2656 14.2266 39.6016 14.2266ZM44.4355 6V15H43.3457V6H44.4355ZM48.3086 8.66016L45.543 11.6191L43.9961 13.2246L43.9082 12.0703L45.0156 10.7461L46.9844 8.66016H48.3086ZM47.3184 15L45.0566 11.9766L45.6191 11.0098L48.5957 15H47.3184Z" fill="white"/>
<defs>
<clipPath id="clip0_25_458">
<rect width="10" height="10" fill="white" transform="translate(8 6)"/>
</clipPath>
</defs>
</svg>
