<svg width="57" height="22" viewBox="0 0 57 22" fill="none" xmlns="http://www.w3.org/2000/svg">
<rect width="57" height="22" rx="11" fill="#5D666E"/>
<g clip-path="url(#clip0_26_543)">
<path fill-rule="evenodd" clip-rule="evenodd" d="M8.001 10.9712C7.99967 10.969 7.99967 10.9662 8.001 10.9639L10.5155 6.66766C10.5168 6.66543 10.5192 6.66406 10.5218 6.66406H15.5057C15.5083 6.66406 15.5107 6.66545 15.5121 6.66769L17.999 10.9639C18.0003 10.9662 18.0003 10.9689 17.999 10.9712L15.5121 15.2626C15.5107 15.2648 15.5083 15.2662 15.5057 15.2662H10.5218C10.5192 15.2662 10.5168 15.2648 10.5155 15.2626L8.001 10.9712ZM15.3167 10.9651C15.3167 12.2442 14.2798 13.2811 13.0008 13.2811C11.7217 13.2811 10.6848 12.2442 10.6848 10.9651C10.6848 9.68605 11.7217 8.64918 13.0008 8.64918C14.2798 8.64918 15.3167 9.68605 15.3167 10.9651Z" fill="white"/>
</g>
<path d="M27.5371 12.8438C27.5371 12.6445 27.5059 12.4688 27.4434 12.3164C27.3848 12.1602 27.2793 12.0195 27.127 11.8945C26.9785 11.7695 26.7715 11.6504 26.5059 11.5371C26.2441 11.4238 25.9121 11.3086 25.5098 11.1914C25.0879 11.0664 24.707 10.9277 24.3672 10.7754C24.0273 10.6191 23.7363 10.4414 23.4941 10.2422C23.252 10.043 23.0664 9.81445 22.9375 9.55664C22.8086 9.29883 22.7441 9.00391 22.7441 8.67188C22.7441 8.33984 22.8125 8.0332 22.9492 7.75195C23.0859 7.4707 23.2812 7.22656 23.5352 7.01953C23.793 6.80859 24.0996 6.64453 24.4551 6.52734C24.8105 6.41016 25.207 6.35156 25.6445 6.35156C26.2852 6.35156 26.8281 6.47461 27.2734 6.7207C27.7227 6.96289 28.0645 7.28125 28.2988 7.67578C28.5332 8.06641 28.6504 8.48438 28.6504 8.92969H27.5254C27.5254 8.60938 27.457 8.32617 27.3203 8.08008C27.1836 7.83008 26.9766 7.63477 26.6992 7.49414C26.4219 7.34961 26.0703 7.27734 25.6445 7.27734C25.2422 7.27734 24.9102 7.33789 24.6484 7.45898C24.3867 7.58008 24.1914 7.74414 24.0625 7.95117C23.9375 8.1582 23.875 8.39453 23.875 8.66016C23.875 8.83984 23.9121 9.00391 23.9863 9.15234C24.0645 9.29688 24.1836 9.43164 24.3438 9.55664C24.5078 9.68164 24.7148 9.79688 24.9648 9.90234C25.2188 10.0078 25.5215 10.1094 25.873 10.207C26.3574 10.3438 26.7754 10.4961 27.127 10.6641C27.4785 10.832 27.7676 11.0215 27.9941 11.2324C28.2246 11.4395 28.3945 11.6758 28.5039 11.9414C28.6172 12.2031 28.6738 12.5 28.6738 12.832C28.6738 13.1797 28.6035 13.4941 28.4629 13.7754C28.3223 14.0566 28.1211 14.2969 27.8594 14.4961C27.5977 14.6953 27.2832 14.8496 26.916 14.959C26.5527 15.0645 26.1465 15.1172 25.6973 15.1172C25.3027 15.1172 24.9141 15.0625 24.5312 14.9531C24.1523 14.8438 23.8066 14.6797 23.4941 14.4609C23.1855 14.2422 22.9375 13.9727 22.75 13.6523C22.5664 13.3281 22.4746 12.9531 22.4746 12.5273H23.5996C23.5996 12.8203 23.6562 13.0723 23.7695 13.2832C23.8828 13.4902 24.0371 13.6621 24.2324 13.7988C24.4316 13.9355 24.6562 14.0371 24.9062 14.1035C25.1602 14.166 25.4238 14.1973 25.6973 14.1973C26.0918 14.1973 26.4258 14.1426 26.6992 14.0332C26.9727 13.9238 27.1797 13.7676 27.3203 13.5645C27.4648 13.3613 27.5371 13.1211 27.5371 12.8438ZM32.6055 8.66016V9.49219H29.1777V8.66016H32.6055ZM30.3379 7.11914H31.4219V13.4297C31.4219 13.6445 31.4551 13.8066 31.5215 13.916C31.5879 14.0254 31.6738 14.0977 31.7793 14.1328C31.8848 14.168 31.998 14.1855 32.1191 14.1855C32.209 14.1855 32.3027 14.1777 32.4004 14.1621C32.502 14.1426 32.5781 14.127 32.6289 14.1152L32.6348 15C32.5488 15.0273 32.4355 15.0527 32.2949 15.0762C32.1582 15.1035 31.9922 15.1172 31.7969 15.1172C31.5312 15.1172 31.2871 15.0645 31.0645 14.959C30.8418 14.8535 30.6641 14.6777 30.5312 14.4316C30.4023 14.1816 30.3379 13.8457 30.3379 13.4238V7.11914ZM36.5078 15.1172C36.0664 15.1172 35.666 15.043 35.3066 14.8945C34.9512 14.7422 34.6445 14.5293 34.3867 14.2559C34.1328 13.9824 33.9375 13.6582 33.8008 13.2832C33.6641 12.9082 33.5957 12.498 33.5957 12.0527V11.8066C33.5957 11.291 33.6719 10.832 33.8242 10.4297C33.9766 10.0234 34.1836 9.67969 34.4453 9.39844C34.707 9.11719 35.0039 8.9043 35.3359 8.75977C35.668 8.61523 36.0117 8.54297 36.3672 8.54297C36.8203 8.54297 37.2109 8.62109 37.5391 8.77734C37.8711 8.93359 38.1426 9.15234 38.3535 9.43359C38.5645 9.71094 38.7207 10.0391 38.8223 10.418C38.9238 10.793 38.9746 11.2031 38.9746 11.6484V12.1348H34.2402V11.25H37.8906V11.168C37.875 10.8867 37.8164 10.6133 37.7148 10.3477C37.6172 10.082 37.4609 9.86328 37.2461 9.69141C37.0312 9.51953 36.7383 9.43359 36.3672 9.43359C36.1211 9.43359 35.8945 9.48633 35.6875 9.5918C35.4805 9.69336 35.3027 9.8457 35.1543 10.0488C35.0059 10.252 34.8906 10.5 34.8086 10.793C34.7266 11.0859 34.6855 11.4238 34.6855 11.8066V12.0527C34.6855 12.3535 34.7266 12.6367 34.8086 12.9023C34.8945 13.1641 35.0176 13.3945 35.1777 13.5938C35.3418 13.793 35.5391 13.9492 35.7695 14.0625C36.0039 14.1758 36.2695 14.2324 36.5664 14.2324C36.9492 14.2324 37.2734 14.1543 37.5391 13.998C37.8047 13.8418 38.0371 13.6328 38.2363 13.3711L38.8926 13.8926C38.7559 14.0996 38.582 14.2969 38.3711 14.4844C38.1602 14.6719 37.9004 14.8242 37.5918 14.9414C37.2871 15.0586 36.9258 15.1172 36.5078 15.1172ZM42.8711 15.1172C42.4297 15.1172 42.0293 15.043 41.6699 14.8945C41.3145 14.7422 41.0078 14.5293 40.75 14.2559C40.4961 13.9824 40.3008 13.6582 40.1641 13.2832C40.0273 12.9082 39.959 12.498 39.959 12.0527V11.8066C39.959 11.291 40.0352 10.832 40.1875 10.4297C40.3398 10.0234 40.5469 9.67969 40.8086 9.39844C41.0703 9.11719 41.3672 8.9043 41.6992 8.75977C42.0312 8.61523 42.375 8.54297 42.7305 8.54297C43.1836 8.54297 43.5742 8.62109 43.9023 8.77734C44.2344 8.93359 44.5059 9.15234 44.7168 9.43359C44.9277 9.71094 45.084 10.0391 45.1855 10.418C45.2871 10.793 45.3379 11.2031 45.3379 11.6484V12.1348H40.6035V11.25H44.2539V11.168C44.2383 10.8867 44.1797 10.6133 44.0781 10.3477C43.9805 10.082 43.8242 9.86328 43.6094 9.69141C43.3945 9.51953 43.1016 9.43359 42.7305 9.43359C42.4844 9.43359 42.2578 9.48633 42.0508 9.5918C41.8438 9.69336 41.666 9.8457 41.5176 10.0488C41.3691 10.252 41.2539 10.5 41.1719 10.793C41.0898 11.0859 41.0488 11.4238 41.0488 11.8066V12.0527C41.0488 12.3535 41.0898 12.6367 41.1719 12.9023C41.2578 13.1641 41.3809 13.3945 41.541 13.5938C41.7051 13.793 41.9023 13.9492 42.1328 14.0625C42.3672 14.1758 42.6328 14.2324 42.9297 14.2324C43.3125 14.2324 43.6367 14.1543 43.9023 13.998C44.168 13.8418 44.4004 13.6328 44.5996 13.3711L45.2559 13.8926C45.1191 14.0996 44.9453 14.2969 44.7344 14.4844C44.5234 14.6719 44.2637 14.8242 43.9551 14.9414C43.6504 15.0586 43.2891 15.1172 42.8711 15.1172ZM47.7812 6V15H46.6914V6H47.7812Z" fill="white"/>
<defs>
<clipPath id="clip0_26_543">
<rect width="10" height="10" fill="white" transform="translate(8 6)"/>
</clipPath>
</defs>
</svg>
