<svg width="62" height="22" viewBox="0 0 62 22" fill="none" xmlns="http://www.w3.org/2000/svg">
<rect width="62" height="22" rx="11" fill="#265DFC"/>
<path fill-rule="evenodd" clip-rule="evenodd" d="M16.2455 12.7679C16.2455 14.5527 14.7932 15.9996 13.0017 15.9996C11.2101 15.9996 9.75781 14.5527 9.75781 12.7679C9.75781 11.032 12.8262 6.26461 12.9945 6.00445C12.9983 5.99852 13.005 5.99852 13.0089 6.00445C13.1771 6.26461 16.2455 11.032 16.2455 12.7679ZM12.4609 14.9635C10.8148 14.6033 11.0965 12.7799 11.0965 12.7799C11.0965 12.7799 11.546 13.8806 12.6368 14.2372C13.7276 14.5937 15.0458 14.0708 15.0458 14.0708C15.0458 14.0708 14.107 15.3237 12.4609 14.9635Z" fill="white"/>
<path d="M25.2344 12.4219L26.9277 6.46875H27.748L27.2734 8.7832L25.4512 15H24.6367L25.2344 12.4219ZM23.4824 6.46875L24.8301 12.3047L25.2344 15H24.4258L22.3574 6.46875H23.4824ZM29.9395 12.2988L31.2578 6.46875H32.3887L30.3262 15H29.5176L29.9395 12.2988ZM27.8711 6.46875L29.5176 12.4219L30.1152 15H29.3008L27.543 8.7832L27.0625 6.46875H27.8711ZM37.0176 13.916V10.6523C37.0176 10.4023 36.9668 10.1855 36.8652 10.002C36.7676 9.81445 36.6191 9.66992 36.4199 9.56836C36.2207 9.4668 35.9746 9.41602 35.6816 9.41602C35.4082 9.41602 35.168 9.46289 34.9609 9.55664C34.7578 9.65039 34.5977 9.77344 34.4805 9.92578C34.3672 10.0781 34.3105 10.2422 34.3105 10.418H33.2266C33.2266 10.1914 33.2852 9.9668 33.4023 9.74414C33.5195 9.52148 33.6875 9.32031 33.9062 9.14062C34.1289 8.95703 34.3945 8.8125 34.7031 8.70703C35.0156 8.59766 35.3633 8.54297 35.7461 8.54297C36.207 8.54297 36.6133 8.62109 36.9648 8.77734C37.3203 8.93359 37.5977 9.16992 37.7969 9.48633C38 9.79883 38.1016 10.1914 38.1016 10.6641V13.6172C38.1016 13.8281 38.1191 14.0527 38.1543 14.291C38.1934 14.5293 38.25 14.7344 38.3242 14.9062V15H37.1934C37.1387 14.875 37.0957 14.709 37.0645 14.502C37.0332 14.291 37.0176 14.0957 37.0176 13.916ZM37.2051 11.1562L37.2168 11.918H36.1211C35.8125 11.918 35.5371 11.9434 35.2949 11.9941C35.0527 12.041 34.8496 12.1133 34.6855 12.2109C34.5215 12.3086 34.3965 12.4316 34.3105 12.5801C34.2246 12.7246 34.1816 12.8945 34.1816 13.0898C34.1816 13.2891 34.2266 13.4707 34.3164 13.6348C34.4062 13.7988 34.541 13.9297 34.7207 14.0273C34.9043 14.1211 35.1289 14.168 35.3945 14.168C35.7266 14.168 36.0195 14.0977 36.2734 13.957C36.5273 13.8164 36.7285 13.6445 36.877 13.4414C37.0293 13.2383 37.1113 13.041 37.123 12.8496L37.5859 13.3711C37.5586 13.5352 37.4844 13.7168 37.3633 13.916C37.2422 14.1152 37.0801 14.3066 36.877 14.4902C36.6777 14.6699 36.4395 14.8203 36.1621 14.9414C35.8887 15.0586 35.5801 15.1172 35.2363 15.1172C34.8066 15.1172 34.4297 15.0332 34.1055 14.8652C33.7852 14.6973 33.5352 14.4727 33.3555 14.1914C33.1797 13.9062 33.0918 13.5879 33.0918 13.2363C33.0918 12.8965 33.1582 12.5977 33.291 12.3398C33.4238 12.0781 33.6152 11.8613 33.8652 11.6895C34.1152 11.5137 34.416 11.3809 34.7676 11.291C35.1191 11.2012 35.5117 11.1562 35.9453 11.1562H37.2051ZM42.4609 8.66016V9.49219H39.0332V8.66016H42.4609ZM40.1934 7.11914H41.2773V13.4297C41.2773 13.6445 41.3105 13.8066 41.377 13.916C41.4434 14.0254 41.5293 14.0977 41.6348 14.1328C41.7402 14.168 41.8535 14.1855 41.9746 14.1855C42.0645 14.1855 42.1582 14.1777 42.2559 14.1621C42.3574 14.1426 42.4336 14.127 42.4844 14.1152L42.4902 15C42.4043 15.0273 42.291 15.0527 42.1504 15.0762C42.0137 15.1035 41.8477 15.1172 41.6523 15.1172C41.3867 15.1172 41.1426 15.0645 40.9199 14.959C40.6973 14.8535 40.5195 14.6777 40.3867 14.4316C40.2578 14.1816 40.1934 13.8457 40.1934 13.4238V7.11914ZM46.3633 15.1172C45.9219 15.1172 45.5215 15.043 45.1621 14.8945C44.8066 14.7422 44.5 14.5293 44.2422 14.2559C43.9883 13.9824 43.793 13.6582 43.6562 13.2832C43.5195 12.9082 43.4512 12.498 43.4512 12.0527V11.8066C43.4512 11.291 43.5273 10.832 43.6797 10.4297C43.832 10.0234 44.0391 9.67969 44.3008 9.39844C44.5625 9.11719 44.8594 8.9043 45.1914 8.75977C45.5234 8.61523 45.8672 8.54297 46.2227 8.54297C46.6758 8.54297 47.0664 8.62109 47.3945 8.77734C47.7266 8.93359 47.998 9.15234 48.209 9.43359C48.4199 9.71094 48.5762 10.0391 48.6777 10.418C48.7793 10.793 48.8301 11.2031 48.8301 11.6484V12.1348H44.0957V11.25H47.7461V11.168C47.7305 10.8867 47.6719 10.6133 47.5703 10.3477C47.4727 10.082 47.3164 9.86328 47.1016 9.69141C46.8867 9.51953 46.5938 9.43359 46.2227 9.43359C45.9766 9.43359 45.75 9.48633 45.543 9.5918C45.3359 9.69336 45.1582 9.8457 45.0098 10.0488C44.8613 10.252 44.7461 10.5 44.6641 10.793C44.582 11.0859 44.541 11.4238 44.541 11.8066V12.0527C44.541 12.3535 44.582 12.6367 44.6641 12.9023C44.75 13.1641 44.873 13.3945 45.0332 13.5938C45.1973 13.793 45.3945 13.9492 45.625 14.0625C45.8594 14.1758 46.125 14.2324 46.4219 14.2324C46.8047 14.2324 47.1289 14.1543 47.3945 13.998C47.6602 13.8418 47.8926 13.6328 48.0918 13.3711L48.748 13.8926C48.6113 14.0996 48.4375 14.2969 48.2266 14.4844C48.0156 14.6719 47.7559 14.8242 47.4473 14.9414C47.1426 15.0586 46.7812 15.1172 46.3633 15.1172ZM51.1797 9.65625V15H50.0957V8.66016H51.1504L51.1797 9.65625ZM53.1602 8.625L53.1543 9.63281C53.0645 9.61328 52.9785 9.60156 52.8965 9.59766C52.8184 9.58984 52.7285 9.58594 52.627 9.58594C52.377 9.58594 52.1562 9.625 51.9648 9.70312C51.7734 9.78125 51.6113 9.89062 51.4785 10.0312C51.3457 10.1719 51.2402 10.3398 51.1621 10.5352C51.0879 10.7266 51.0391 10.9375 51.0156 11.168L50.7109 11.3438C50.7109 10.9609 50.748 10.6016 50.8223 10.2656C50.9004 9.92969 51.0195 9.63281 51.1797 9.375C51.3398 9.11328 51.543 8.91016 51.7891 8.76562C52.0391 8.61719 52.3359 8.54297 52.6797 8.54297C52.7578 8.54297 52.8477 8.55273 52.9492 8.57227C53.0508 8.58789 53.1211 8.60547 53.1602 8.625Z" fill="white"/>
</svg>
